%TF.GenerationSoftware,KiCad,Pcbnew,(6.0.4)*%
%TF.CreationDate,2022-04-13T23:09:14+02:00*%
%TF.ProjectId,TICtoUART,54494374-6f55-4415-9254-2e6b69636164,rev?*%
%TF.SameCoordinates,Original*%
%TF.FileFunction,Copper,L2,Bot*%
%TF.FilePolarity,Positive*%
%FSLAX46Y46*%
G04 Gerber Fmt 4.6, Leading zero omitted, Abs format (unit mm)*
G04 Created by KiCad (PCBNEW (6.0.4)) date 2022-04-13 23:09:14*
%MOMM*%
%LPD*%
G01*
G04 APERTURE LIST*
G04 Aperture macros list*
%AMRoundRect*
0 Rectangle with rounded corners*
0 $1 Rounding radius*
0 $2 $3 $4 $5 $6 $7 $8 $9 X,Y pos of 4 corners*
0 Add a 4 corners polygon primitive as box body*
4,1,4,$2,$3,$4,$5,$6,$7,$8,$9,$2,$3,0*
0 Add four circle primitives for the rounded corners*
1,1,$1+$1,$2,$3*
1,1,$1+$1,$4,$5*
1,1,$1+$1,$6,$7*
1,1,$1+$1,$8,$9*
0 Add four rect primitives between the rounded corners*
20,1,$1+$1,$2,$3,$4,$5,0*
20,1,$1+$1,$4,$5,$6,$7,0*
20,1,$1+$1,$6,$7,$8,$9,0*
20,1,$1+$1,$8,$9,$2,$3,0*%
G04 Aperture macros list end*
%TA.AperFunction,ComponentPad*%
%ADD10C,1.600000*%
%TD*%
%TA.AperFunction,ComponentPad*%
%ADD11O,1.600000X1.600000*%
%TD*%
%TA.AperFunction,ComponentPad*%
%ADD12R,1.800000X1.800000*%
%TD*%
%TA.AperFunction,ComponentPad*%
%ADD13C,1.800000*%
%TD*%
%TA.AperFunction,SMDPad,CuDef*%
%ADD14RoundRect,0.500000X0.643000X0.500000X-0.643000X0.500000X-0.643000X-0.500000X0.643000X-0.500000X0*%
%TD*%
%TA.AperFunction,SMDPad,CuDef*%
%ADD15RoundRect,0.500000X1.250000X0.500000X-1.250000X0.500000X-1.250000X-0.500000X1.250000X-0.500000X0*%
%TD*%
%TA.AperFunction,ComponentPad*%
%ADD16R,2.200000X2.200000*%
%TD*%
%TA.AperFunction,ComponentPad*%
%ADD17O,2.200000X2.200000*%
%TD*%
%TA.AperFunction,ComponentPad*%
%ADD18RoundRect,0.250000X1.550000X-0.750000X1.550000X0.750000X-1.550000X0.750000X-1.550000X-0.750000X0*%
%TD*%
%TA.AperFunction,ComponentPad*%
%ADD19O,3.600000X2.000000*%
%TD*%
%TA.AperFunction,ComponentPad*%
%ADD20R,1.600000X1.600000*%
%TD*%
%TA.AperFunction,ComponentPad*%
%ADD21R,1.600000X2.400000*%
%TD*%
%TA.AperFunction,ComponentPad*%
%ADD22O,1.600000X2.400000*%
%TD*%
%TA.AperFunction,ComponentPad*%
%ADD23C,1.524000*%
%TD*%
%TA.AperFunction,ViaPad*%
%ADD24C,0.800000*%
%TD*%
%TA.AperFunction,Conductor*%
%ADD25C,1.000000*%
%TD*%
%TA.AperFunction,Conductor*%
%ADD26C,0.250000*%
%TD*%
G04 APERTURE END LIST*
D10*
%TO.P,R6,1*%
%TO.N,Net-(U3-Pad10)*%
X177038000Y-95250000D03*
D11*
%TO.P,R6,2*%
%TO.N,Net-(D3-Pad2)*%
X187198000Y-95250000D03*
%TD*%
D10*
%TO.P,R5,1*%
%TO.N,Net-(U3-Pad29)*%
X180848000Y-113030000D03*
D11*
%TO.P,R5,2*%
%TO.N,Net-(D2-Pad2)*%
X180848000Y-102870000D03*
%TD*%
D12*
%TO.P,D3,1,K*%
%TO.N,GND*%
X192283000Y-95250000D03*
D13*
%TO.P,D3,2,A*%
%TO.N,Net-(D3-Pad2)*%
X189743000Y-95250000D03*
%TD*%
D12*
%TO.P,D2,1,K*%
%TO.N,GND*%
X192278000Y-113284000D03*
D13*
%TO.P,D2,2,A*%
%TO.N,Net-(D2-Pad2)*%
X189738000Y-113284000D03*
%TD*%
D14*
%TO.P,PS1,4,+Vout*%
%TO.N,Net-(PS1-Pad4)*%
X193812000Y-88392000D03*
%TO.P,PS1,3,-Vout*%
%TO.N,GND*%
X190812000Y-88392000D03*
D15*
%TO.P,PS1,2,AC(N)*%
%TO.N,Net-(PS1-Pad2)*%
X205812000Y-88392000D03*
%TO.P,PS1,1,AC(L)*%
%TO.N,Net-(PS1-Pad1)*%
X210312000Y-88392000D03*
%TD*%
D10*
%TO.P,R3,1*%
%TO.N,+3V3*%
X161290000Y-113030000D03*
D11*
%TO.P,R3,2*%
%TO.N,Net-(R3-Pad2)*%
X171450000Y-113030000D03*
%TD*%
D10*
%TO.P,R4,1*%
%TO.N,Net-(R3-Pad2)*%
X177800000Y-113030000D03*
D11*
%TO.P,R4,2*%
%TO.N,GND*%
X177800000Y-102870000D03*
%TD*%
D16*
%TO.P,D1,1,K*%
%TO.N,Net-(D1-Pad1)*%
X196850000Y-111760000D03*
D17*
%TO.P,D1,2,A*%
%TO.N,Net-(D1-Pad2)*%
X196850000Y-101600000D03*
%TD*%
D18*
%TO.P,J1,1,Pin_1*%
%TO.N,Net-(J1-Pad1)*%
X216222500Y-111720000D03*
D19*
%TO.P,J1,2,Pin_2*%
%TO.N,Net-(D1-Pad2)*%
X216222500Y-106720000D03*
%TD*%
D20*
%TO.P,U1,1*%
%TO.N,Net-(D1-Pad1)*%
X191760000Y-107955000D03*
D11*
%TO.P,U1,2*%
%TO.N,Net-(D1-Pad2)*%
X191760000Y-105415000D03*
%TO.P,U1,3*%
%TO.N,GND*%
X184140000Y-105415000D03*
%TO.P,U1,4*%
%TO.N,Net-(R2-Pad2)*%
X184140000Y-107955000D03*
%TD*%
D21*
%TO.P,U2,1*%
%TO.N,Net-(U2-Pad1)*%
X166380000Y-102860000D03*
D22*
%TO.P,U2,2,-*%
%TO.N,Net-(R3-Pad2)*%
X168920000Y-102860000D03*
%TO.P,U2,3,+*%
%TO.N,Net-(R2-Pad2)*%
X171460000Y-102860000D03*
%TO.P,U2,4,V-*%
%TO.N,GND*%
X174000000Y-102860000D03*
%TO.P,U2,5*%
%TO.N,N/C*%
X174000000Y-95240000D03*
%TO.P,U2,6*%
X171460000Y-95240000D03*
%TO.P,U2,7*%
X168920000Y-95240000D03*
%TO.P,U2,8,V+*%
%TO.N,+3V3*%
X166380000Y-95240000D03*
%TD*%
D10*
%TO.P,R1,1*%
%TO.N,Net-(J1-Pad1)*%
X210820000Y-111760000D03*
D11*
%TO.P,R1,2*%
%TO.N,Net-(D1-Pad1)*%
X200660000Y-111760000D03*
%TD*%
D10*
%TO.P,R2,1*%
%TO.N,+3V3*%
X161290000Y-107950000D03*
D11*
%TO.P,R2,2*%
%TO.N,Net-(R2-Pad2)*%
X171450000Y-107950000D03*
%TD*%
D18*
%TO.P,J2,1,Pin_1*%
%TO.N,Net-(PS1-Pad1)*%
X216222500Y-90500000D03*
D19*
%TO.P,J2,2,Pin_2*%
%TO.N,Net-(PS1-Pad2)*%
X216222500Y-85500000D03*
%TD*%
D23*
%TO.P,U3,1,3V3*%
%TO.N,+3V3*%
X161377500Y-91440000D03*
%TO.P,U3,2,EN*%
%TO.N,unconnected-(U3-Pad2)*%
X163917500Y-91440000D03*
%TO.P,U3,3,GPIO36*%
%TO.N,unconnected-(U3-Pad3)*%
X166457500Y-91440000D03*
%TO.P,U3,4,GPIO39*%
%TO.N,unconnected-(U3-Pad4)*%
X168997500Y-91440000D03*
%TO.P,U3,5,GPIO34*%
%TO.N,unconnected-(U3-Pad5)*%
X171537500Y-91440000D03*
%TO.P,U3,6,GPIO35*%
%TO.N,unconnected-(U3-Pad6)*%
X174077500Y-91440000D03*
%TO.P,U3,7,GPIO32*%
%TO.N,unconnected-(U3-Pad7)*%
X176617500Y-91440000D03*
%TO.P,U3,8,GPIO33*%
%TO.N,unconnected-(U3-Pad8)*%
X179157500Y-91440000D03*
%TO.P,U3,9,GPIO25*%
%TO.N,unconnected-(U3-Pad9)*%
X181697500Y-91440000D03*
%TO.P,U3,10,GPIO26*%
%TO.N,Net-(U3-Pad10)*%
X184237500Y-91440000D03*
%TO.P,U3,11,GPIO27*%
%TO.N,unconnected-(U3-Pad11)*%
X186777500Y-91440000D03*
%TO.P,U3,12,GPIO14*%
%TO.N,unconnected-(U3-Pad12)*%
X189317500Y-91440000D03*
%TO.P,U3,13,GPIO12*%
%TO.N,unconnected-(U3-Pad13)*%
X191857500Y-91440000D03*
%TO.P,U3,14,GND*%
%TO.N,GND*%
X194397500Y-91440000D03*
%TO.P,U3,15,GPIO13*%
%TO.N,unconnected-(U3-Pad15)*%
X196937500Y-91440000D03*
%TO.P,U3,16,GPIO9_SHD/SD2*%
%TO.N,unconnected-(U3-Pad16)*%
X199477500Y-91440000D03*
%TO.P,U3,17,GPIO10_SWP/SD3*%
%TO.N,unconnected-(U3-Pad17)*%
X202017500Y-91440000D03*
%TO.P,U3,18,GPIO11_CSC/CMD*%
%TO.N,unconnected-(U3-Pad18)*%
X204557500Y-91440000D03*
%TO.P,U3,19,VIN*%
%TO.N,Net-(PS1-Pad4)*%
X207097500Y-91440000D03*
%TO.P,U3,20,GPIO6_SCK/CLK*%
%TO.N,unconnected-(U3-Pad20)*%
X207097500Y-116840000D03*
%TO.P,U3,21,GPIO7_SDO/SD0*%
%TO.N,unconnected-(U3-Pad21)*%
X204557500Y-116840000D03*
%TO.P,U3,22,GPIO8_SDI/SD1*%
%TO.N,unconnected-(U3-Pad22)*%
X202017500Y-116840000D03*
%TO.P,U3,23,GPIO15_ADC13_T3*%
%TO.N,unconnected-(U3-Pad23)*%
X199477500Y-116840000D03*
%TO.P,U3,24,GPIO2*%
%TO.N,unconnected-(U3-Pad24)*%
X196937500Y-116840000D03*
%TO.P,U3,25,GPIO0*%
%TO.N,unconnected-(U3-Pad25)*%
X194397500Y-116840000D03*
%TO.P,U3,26,GPIO4*%
%TO.N,unconnected-(U3-Pad26)*%
X191857500Y-116840000D03*
%TO.P,U3,27,GPIO16_UART2-RX*%
%TO.N,Net-(U2-Pad1)*%
X189317500Y-116840000D03*
%TO.P,U3,28,GPIO17_UART2-TX*%
%TO.N,unconnected-(U3-Pad28)*%
X186777500Y-116840000D03*
%TO.P,U3,29,GPIO5_VSPI-CS0*%
%TO.N,Net-(U3-Pad29)*%
X184237500Y-116840000D03*
%TO.P,U3,30,GPIO18_VSPI-CLK*%
%TO.N,unconnected-(U3-Pad30)*%
X181697500Y-116840000D03*
%TO.P,U3,31,GPIO19_VSPI-MISO*%
%TO.N,unconnected-(U3-Pad31)*%
X179157500Y-116840000D03*
%TO.P,U3,32,GND*%
%TO.N,GND*%
X176617500Y-116840000D03*
%TO.P,U3,33,GPIO21_I2C-SDA*%
%TO.N,unconnected-(U3-Pad33)*%
X174077500Y-116840000D03*
%TO.P,U3,34,GPIO3__UART0-RX*%
%TO.N,unconnected-(U3-Pad34)*%
X171537500Y-116840000D03*
%TO.P,U3,35,GPIO1_UART0-TX*%
%TO.N,unconnected-(U3-Pad35)*%
X168997500Y-116840000D03*
%TO.P,U3,36,GPIO22_I2C-SCL*%
%TO.N,unconnected-(U3-Pad36)*%
X166457500Y-116840000D03*
%TO.P,U3,37,GPIO23_VSPI-MOSI*%
%TO.N,unconnected-(U3-Pad37)*%
X163917500Y-116840000D03*
%TO.P,U3,38,GND*%
%TO.N,GND*%
X161377500Y-116840000D03*
%TD*%
D24*
%TO.N,Net-(PS1-Pad4)*%
X194564000Y-88900000D03*
%TD*%
D25*
%TO.N,Net-(PS1-Pad2)*%
X208704000Y-85500000D02*
X216222500Y-85500000D01*
%TO.N,Net-(PS1-Pad1)*%
X210312000Y-88392000D02*
X214114500Y-88392000D01*
X214114500Y-88392000D02*
X216222500Y-90500000D01*
%TO.N,Net-(PS1-Pad2)*%
X208704000Y-85500000D02*
X205812000Y-88392000D01*
D26*
%TO.N,Net-(D2-Pad2)*%
X184912000Y-113284000D02*
X189738000Y-113284000D01*
X180848000Y-109220000D02*
X184912000Y-113284000D01*
X180848000Y-102870000D02*
X180848000Y-109220000D01*
%TO.N,Net-(U2-Pad1)*%
X188595000Y-114935000D02*
X170180000Y-114935000D01*
X170180000Y-114935000D02*
X166380000Y-111135000D01*
X189317500Y-115657500D02*
X188595000Y-114935000D01*
X189317500Y-116840000D02*
X189317500Y-115657500D01*
X166380000Y-111135000D02*
X166380000Y-102860000D01*
%TD*%
%TA.AperFunction,Conductor*%
%TO.N,GND*%
G36*
X196030121Y-81808002D02*
G01*
X196076614Y-81861658D01*
X196088000Y-81914000D01*
X196088000Y-89916000D01*
X196100957Y-89916240D01*
X196755055Y-89928353D01*
X196822794Y-89949613D01*
X196868285Y-90004120D01*
X196877086Y-90074569D01*
X196846402Y-90138592D01*
X196785976Y-90175864D01*
X196763704Y-90179852D01*
X196716037Y-90184022D01*
X196584192Y-90219350D01*
X196506614Y-90240137D01*
X196506612Y-90240138D01*
X196501304Y-90241560D01*
X196496323Y-90243882D01*
X196496322Y-90243883D01*
X196304811Y-90333186D01*
X196304806Y-90333189D01*
X196299824Y-90335512D01*
X196295317Y-90338668D01*
X196295315Y-90338669D01*
X196122230Y-90459864D01*
X196122227Y-90459866D01*
X196117719Y-90463023D01*
X195960523Y-90620219D01*
X195957368Y-90624725D01*
X195957364Y-90624730D01*
X195848105Y-90780769D01*
X195833012Y-90802324D01*
X195830689Y-90807306D01*
X195830686Y-90807311D01*
X195781419Y-90912965D01*
X195734501Y-90966250D01*
X195666224Y-90985711D01*
X195598264Y-90965169D01*
X195553029Y-90912965D01*
X195503877Y-90807559D01*
X195498397Y-90798068D01*
X195467706Y-90754235D01*
X195457229Y-90745860D01*
X195443782Y-90752928D01*
X194769522Y-91427188D01*
X194761908Y-91441132D01*
X194762039Y-91442965D01*
X194766290Y-91449580D01*
X195444503Y-92127793D01*
X195456277Y-92134223D01*
X195468293Y-92124926D01*
X195498397Y-92081932D01*
X195503877Y-92072441D01*
X195553029Y-91967035D01*
X195599947Y-91913750D01*
X195668224Y-91894289D01*
X195736184Y-91914831D01*
X195781419Y-91967035D01*
X195830686Y-92072689D01*
X195830689Y-92072694D01*
X195833012Y-92077676D01*
X195836168Y-92082183D01*
X195836169Y-92082185D01*
X195872607Y-92134223D01*
X195960523Y-92259781D01*
X196117719Y-92416977D01*
X196122227Y-92420134D01*
X196122230Y-92420136D01*
X196197995Y-92473187D01*
X196299823Y-92544488D01*
X196304805Y-92546811D01*
X196304810Y-92546814D01*
X196471534Y-92624558D01*
X196501304Y-92638440D01*
X196506612Y-92639862D01*
X196506614Y-92639863D01*
X196572449Y-92657503D01*
X196716037Y-92695978D01*
X196937500Y-92715353D01*
X197158963Y-92695978D01*
X197302551Y-92657503D01*
X197368386Y-92639863D01*
X197368388Y-92639862D01*
X197373696Y-92638440D01*
X197403466Y-92624558D01*
X197570190Y-92546814D01*
X197570195Y-92546811D01*
X197575177Y-92544488D01*
X197677005Y-92473187D01*
X197752770Y-92420136D01*
X197752773Y-92420134D01*
X197757281Y-92416977D01*
X197914477Y-92259781D01*
X198002394Y-92134223D01*
X198038831Y-92082185D01*
X198038832Y-92082183D01*
X198041988Y-92077676D01*
X198044311Y-92072694D01*
X198044314Y-92072689D01*
X198093305Y-91967627D01*
X198140223Y-91914342D01*
X198208500Y-91894881D01*
X198276460Y-91915423D01*
X198321695Y-91967627D01*
X198370686Y-92072689D01*
X198370689Y-92072694D01*
X198373012Y-92077676D01*
X198376168Y-92082183D01*
X198376169Y-92082185D01*
X198412607Y-92134223D01*
X198500523Y-92259781D01*
X198657719Y-92416977D01*
X198662227Y-92420134D01*
X198662230Y-92420136D01*
X198737995Y-92473187D01*
X198839823Y-92544488D01*
X198844805Y-92546811D01*
X198844810Y-92546814D01*
X199011534Y-92624558D01*
X199041304Y-92638440D01*
X199046612Y-92639862D01*
X199046614Y-92639863D01*
X199112449Y-92657503D01*
X199256037Y-92695978D01*
X199477500Y-92715353D01*
X199698963Y-92695978D01*
X199842551Y-92657503D01*
X199908386Y-92639863D01*
X199908388Y-92639862D01*
X199913696Y-92638440D01*
X199943466Y-92624558D01*
X200110190Y-92546814D01*
X200110195Y-92546811D01*
X200115177Y-92544488D01*
X200217005Y-92473187D01*
X200292770Y-92420136D01*
X200292773Y-92420134D01*
X200297281Y-92416977D01*
X200454477Y-92259781D01*
X200542394Y-92134223D01*
X200578831Y-92082185D01*
X200578832Y-92082183D01*
X200581988Y-92077676D01*
X200584311Y-92072694D01*
X200584314Y-92072689D01*
X200633305Y-91967627D01*
X200680223Y-91914342D01*
X200748500Y-91894881D01*
X200816460Y-91915423D01*
X200861695Y-91967627D01*
X200910686Y-92072689D01*
X200910689Y-92072694D01*
X200913012Y-92077676D01*
X200916168Y-92082183D01*
X200916169Y-92082185D01*
X200952607Y-92134223D01*
X201040523Y-92259781D01*
X201197719Y-92416977D01*
X201202227Y-92420134D01*
X201202230Y-92420136D01*
X201277995Y-92473187D01*
X201379823Y-92544488D01*
X201384805Y-92546811D01*
X201384810Y-92546814D01*
X201551534Y-92624558D01*
X201581304Y-92638440D01*
X201586612Y-92639862D01*
X201586614Y-92639863D01*
X201652449Y-92657503D01*
X201796037Y-92695978D01*
X202017500Y-92715353D01*
X202238963Y-92695978D01*
X202382551Y-92657503D01*
X202448386Y-92639863D01*
X202448388Y-92639862D01*
X202453696Y-92638440D01*
X202483466Y-92624558D01*
X202650190Y-92546814D01*
X202650195Y-92546811D01*
X202655177Y-92544488D01*
X202757005Y-92473187D01*
X202832770Y-92420136D01*
X202832773Y-92420134D01*
X202837281Y-92416977D01*
X202994477Y-92259781D01*
X203082394Y-92134223D01*
X203118831Y-92082185D01*
X203118832Y-92082183D01*
X203121988Y-92077676D01*
X203124311Y-92072694D01*
X203124314Y-92072689D01*
X203173305Y-91967627D01*
X203220223Y-91914342D01*
X203288500Y-91894881D01*
X203356460Y-91915423D01*
X203401695Y-91967627D01*
X203450686Y-92072689D01*
X203450689Y-92072694D01*
X203453012Y-92077676D01*
X203456168Y-92082183D01*
X203456169Y-92082185D01*
X203492607Y-92134223D01*
X203580523Y-92259781D01*
X203737719Y-92416977D01*
X203742227Y-92420134D01*
X203742230Y-92420136D01*
X203817995Y-92473187D01*
X203919823Y-92544488D01*
X203924805Y-92546811D01*
X203924810Y-92546814D01*
X204091534Y-92624558D01*
X204121304Y-92638440D01*
X204126612Y-92639862D01*
X204126614Y-92639863D01*
X204192449Y-92657503D01*
X204336037Y-92695978D01*
X204557500Y-92715353D01*
X204778963Y-92695978D01*
X204922551Y-92657503D01*
X204988386Y-92639863D01*
X204988388Y-92639862D01*
X204993696Y-92638440D01*
X205023466Y-92624558D01*
X205190190Y-92546814D01*
X205190195Y-92546811D01*
X205195177Y-92544488D01*
X205297005Y-92473187D01*
X205372770Y-92420136D01*
X205372773Y-92420134D01*
X205377281Y-92416977D01*
X205534477Y-92259781D01*
X205622394Y-92134223D01*
X205658831Y-92082185D01*
X205658832Y-92082183D01*
X205661988Y-92077676D01*
X205664311Y-92072694D01*
X205664314Y-92072689D01*
X205713305Y-91967627D01*
X205760223Y-91914342D01*
X205828500Y-91894881D01*
X205896460Y-91915423D01*
X205941695Y-91967627D01*
X205990686Y-92072689D01*
X205990689Y-92072694D01*
X205993012Y-92077676D01*
X205996168Y-92082183D01*
X205996169Y-92082185D01*
X206032607Y-92134223D01*
X206120523Y-92259781D01*
X206277719Y-92416977D01*
X206282227Y-92420134D01*
X206282230Y-92420136D01*
X206357995Y-92473187D01*
X206459823Y-92544488D01*
X206464805Y-92546811D01*
X206464810Y-92546814D01*
X206631534Y-92624558D01*
X206661304Y-92638440D01*
X206666612Y-92639862D01*
X206666614Y-92639863D01*
X206732449Y-92657503D01*
X206876037Y-92695978D01*
X207097500Y-92715353D01*
X207318963Y-92695978D01*
X207462551Y-92657503D01*
X207528386Y-92639863D01*
X207528388Y-92639862D01*
X207533696Y-92638440D01*
X207563466Y-92624558D01*
X207730190Y-92546814D01*
X207730195Y-92546811D01*
X207735177Y-92544488D01*
X207837005Y-92473187D01*
X207912770Y-92420136D01*
X207912773Y-92420134D01*
X207917281Y-92416977D01*
X208074477Y-92259781D01*
X208162394Y-92134223D01*
X208198831Y-92082185D01*
X208198832Y-92082183D01*
X208201988Y-92077676D01*
X208204311Y-92072694D01*
X208204314Y-92072689D01*
X208293617Y-91881178D01*
X208293618Y-91881177D01*
X208295940Y-91876196D01*
X208303146Y-91849305D01*
X208352054Y-91666776D01*
X208353478Y-91661463D01*
X208372853Y-91440000D01*
X208353478Y-91218537D01*
X208295940Y-91003804D01*
X208227834Y-90857750D01*
X208217173Y-90787558D01*
X208246153Y-90722746D01*
X208305573Y-90683889D01*
X208342029Y-90678500D01*
X209678000Y-90678500D01*
X209746121Y-90698502D01*
X209792614Y-90752158D01*
X209804000Y-90804500D01*
X209804000Y-94742000D01*
X219365500Y-94742000D01*
X219433621Y-94762002D01*
X219480114Y-94815658D01*
X219491500Y-94868000D01*
X219491500Y-119365500D01*
X219471498Y-119433621D01*
X219417842Y-119480114D01*
X219365500Y-119491500D01*
X160634500Y-119491500D01*
X160566379Y-119471498D01*
X160519886Y-119417842D01*
X160508500Y-119365500D01*
X160508500Y-118023947D01*
X160528502Y-117955826D01*
X160582158Y-117909333D01*
X160652432Y-117899229D01*
X160706771Y-117920734D01*
X160735565Y-117940896D01*
X160745061Y-117946379D01*
X160936493Y-118035645D01*
X160946785Y-118039391D01*
X161150809Y-118094059D01*
X161161604Y-118095962D01*
X161372025Y-118114372D01*
X161382975Y-118114372D01*
X161593396Y-118095962D01*
X161604191Y-118094059D01*
X161808215Y-118039391D01*
X161818507Y-118035645D01*
X162009945Y-117946376D01*
X162019431Y-117940898D01*
X162063264Y-117910207D01*
X162071639Y-117899729D01*
X162064571Y-117886281D01*
X161107385Y-116929095D01*
X161073359Y-116866783D01*
X161075194Y-116841132D01*
X161741908Y-116841132D01*
X161742039Y-116842965D01*
X161746290Y-116849580D01*
X162424503Y-117527793D01*
X162436277Y-117534223D01*
X162448293Y-117524926D01*
X162478397Y-117481932D01*
X162483877Y-117472441D01*
X162533029Y-117367035D01*
X162579947Y-117313750D01*
X162648224Y-117294289D01*
X162716184Y-117314831D01*
X162761419Y-117367035D01*
X162810686Y-117472689D01*
X162810689Y-117472694D01*
X162813012Y-117477676D01*
X162816168Y-117482183D01*
X162816169Y-117482185D01*
X162852607Y-117534223D01*
X162940523Y-117659781D01*
X163097719Y-117816977D01*
X163102227Y-117820134D01*
X163102230Y-117820136D01*
X163177995Y-117873187D01*
X163279823Y-117944488D01*
X163284805Y-117946811D01*
X163284810Y-117946814D01*
X163475310Y-118035645D01*
X163481304Y-118038440D01*
X163486612Y-118039862D01*
X163486614Y-118039863D01*
X163552449Y-118057503D01*
X163696037Y-118095978D01*
X163917500Y-118115353D01*
X164138963Y-118095978D01*
X164282551Y-118057503D01*
X164348386Y-118039863D01*
X164348388Y-118039862D01*
X164353696Y-118038440D01*
X164359690Y-118035645D01*
X164550190Y-117946814D01*
X164550195Y-117946811D01*
X164555177Y-117944488D01*
X164657005Y-117873187D01*
X164732770Y-117820136D01*
X164732773Y-117820134D01*
X164737281Y-117816977D01*
X164894477Y-117659781D01*
X164982394Y-117534223D01*
X165018831Y-117482185D01*
X165018832Y-117482183D01*
X165021988Y-117477676D01*
X165024311Y-117472694D01*
X165024314Y-117472689D01*
X165073305Y-117367627D01*
X165120223Y-117314342D01*
X165188500Y-117294881D01*
X165256460Y-117315423D01*
X165301695Y-117367627D01*
X165350686Y-117472689D01*
X165350689Y-117472694D01*
X165353012Y-117477676D01*
X165356168Y-117482183D01*
X165356169Y-117482185D01*
X165392607Y-117534223D01*
X165480523Y-117659781D01*
X165637719Y-117816977D01*
X165642227Y-117820134D01*
X165642230Y-117820136D01*
X165717995Y-117873187D01*
X165819823Y-117944488D01*
X165824805Y-117946811D01*
X165824810Y-117946814D01*
X166015310Y-118035645D01*
X166021304Y-118038440D01*
X166026612Y-118039862D01*
X166026614Y-118039863D01*
X166092449Y-118057503D01*
X166236037Y-118095978D01*
X166457500Y-118115353D01*
X166678963Y-118095978D01*
X166822551Y-118057503D01*
X166888386Y-118039863D01*
X166888388Y-118039862D01*
X166893696Y-118038440D01*
X166899690Y-118035645D01*
X167090190Y-117946814D01*
X167090195Y-117946811D01*
X167095177Y-117944488D01*
X167197005Y-117873187D01*
X167272770Y-117820136D01*
X167272773Y-117820134D01*
X167277281Y-117816977D01*
X167434477Y-117659781D01*
X167522394Y-117534223D01*
X167558831Y-117482185D01*
X167558832Y-117482183D01*
X167561988Y-117477676D01*
X167564311Y-117472694D01*
X167564314Y-117472689D01*
X167613305Y-117367627D01*
X167660223Y-117314342D01*
X167728500Y-117294881D01*
X167796460Y-117315423D01*
X167841695Y-117367627D01*
X167890686Y-117472689D01*
X167890689Y-117472694D01*
X167893012Y-117477676D01*
X167896168Y-117482183D01*
X167896169Y-117482185D01*
X167932607Y-117534223D01*
X168020523Y-117659781D01*
X168177719Y-117816977D01*
X168182227Y-117820134D01*
X168182230Y-117820136D01*
X168257995Y-117873187D01*
X168359823Y-117944488D01*
X168364805Y-117946811D01*
X168364810Y-117946814D01*
X168555310Y-118035645D01*
X168561304Y-118038440D01*
X168566612Y-118039862D01*
X168566614Y-118039863D01*
X168632449Y-118057503D01*
X168776037Y-118095978D01*
X168997500Y-118115353D01*
X169218963Y-118095978D01*
X169362551Y-118057503D01*
X169428386Y-118039863D01*
X169428388Y-118039862D01*
X169433696Y-118038440D01*
X169439690Y-118035645D01*
X169630190Y-117946814D01*
X169630195Y-117946811D01*
X169635177Y-117944488D01*
X169737005Y-117873187D01*
X169812770Y-117820136D01*
X169812773Y-117820134D01*
X169817281Y-117816977D01*
X169974477Y-117659781D01*
X170062394Y-117534223D01*
X170098831Y-117482185D01*
X170098832Y-117482183D01*
X170101988Y-117477676D01*
X170104311Y-117472694D01*
X170104314Y-117472689D01*
X170153305Y-117367627D01*
X170200223Y-117314342D01*
X170268500Y-117294881D01*
X170336460Y-117315423D01*
X170381695Y-117367627D01*
X170430686Y-117472689D01*
X170430689Y-117472694D01*
X170433012Y-117477676D01*
X170436168Y-117482183D01*
X170436169Y-117482185D01*
X170472607Y-117534223D01*
X170560523Y-117659781D01*
X170717719Y-117816977D01*
X170722227Y-117820134D01*
X170722230Y-117820136D01*
X170797995Y-117873187D01*
X170899823Y-117944488D01*
X170904805Y-117946811D01*
X170904810Y-117946814D01*
X171095310Y-118035645D01*
X171101304Y-118038440D01*
X171106612Y-118039862D01*
X171106614Y-118039863D01*
X171172449Y-118057503D01*
X171316037Y-118095978D01*
X171537500Y-118115353D01*
X171758963Y-118095978D01*
X171902551Y-118057503D01*
X171968386Y-118039863D01*
X171968388Y-118039862D01*
X171973696Y-118038440D01*
X171979690Y-118035645D01*
X172170190Y-117946814D01*
X172170195Y-117946811D01*
X172175177Y-117944488D01*
X172277005Y-117873187D01*
X172352770Y-117820136D01*
X172352773Y-117820134D01*
X172357281Y-117816977D01*
X172514477Y-117659781D01*
X172602394Y-117534223D01*
X172638831Y-117482185D01*
X172638832Y-117482183D01*
X172641988Y-117477676D01*
X172644311Y-117472694D01*
X172644314Y-117472689D01*
X172693305Y-117367627D01*
X172740223Y-117314342D01*
X172808500Y-117294881D01*
X172876460Y-117315423D01*
X172921695Y-117367627D01*
X172970686Y-117472689D01*
X172970689Y-117472694D01*
X172973012Y-117477676D01*
X172976168Y-117482183D01*
X172976169Y-117482185D01*
X173012607Y-117534223D01*
X173100523Y-117659781D01*
X173257719Y-117816977D01*
X173262227Y-117820134D01*
X173262230Y-117820136D01*
X173337995Y-117873187D01*
X173439823Y-117944488D01*
X173444805Y-117946811D01*
X173444810Y-117946814D01*
X173635310Y-118035645D01*
X173641304Y-118038440D01*
X173646612Y-118039862D01*
X173646614Y-118039863D01*
X173712449Y-118057503D01*
X173856037Y-118095978D01*
X174077500Y-118115353D01*
X174298963Y-118095978D01*
X174442551Y-118057503D01*
X174508386Y-118039863D01*
X174508388Y-118039862D01*
X174513696Y-118038440D01*
X174519690Y-118035645D01*
X174710190Y-117946814D01*
X174710195Y-117946811D01*
X174715177Y-117944488D01*
X174780459Y-117898777D01*
X175923277Y-117898777D01*
X175932574Y-117910793D01*
X175975569Y-117940898D01*
X175985055Y-117946376D01*
X176176493Y-118035645D01*
X176186785Y-118039391D01*
X176390809Y-118094059D01*
X176401604Y-118095962D01*
X176612025Y-118114372D01*
X176622975Y-118114372D01*
X176833396Y-118095962D01*
X176844191Y-118094059D01*
X177048215Y-118039391D01*
X177058507Y-118035645D01*
X177249945Y-117946376D01*
X177259431Y-117940898D01*
X177303264Y-117910207D01*
X177311639Y-117899729D01*
X177304571Y-117886281D01*
X176630312Y-117212022D01*
X176616368Y-117204408D01*
X176614535Y-117204539D01*
X176607920Y-117208790D01*
X175929707Y-117887003D01*
X175923277Y-117898777D01*
X174780459Y-117898777D01*
X174817005Y-117873187D01*
X174892770Y-117820136D01*
X174892773Y-117820134D01*
X174897281Y-117816977D01*
X175054477Y-117659781D01*
X175142394Y-117534223D01*
X175178831Y-117482185D01*
X175178832Y-117482183D01*
X175181988Y-117477676D01*
X175184311Y-117472694D01*
X175184314Y-117472689D01*
X175233581Y-117367035D01*
X175280499Y-117313750D01*
X175348776Y-117294289D01*
X175416736Y-117314831D01*
X175461971Y-117367035D01*
X175511123Y-117472441D01*
X175516603Y-117481932D01*
X175547294Y-117525765D01*
X175557771Y-117534140D01*
X175571218Y-117527072D01*
X176245478Y-116852812D01*
X176253092Y-116838868D01*
X176252961Y-116837035D01*
X176248710Y-116830420D01*
X175570497Y-116152207D01*
X175558723Y-116145777D01*
X175546707Y-116155074D01*
X175516603Y-116198068D01*
X175511123Y-116207559D01*
X175461971Y-116312965D01*
X175415053Y-116366250D01*
X175346776Y-116385711D01*
X175278816Y-116365169D01*
X175233581Y-116312965D01*
X175184314Y-116207311D01*
X175184311Y-116207306D01*
X175181988Y-116202324D01*
X175178831Y-116197815D01*
X175057636Y-116024730D01*
X175057634Y-116024727D01*
X175054477Y-116020219D01*
X174897281Y-115863023D01*
X174892773Y-115859866D01*
X174892770Y-115859864D01*
X174804009Y-115797713D01*
X174759681Y-115742256D01*
X174752372Y-115671636D01*
X174784403Y-115608276D01*
X174845604Y-115572291D01*
X174876280Y-115568500D01*
X175830614Y-115568500D01*
X175898735Y-115588502D01*
X175945228Y-115642158D01*
X175955332Y-115712432D01*
X175929034Y-115773173D01*
X175923360Y-115780271D01*
X175930428Y-115793718D01*
X176604688Y-116467978D01*
X176618632Y-116475592D01*
X176620465Y-116475461D01*
X176627080Y-116471210D01*
X177305293Y-115792997D01*
X177311723Y-115781222D01*
X177304279Y-115771600D01*
X177278416Y-115705482D01*
X177292404Y-115635877D01*
X177341803Y-115584885D01*
X177403936Y-115568500D01*
X178358721Y-115568500D01*
X178426842Y-115588502D01*
X178473335Y-115642158D01*
X178483439Y-115712432D01*
X178453945Y-115777012D01*
X178430991Y-115797713D01*
X178342235Y-115859860D01*
X178342229Y-115859865D01*
X178337719Y-115863023D01*
X178180523Y-116020219D01*
X178177366Y-116024727D01*
X178177364Y-116024730D01*
X178056169Y-116197815D01*
X178053012Y-116202324D01*
X178050689Y-116207306D01*
X178050686Y-116207311D01*
X178001419Y-116312965D01*
X177954501Y-116366250D01*
X177886224Y-116385711D01*
X177818264Y-116365169D01*
X177773029Y-116312965D01*
X177723877Y-116207559D01*
X177718397Y-116198068D01*
X177687706Y-116154235D01*
X177677229Y-116145860D01*
X177663782Y-116152928D01*
X176989522Y-116827188D01*
X176981908Y-116841132D01*
X176982039Y-116842965D01*
X176986290Y-116849580D01*
X177664503Y-117527793D01*
X177676277Y-117534223D01*
X177688293Y-117524926D01*
X177718397Y-117481932D01*
X177723877Y-117472441D01*
X177773029Y-117367035D01*
X177819947Y-117313750D01*
X177888224Y-117294289D01*
X177956184Y-117314831D01*
X178001419Y-117367035D01*
X178050686Y-117472689D01*
X178050689Y-117472694D01*
X178053012Y-117477676D01*
X178056168Y-117482183D01*
X178056169Y-117482185D01*
X178092607Y-117534223D01*
X178180523Y-117659781D01*
X178337719Y-117816977D01*
X178342227Y-117820134D01*
X178342230Y-117820136D01*
X178417995Y-117873187D01*
X178519823Y-117944488D01*
X178524805Y-117946811D01*
X178524810Y-117946814D01*
X178715310Y-118035645D01*
X178721304Y-118038440D01*
X178726612Y-118039862D01*
X178726614Y-118039863D01*
X178792449Y-118057503D01*
X178936037Y-118095978D01*
X179157500Y-118115353D01*
X179378963Y-118095978D01*
X179522551Y-118057503D01*
X179588386Y-118039863D01*
X179588388Y-118039862D01*
X179593696Y-118038440D01*
X179599690Y-118035645D01*
X179790190Y-117946814D01*
X179790195Y-117946811D01*
X179795177Y-117944488D01*
X179897005Y-117873187D01*
X179972770Y-117820136D01*
X179972773Y-117820134D01*
X179977281Y-117816977D01*
X180134477Y-117659781D01*
X180222394Y-117534223D01*
X180258831Y-117482185D01*
X180258832Y-117482183D01*
X180261988Y-117477676D01*
X180264311Y-117472694D01*
X180264314Y-117472689D01*
X180313305Y-117367627D01*
X180360223Y-117314342D01*
X180428500Y-117294881D01*
X180496460Y-117315423D01*
X180541695Y-117367627D01*
X180590686Y-117472689D01*
X180590689Y-117472694D01*
X180593012Y-117477676D01*
X180596168Y-117482183D01*
X180596169Y-117482185D01*
X180632607Y-117534223D01*
X180720523Y-117659781D01*
X180877719Y-117816977D01*
X180882227Y-117820134D01*
X180882230Y-117820136D01*
X180957995Y-117873187D01*
X181059823Y-117944488D01*
X181064805Y-117946811D01*
X181064810Y-117946814D01*
X181255310Y-118035645D01*
X181261304Y-118038440D01*
X181266612Y-118039862D01*
X181266614Y-118039863D01*
X181332449Y-118057503D01*
X181476037Y-118095978D01*
X181697500Y-118115353D01*
X181918963Y-118095978D01*
X182062551Y-118057503D01*
X182128386Y-118039863D01*
X182128388Y-118039862D01*
X182133696Y-118038440D01*
X182139690Y-118035645D01*
X182330190Y-117946814D01*
X182330195Y-117946811D01*
X182335177Y-117944488D01*
X182437005Y-117873187D01*
X182512770Y-117820136D01*
X182512773Y-117820134D01*
X182517281Y-117816977D01*
X182674477Y-117659781D01*
X182762394Y-117534223D01*
X182798831Y-117482185D01*
X182798832Y-117482183D01*
X182801988Y-117477676D01*
X182804311Y-117472694D01*
X182804314Y-117472689D01*
X182853305Y-117367627D01*
X182900223Y-117314342D01*
X182968500Y-117294881D01*
X183036460Y-117315423D01*
X183081695Y-117367627D01*
X183130686Y-117472689D01*
X183130689Y-117472694D01*
X183133012Y-117477676D01*
X183136168Y-117482183D01*
X183136169Y-117482185D01*
X183172607Y-117534223D01*
X183260523Y-117659781D01*
X183417719Y-117816977D01*
X183422227Y-117820134D01*
X183422230Y-117820136D01*
X183497995Y-117873187D01*
X183599823Y-117944488D01*
X183604805Y-117946811D01*
X183604810Y-117946814D01*
X183795310Y-118035645D01*
X183801304Y-118038440D01*
X183806612Y-118039862D01*
X183806614Y-118039863D01*
X183872449Y-118057503D01*
X184016037Y-118095978D01*
X184237500Y-118115353D01*
X184458963Y-118095978D01*
X184602551Y-118057503D01*
X184668386Y-118039863D01*
X184668388Y-118039862D01*
X184673696Y-118038440D01*
X184679690Y-118035645D01*
X184870190Y-117946814D01*
X184870195Y-117946811D01*
X184875177Y-117944488D01*
X184977005Y-117873187D01*
X185052770Y-117820136D01*
X185052773Y-117820134D01*
X185057281Y-117816977D01*
X185214477Y-117659781D01*
X185302394Y-117534223D01*
X185338831Y-117482185D01*
X185338832Y-117482183D01*
X185341988Y-117477676D01*
X185344311Y-117472694D01*
X185344314Y-117472689D01*
X185393305Y-117367627D01*
X185440223Y-117314342D01*
X185508500Y-117294881D01*
X185576460Y-117315423D01*
X185621695Y-117367627D01*
X185670686Y-117472689D01*
X185670689Y-117472694D01*
X185673012Y-117477676D01*
X185676168Y-117482183D01*
X185676169Y-117482185D01*
X185712607Y-117534223D01*
X185800523Y-117659781D01*
X185957719Y-117816977D01*
X185962227Y-117820134D01*
X185962230Y-117820136D01*
X186037995Y-117873187D01*
X186139823Y-117944488D01*
X186144805Y-117946811D01*
X186144810Y-117946814D01*
X186335310Y-118035645D01*
X186341304Y-118038440D01*
X186346612Y-118039862D01*
X186346614Y-118039863D01*
X186412449Y-118057503D01*
X186556037Y-118095978D01*
X186777500Y-118115353D01*
X186998963Y-118095978D01*
X187142551Y-118057503D01*
X187208386Y-118039863D01*
X187208388Y-118039862D01*
X187213696Y-118038440D01*
X187219690Y-118035645D01*
X187410190Y-117946814D01*
X187410195Y-117946811D01*
X187415177Y-117944488D01*
X187517005Y-117873187D01*
X187592770Y-117820136D01*
X187592773Y-117820134D01*
X187597281Y-117816977D01*
X187754477Y-117659781D01*
X187842394Y-117534223D01*
X187878831Y-117482185D01*
X187878832Y-117482183D01*
X187881988Y-117477676D01*
X187884311Y-117472694D01*
X187884314Y-117472689D01*
X187933305Y-117367627D01*
X187980223Y-117314342D01*
X188048500Y-117294881D01*
X188116460Y-117315423D01*
X188161695Y-117367627D01*
X188210686Y-117472689D01*
X188210689Y-117472694D01*
X188213012Y-117477676D01*
X188216168Y-117482183D01*
X188216169Y-117482185D01*
X188252607Y-117534223D01*
X188340523Y-117659781D01*
X188497719Y-117816977D01*
X188502227Y-117820134D01*
X188502230Y-117820136D01*
X188577995Y-117873187D01*
X188679823Y-117944488D01*
X188684805Y-117946811D01*
X188684810Y-117946814D01*
X188875310Y-118035645D01*
X188881304Y-118038440D01*
X188886612Y-118039862D01*
X188886614Y-118039863D01*
X188952449Y-118057503D01*
X189096037Y-118095978D01*
X189317500Y-118115353D01*
X189538963Y-118095978D01*
X189682551Y-118057503D01*
X189748386Y-118039863D01*
X189748388Y-118039862D01*
X189753696Y-118038440D01*
X189759690Y-118035645D01*
X189950190Y-117946814D01*
X189950195Y-117946811D01*
X189955177Y-117944488D01*
X190057005Y-117873187D01*
X190132770Y-117820136D01*
X190132773Y-117820134D01*
X190137281Y-117816977D01*
X190294477Y-117659781D01*
X190382394Y-117534223D01*
X190418831Y-117482185D01*
X190418832Y-117482183D01*
X190421988Y-117477676D01*
X190424311Y-117472694D01*
X190424314Y-117472689D01*
X190473305Y-117367627D01*
X190520223Y-117314342D01*
X190588500Y-117294881D01*
X190656460Y-117315423D01*
X190701695Y-117367627D01*
X190750686Y-117472689D01*
X190750689Y-117472694D01*
X190753012Y-117477676D01*
X190756168Y-117482183D01*
X190756169Y-117482185D01*
X190792607Y-117534223D01*
X190880523Y-117659781D01*
X191037719Y-117816977D01*
X191042227Y-117820134D01*
X191042230Y-117820136D01*
X191117995Y-117873187D01*
X191219823Y-117944488D01*
X191224805Y-117946811D01*
X191224810Y-117946814D01*
X191415310Y-118035645D01*
X191421304Y-118038440D01*
X191426612Y-118039862D01*
X191426614Y-118039863D01*
X191492449Y-118057503D01*
X191636037Y-118095978D01*
X191857500Y-118115353D01*
X192078963Y-118095978D01*
X192222551Y-118057503D01*
X192288386Y-118039863D01*
X192288388Y-118039862D01*
X192293696Y-118038440D01*
X192299690Y-118035645D01*
X192490190Y-117946814D01*
X192490195Y-117946811D01*
X192495177Y-117944488D01*
X192597005Y-117873187D01*
X192672770Y-117820136D01*
X192672773Y-117820134D01*
X192677281Y-117816977D01*
X192834477Y-117659781D01*
X192922394Y-117534223D01*
X192958831Y-117482185D01*
X192958832Y-117482183D01*
X192961988Y-117477676D01*
X192964311Y-117472694D01*
X192964314Y-117472689D01*
X193013305Y-117367627D01*
X193060223Y-117314342D01*
X193128500Y-117294881D01*
X193196460Y-117315423D01*
X193241695Y-117367627D01*
X193290686Y-117472689D01*
X193290689Y-117472694D01*
X193293012Y-117477676D01*
X193296168Y-117482183D01*
X193296169Y-117482185D01*
X193332607Y-117534223D01*
X193420523Y-117659781D01*
X193577719Y-117816977D01*
X193582227Y-117820134D01*
X193582230Y-117820136D01*
X193657995Y-117873187D01*
X193759823Y-117944488D01*
X193764805Y-117946811D01*
X193764810Y-117946814D01*
X193955310Y-118035645D01*
X193961304Y-118038440D01*
X193966612Y-118039862D01*
X193966614Y-118039863D01*
X194032449Y-118057503D01*
X194176037Y-118095978D01*
X194397500Y-118115353D01*
X194618963Y-118095978D01*
X194762551Y-118057503D01*
X194828386Y-118039863D01*
X194828388Y-118039862D01*
X194833696Y-118038440D01*
X194839690Y-118035645D01*
X195030190Y-117946814D01*
X195030195Y-117946811D01*
X195035177Y-117944488D01*
X195137005Y-117873187D01*
X195212770Y-117820136D01*
X195212773Y-117820134D01*
X195217281Y-117816977D01*
X195374477Y-117659781D01*
X195462394Y-117534223D01*
X195498831Y-117482185D01*
X195498832Y-117482183D01*
X195501988Y-117477676D01*
X195504311Y-117472694D01*
X195504314Y-117472689D01*
X195553305Y-117367627D01*
X195600223Y-117314342D01*
X195668500Y-117294881D01*
X195736460Y-117315423D01*
X195781695Y-117367627D01*
X195830686Y-117472689D01*
X195830689Y-117472694D01*
X195833012Y-117477676D01*
X195836168Y-117482183D01*
X195836169Y-117482185D01*
X195872607Y-117534223D01*
X195960523Y-117659781D01*
X196117719Y-117816977D01*
X196122227Y-117820134D01*
X196122230Y-117820136D01*
X196197995Y-117873187D01*
X196299823Y-117944488D01*
X196304805Y-117946811D01*
X196304810Y-117946814D01*
X196495310Y-118035645D01*
X196501304Y-118038440D01*
X196506612Y-118039862D01*
X196506614Y-118039863D01*
X196572449Y-118057503D01*
X196716037Y-118095978D01*
X196937500Y-118115353D01*
X197158963Y-118095978D01*
X197302551Y-118057503D01*
X197368386Y-118039863D01*
X197368388Y-118039862D01*
X197373696Y-118038440D01*
X197379690Y-118035645D01*
X197570190Y-117946814D01*
X197570195Y-117946811D01*
X197575177Y-117944488D01*
X197677005Y-117873187D01*
X197752770Y-117820136D01*
X197752773Y-117820134D01*
X197757281Y-117816977D01*
X197914477Y-117659781D01*
X198002394Y-117534223D01*
X198038831Y-117482185D01*
X198038832Y-117482183D01*
X198041988Y-117477676D01*
X198044311Y-117472694D01*
X198044314Y-117472689D01*
X198093305Y-117367627D01*
X198140223Y-117314342D01*
X198208500Y-117294881D01*
X198276460Y-117315423D01*
X198321695Y-117367627D01*
X198370686Y-117472689D01*
X198370689Y-117472694D01*
X198373012Y-117477676D01*
X198376168Y-117482183D01*
X198376169Y-117482185D01*
X198412607Y-117534223D01*
X198500523Y-117659781D01*
X198657719Y-117816977D01*
X198662227Y-117820134D01*
X198662230Y-117820136D01*
X198737995Y-117873187D01*
X198839823Y-117944488D01*
X198844805Y-117946811D01*
X198844810Y-117946814D01*
X199035310Y-118035645D01*
X199041304Y-118038440D01*
X199046612Y-118039862D01*
X199046614Y-118039863D01*
X199112449Y-118057503D01*
X199256037Y-118095978D01*
X199477500Y-118115353D01*
X199698963Y-118095978D01*
X199842551Y-118057503D01*
X199908386Y-118039863D01*
X199908388Y-118039862D01*
X199913696Y-118038440D01*
X199919690Y-118035645D01*
X200110190Y-117946814D01*
X200110195Y-117946811D01*
X200115177Y-117944488D01*
X200217005Y-117873187D01*
X200292770Y-117820136D01*
X200292773Y-117820134D01*
X200297281Y-117816977D01*
X200454477Y-117659781D01*
X200542394Y-117534223D01*
X200578831Y-117482185D01*
X200578832Y-117482183D01*
X200581988Y-117477676D01*
X200584311Y-117472694D01*
X200584314Y-117472689D01*
X200633305Y-117367627D01*
X200680223Y-117314342D01*
X200748500Y-117294881D01*
X200816460Y-117315423D01*
X200861695Y-117367627D01*
X200910686Y-117472689D01*
X200910689Y-117472694D01*
X200913012Y-117477676D01*
X200916168Y-117482183D01*
X200916169Y-117482185D01*
X200952607Y-117534223D01*
X201040523Y-117659781D01*
X201197719Y-117816977D01*
X201202227Y-117820134D01*
X201202230Y-117820136D01*
X201277995Y-117873187D01*
X201379823Y-117944488D01*
X201384805Y-117946811D01*
X201384810Y-117946814D01*
X201575310Y-118035645D01*
X201581304Y-118038440D01*
X201586612Y-118039862D01*
X201586614Y-118039863D01*
X201652449Y-118057503D01*
X201796037Y-118095978D01*
X202017500Y-118115353D01*
X202238963Y-118095978D01*
X202382551Y-118057503D01*
X202448386Y-118039863D01*
X202448388Y-118039862D01*
X202453696Y-118038440D01*
X202459690Y-118035645D01*
X202650190Y-117946814D01*
X202650195Y-117946811D01*
X202655177Y-117944488D01*
X202757005Y-117873187D01*
X202832770Y-117820136D01*
X202832773Y-117820134D01*
X202837281Y-117816977D01*
X202994477Y-117659781D01*
X203082394Y-117534223D01*
X203118831Y-117482185D01*
X203118832Y-117482183D01*
X203121988Y-117477676D01*
X203124311Y-117472694D01*
X203124314Y-117472689D01*
X203173305Y-117367627D01*
X203220223Y-117314342D01*
X203288500Y-117294881D01*
X203356460Y-117315423D01*
X203401695Y-117367627D01*
X203450686Y-117472689D01*
X203450689Y-117472694D01*
X203453012Y-117477676D01*
X203456168Y-117482183D01*
X203456169Y-117482185D01*
X203492607Y-117534223D01*
X203580523Y-117659781D01*
X203737719Y-117816977D01*
X203742227Y-117820134D01*
X203742230Y-117820136D01*
X203817995Y-117873187D01*
X203919823Y-117944488D01*
X203924805Y-117946811D01*
X203924810Y-117946814D01*
X204115310Y-118035645D01*
X204121304Y-118038440D01*
X204126612Y-118039862D01*
X204126614Y-118039863D01*
X204192449Y-118057503D01*
X204336037Y-118095978D01*
X204557500Y-118115353D01*
X204778963Y-118095978D01*
X204922551Y-118057503D01*
X204988386Y-118039863D01*
X204988388Y-118039862D01*
X204993696Y-118038440D01*
X204999690Y-118035645D01*
X205190190Y-117946814D01*
X205190195Y-117946811D01*
X205195177Y-117944488D01*
X205297005Y-117873187D01*
X205372770Y-117820136D01*
X205372773Y-117820134D01*
X205377281Y-117816977D01*
X205534477Y-117659781D01*
X205622394Y-117534223D01*
X205658831Y-117482185D01*
X205658832Y-117482183D01*
X205661988Y-117477676D01*
X205664311Y-117472694D01*
X205664314Y-117472689D01*
X205713305Y-117367627D01*
X205760223Y-117314342D01*
X205828500Y-117294881D01*
X205896460Y-117315423D01*
X205941695Y-117367627D01*
X205990686Y-117472689D01*
X205990689Y-117472694D01*
X205993012Y-117477676D01*
X205996168Y-117482183D01*
X205996169Y-117482185D01*
X206032607Y-117534223D01*
X206120523Y-117659781D01*
X206277719Y-117816977D01*
X206282227Y-117820134D01*
X206282230Y-117820136D01*
X206357995Y-117873187D01*
X206459823Y-117944488D01*
X206464805Y-117946811D01*
X206464810Y-117946814D01*
X206655310Y-118035645D01*
X206661304Y-118038440D01*
X206666612Y-118039862D01*
X206666614Y-118039863D01*
X206732449Y-118057503D01*
X206876037Y-118095978D01*
X207097500Y-118115353D01*
X207318963Y-118095978D01*
X207462551Y-118057503D01*
X207528386Y-118039863D01*
X207528388Y-118039862D01*
X207533696Y-118038440D01*
X207539690Y-118035645D01*
X207730190Y-117946814D01*
X207730195Y-117946811D01*
X207735177Y-117944488D01*
X207837005Y-117873187D01*
X207912770Y-117820136D01*
X207912773Y-117820134D01*
X207917281Y-117816977D01*
X208074477Y-117659781D01*
X208162394Y-117534223D01*
X208198831Y-117482185D01*
X208198832Y-117482183D01*
X208201988Y-117477676D01*
X208204311Y-117472694D01*
X208204314Y-117472689D01*
X208293617Y-117281178D01*
X208293618Y-117281177D01*
X208295940Y-117276196D01*
X208353478Y-117061463D01*
X208372853Y-116840000D01*
X208353478Y-116618537D01*
X208295940Y-116403804D01*
X208253305Y-116312373D01*
X208204314Y-116207311D01*
X208204311Y-116207306D01*
X208201988Y-116202324D01*
X208198831Y-116197815D01*
X208077636Y-116024730D01*
X208077634Y-116024727D01*
X208074477Y-116020219D01*
X207917281Y-115863023D01*
X207912773Y-115859866D01*
X207912770Y-115859864D01*
X207824009Y-115797713D01*
X207735177Y-115735512D01*
X207730195Y-115733189D01*
X207730190Y-115733186D01*
X207538678Y-115643883D01*
X207538677Y-115643882D01*
X207533696Y-115641560D01*
X207528388Y-115640138D01*
X207528386Y-115640137D01*
X207407479Y-115607740D01*
X207318963Y-115584022D01*
X207097500Y-115564647D01*
X206876037Y-115584022D01*
X206787521Y-115607740D01*
X206666614Y-115640137D01*
X206666612Y-115640138D01*
X206661304Y-115641560D01*
X206656323Y-115643882D01*
X206656322Y-115643883D01*
X206464811Y-115733186D01*
X206464806Y-115733189D01*
X206459824Y-115735512D01*
X206455317Y-115738668D01*
X206455315Y-115738669D01*
X206282230Y-115859864D01*
X206282227Y-115859866D01*
X206277719Y-115863023D01*
X206120523Y-116020219D01*
X206117366Y-116024727D01*
X206117364Y-116024730D01*
X205996169Y-116197815D01*
X205993012Y-116202324D01*
X205990689Y-116207306D01*
X205990686Y-116207311D01*
X205941695Y-116312373D01*
X205894777Y-116365658D01*
X205826500Y-116385119D01*
X205758540Y-116364577D01*
X205713305Y-116312373D01*
X205664314Y-116207311D01*
X205664311Y-116207306D01*
X205661988Y-116202324D01*
X205658831Y-116197815D01*
X205537636Y-116024730D01*
X205537634Y-116024727D01*
X205534477Y-116020219D01*
X205377281Y-115863023D01*
X205372773Y-115859866D01*
X205372770Y-115859864D01*
X205284009Y-115797713D01*
X205195177Y-115735512D01*
X205190195Y-115733189D01*
X205190190Y-115733186D01*
X204998678Y-115643883D01*
X204998677Y-115643882D01*
X204993696Y-115641560D01*
X204988388Y-115640138D01*
X204988386Y-115640137D01*
X204867479Y-115607740D01*
X204778963Y-115584022D01*
X204557500Y-115564647D01*
X204336037Y-115584022D01*
X204247521Y-115607740D01*
X204126614Y-115640137D01*
X204126612Y-115640138D01*
X204121304Y-115641560D01*
X204116323Y-115643882D01*
X204116322Y-115643883D01*
X203924811Y-115733186D01*
X203924806Y-115733189D01*
X203919824Y-115735512D01*
X203915317Y-115738668D01*
X203915315Y-115738669D01*
X203742230Y-115859864D01*
X203742227Y-115859866D01*
X203737719Y-115863023D01*
X203580523Y-116020219D01*
X203577366Y-116024727D01*
X203577364Y-116024730D01*
X203456169Y-116197815D01*
X203453012Y-116202324D01*
X203450689Y-116207306D01*
X203450686Y-116207311D01*
X203401695Y-116312373D01*
X203354777Y-116365658D01*
X203286500Y-116385119D01*
X203218540Y-116364577D01*
X203173305Y-116312373D01*
X203124314Y-116207311D01*
X203124311Y-116207306D01*
X203121988Y-116202324D01*
X203118831Y-116197815D01*
X202997636Y-116024730D01*
X202997634Y-116024727D01*
X202994477Y-116020219D01*
X202837281Y-115863023D01*
X202832773Y-115859866D01*
X202832770Y-115859864D01*
X202744009Y-115797713D01*
X202655177Y-115735512D01*
X202650195Y-115733189D01*
X202650190Y-115733186D01*
X202458678Y-115643883D01*
X202458677Y-115643882D01*
X202453696Y-115641560D01*
X202448388Y-115640138D01*
X202448386Y-115640137D01*
X202327479Y-115607740D01*
X202238963Y-115584022D01*
X202017500Y-115564647D01*
X201796037Y-115584022D01*
X201707521Y-115607740D01*
X201586614Y-115640137D01*
X201586612Y-115640138D01*
X201581304Y-115641560D01*
X201576323Y-115643882D01*
X201576322Y-115643883D01*
X201384811Y-115733186D01*
X201384806Y-115733189D01*
X201379824Y-115735512D01*
X201375317Y-115738668D01*
X201375315Y-115738669D01*
X201202230Y-115859864D01*
X201202227Y-115859866D01*
X201197719Y-115863023D01*
X201040523Y-116020219D01*
X201037366Y-116024727D01*
X201037364Y-116024730D01*
X200916169Y-116197815D01*
X200913012Y-116202324D01*
X200910689Y-116207306D01*
X200910686Y-116207311D01*
X200861695Y-116312373D01*
X200814777Y-116365658D01*
X200746500Y-116385119D01*
X200678540Y-116364577D01*
X200633305Y-116312373D01*
X200584314Y-116207311D01*
X200584311Y-116207306D01*
X200581988Y-116202324D01*
X200578831Y-116197815D01*
X200457636Y-116024730D01*
X200457634Y-116024727D01*
X200454477Y-116020219D01*
X200297281Y-115863023D01*
X200292773Y-115859866D01*
X200292770Y-115859864D01*
X200204009Y-115797713D01*
X200115177Y-115735512D01*
X200110195Y-115733189D01*
X200110190Y-115733186D01*
X199918678Y-115643883D01*
X199918677Y-115643882D01*
X199913696Y-115641560D01*
X199908388Y-115640138D01*
X199908386Y-115640137D01*
X199787479Y-115607740D01*
X199698963Y-115584022D01*
X199477500Y-115564647D01*
X199256037Y-115584022D01*
X199167521Y-115607740D01*
X199046614Y-115640137D01*
X199046612Y-115640138D01*
X199041304Y-115641560D01*
X199036323Y-115643882D01*
X199036322Y-115643883D01*
X198844811Y-115733186D01*
X198844806Y-115733189D01*
X198839824Y-115735512D01*
X198835317Y-115738668D01*
X198835315Y-115738669D01*
X198662230Y-115859864D01*
X198662227Y-115859866D01*
X198657719Y-115863023D01*
X198500523Y-116020219D01*
X198497366Y-116024727D01*
X198497364Y-116024730D01*
X198376169Y-116197815D01*
X198373012Y-116202324D01*
X198370689Y-116207306D01*
X198370686Y-116207311D01*
X198321695Y-116312373D01*
X198274777Y-116365658D01*
X198206500Y-116385119D01*
X198138540Y-116364577D01*
X198093305Y-116312373D01*
X198044314Y-116207311D01*
X198044311Y-116207306D01*
X198041988Y-116202324D01*
X198038831Y-116197815D01*
X197917636Y-116024730D01*
X197917634Y-116024727D01*
X197914477Y-116020219D01*
X197757281Y-115863023D01*
X197752773Y-115859866D01*
X197752770Y-115859864D01*
X197664009Y-115797713D01*
X197575177Y-115735512D01*
X197570195Y-115733189D01*
X197570190Y-115733186D01*
X197378678Y-115643883D01*
X197378677Y-115643882D01*
X197373696Y-115641560D01*
X197368388Y-115640138D01*
X197368386Y-115640137D01*
X197247479Y-115607740D01*
X197158963Y-115584022D01*
X196937500Y-115564647D01*
X196716037Y-115584022D01*
X196627521Y-115607740D01*
X196506614Y-115640137D01*
X196506612Y-115640138D01*
X196501304Y-115641560D01*
X196496323Y-115643882D01*
X196496322Y-115643883D01*
X196304811Y-115733186D01*
X196304806Y-115733189D01*
X196299824Y-115735512D01*
X196295317Y-115738668D01*
X196295315Y-115738669D01*
X196122230Y-115859864D01*
X196122227Y-115859866D01*
X196117719Y-115863023D01*
X195960523Y-116020219D01*
X195957366Y-116024727D01*
X195957364Y-116024730D01*
X195836169Y-116197815D01*
X195833012Y-116202324D01*
X195830689Y-116207306D01*
X195830686Y-116207311D01*
X195781695Y-116312373D01*
X195734777Y-116365658D01*
X195666500Y-116385119D01*
X195598540Y-116364577D01*
X195553305Y-116312373D01*
X195504314Y-116207311D01*
X195504311Y-116207306D01*
X195501988Y-116202324D01*
X195498831Y-116197815D01*
X195377636Y-116024730D01*
X195377634Y-116024727D01*
X195374477Y-116020219D01*
X195217281Y-115863023D01*
X195212773Y-115859866D01*
X195212770Y-115859864D01*
X195124009Y-115797713D01*
X195035177Y-115735512D01*
X195030195Y-115733189D01*
X195030190Y-115733186D01*
X194838678Y-115643883D01*
X194838677Y-115643882D01*
X194833696Y-115641560D01*
X194828388Y-115640138D01*
X194828386Y-115640137D01*
X194707479Y-115607740D01*
X194618963Y-115584022D01*
X194397500Y-115564647D01*
X194176037Y-115584022D01*
X194087521Y-115607740D01*
X193966614Y-115640137D01*
X193966612Y-115640138D01*
X193961304Y-115641560D01*
X193956323Y-115643882D01*
X193956322Y-115643883D01*
X193764811Y-115733186D01*
X193764806Y-115733189D01*
X193759824Y-115735512D01*
X193755317Y-115738668D01*
X193755315Y-115738669D01*
X193582230Y-115859864D01*
X193582227Y-115859866D01*
X193577719Y-115863023D01*
X193420523Y-116020219D01*
X193417366Y-116024727D01*
X193417364Y-116024730D01*
X193296169Y-116197815D01*
X193293012Y-116202324D01*
X193290689Y-116207306D01*
X193290686Y-116207311D01*
X193241695Y-116312373D01*
X193194777Y-116365658D01*
X193126500Y-116385119D01*
X193058540Y-116364577D01*
X193013305Y-116312373D01*
X192964314Y-116207311D01*
X192964311Y-116207306D01*
X192961988Y-116202324D01*
X192958831Y-116197815D01*
X192837636Y-116024730D01*
X192837634Y-116024727D01*
X192834477Y-116020219D01*
X192677281Y-115863023D01*
X192672773Y-115859866D01*
X192672770Y-115859864D01*
X192584009Y-115797713D01*
X192495177Y-115735512D01*
X192490195Y-115733189D01*
X192490190Y-115733186D01*
X192298678Y-115643883D01*
X192298677Y-115643882D01*
X192293696Y-115641560D01*
X192288388Y-115640138D01*
X192288386Y-115640137D01*
X192167479Y-115607740D01*
X192078963Y-115584022D01*
X191857500Y-115564647D01*
X191636037Y-115584022D01*
X191547521Y-115607740D01*
X191426614Y-115640137D01*
X191426612Y-115640138D01*
X191421304Y-115641560D01*
X191416323Y-115643882D01*
X191416322Y-115643883D01*
X191224811Y-115733186D01*
X191224806Y-115733189D01*
X191219824Y-115735512D01*
X191215317Y-115738668D01*
X191215315Y-115738669D01*
X191042230Y-115859864D01*
X191042227Y-115859866D01*
X191037719Y-115863023D01*
X190880523Y-116020219D01*
X190877366Y-116024727D01*
X190877364Y-116024730D01*
X190756169Y-116197815D01*
X190753012Y-116202324D01*
X190750689Y-116207306D01*
X190750686Y-116207311D01*
X190701695Y-116312373D01*
X190654777Y-116365658D01*
X190586500Y-116385119D01*
X190518540Y-116364577D01*
X190473305Y-116312373D01*
X190424314Y-116207311D01*
X190424311Y-116207306D01*
X190421988Y-116202324D01*
X190418831Y-116197815D01*
X190297636Y-116024730D01*
X190297634Y-116024727D01*
X190294477Y-116020219D01*
X190137281Y-115863023D01*
X190132773Y-115859866D01*
X190132770Y-115859864D01*
X190005418Y-115770691D01*
X189961090Y-115715234D01*
X189951751Y-115671436D01*
X189951062Y-115649513D01*
X189951000Y-115645555D01*
X189951000Y-115617644D01*
X189950495Y-115613644D01*
X189949562Y-115601801D01*
X189948422Y-115565529D01*
X189948173Y-115557610D01*
X189942522Y-115538158D01*
X189938514Y-115518806D01*
X189936967Y-115506563D01*
X189935974Y-115498703D01*
X189925482Y-115472202D01*
X189919700Y-115457597D01*
X189915855Y-115446370D01*
X189908576Y-115421317D01*
X189903518Y-115403907D01*
X189899484Y-115397085D01*
X189899481Y-115397079D01*
X189893206Y-115386468D01*
X189884510Y-115368718D01*
X189879972Y-115357256D01*
X189879969Y-115357251D01*
X189877052Y-115349883D01*
X189851073Y-115314125D01*
X189844557Y-115304207D01*
X189826075Y-115272957D01*
X189822042Y-115266137D01*
X189807718Y-115251813D01*
X189794876Y-115236778D01*
X189782972Y-115220393D01*
X189748906Y-115192211D01*
X189740127Y-115184222D01*
X189455707Y-114899802D01*
X189421681Y-114837490D01*
X189426746Y-114766675D01*
X189469293Y-114709839D01*
X189535813Y-114685028D01*
X189560346Y-114686611D01*
X189560450Y-114685742D01*
X189565593Y-114686355D01*
X189570656Y-114687385D01*
X189701324Y-114692176D01*
X189796949Y-114695683D01*
X189796953Y-114695683D01*
X189802113Y-114695872D01*
X189807233Y-114695216D01*
X189807235Y-114695216D01*
X189881189Y-114685742D01*
X190031847Y-114666442D01*
X190036795Y-114664957D01*
X190036802Y-114664956D01*
X190248747Y-114601369D01*
X190253690Y-114599886D01*
X190258324Y-114597616D01*
X190457049Y-114500262D01*
X190457052Y-114500260D01*
X190461684Y-114497991D01*
X190650243Y-114363494D01*
X190653898Y-114359852D01*
X190653906Y-114359845D01*
X190695697Y-114318199D01*
X190758068Y-114284282D01*
X190828875Y-114289470D01*
X190885637Y-114332116D01*
X190902619Y-114363218D01*
X190924677Y-114422056D01*
X190933214Y-114437649D01*
X191009715Y-114539724D01*
X191022276Y-114552285D01*
X191124351Y-114628786D01*
X191139946Y-114637324D01*
X191260394Y-114682478D01*
X191275649Y-114686105D01*
X191326514Y-114691631D01*
X191333328Y-114692000D01*
X192005885Y-114692000D01*
X192021124Y-114687525D01*
X192022329Y-114686135D01*
X192024000Y-114678452D01*
X192024000Y-114673884D01*
X192532000Y-114673884D01*
X192536475Y-114689123D01*
X192537865Y-114690328D01*
X192545548Y-114691999D01*
X193222669Y-114691999D01*
X193229490Y-114691629D01*
X193280352Y-114686105D01*
X193295604Y-114682479D01*
X193416054Y-114637324D01*
X193431649Y-114628786D01*
X193533724Y-114552285D01*
X193546285Y-114539724D01*
X193622786Y-114437649D01*
X193631324Y-114422054D01*
X193676478Y-114301606D01*
X193680105Y-114286351D01*
X193685631Y-114235486D01*
X193686000Y-114228672D01*
X193686000Y-113556115D01*
X193681525Y-113540876D01*
X193680135Y-113539671D01*
X193672452Y-113538000D01*
X192550115Y-113538000D01*
X192534876Y-113542475D01*
X192533671Y-113543865D01*
X192532000Y-113551548D01*
X192532000Y-114673884D01*
X192024000Y-114673884D01*
X192024000Y-113011885D01*
X192532000Y-113011885D01*
X192536475Y-113027124D01*
X192537865Y-113028329D01*
X192545548Y-113030000D01*
X193667884Y-113030000D01*
X193683123Y-113025525D01*
X193684328Y-113024135D01*
X193685999Y-113016452D01*
X193685999Y-112908134D01*
X195241500Y-112908134D01*
X195248255Y-112970316D01*
X195299385Y-113106705D01*
X195386739Y-113223261D01*
X195503295Y-113310615D01*
X195639684Y-113361745D01*
X195701866Y-113368500D01*
X197998134Y-113368500D01*
X198060316Y-113361745D01*
X198196705Y-113310615D01*
X198313261Y-113223261D01*
X198400615Y-113106705D01*
X198451745Y-112970316D01*
X198458500Y-112908134D01*
X198458500Y-111760000D01*
X199346502Y-111760000D01*
X199366457Y-111988087D01*
X199367881Y-111993400D01*
X199367881Y-111993402D01*
X199419408Y-112185700D01*
X199425716Y-112209243D01*
X199428039Y-112214224D01*
X199428039Y-112214225D01*
X199520151Y-112411762D01*
X199520154Y-112411767D01*
X199522477Y-112416749D01*
X199592768Y-112517134D01*
X199641508Y-112586742D01*
X199653802Y-112604300D01*
X199815700Y-112766198D01*
X199820208Y-112769355D01*
X199820211Y-112769357D01*
X199862500Y-112798968D01*
X200003251Y-112897523D01*
X200008233Y-112899846D01*
X200008238Y-112899849D01*
X200159357Y-112970316D01*
X200210757Y-112994284D01*
X200216065Y-112995706D01*
X200216067Y-112995707D01*
X200426598Y-113052119D01*
X200426600Y-113052119D01*
X200431913Y-113053543D01*
X200660000Y-113073498D01*
X200888087Y-113053543D01*
X200893400Y-113052119D01*
X200893402Y-113052119D01*
X201103933Y-112995707D01*
X201103935Y-112995706D01*
X201109243Y-112994284D01*
X201160643Y-112970316D01*
X201311762Y-112899849D01*
X201311767Y-112899846D01*
X201316749Y-112897523D01*
X201457500Y-112798968D01*
X201499789Y-112769357D01*
X201499792Y-112769355D01*
X201504300Y-112766198D01*
X201666198Y-112604300D01*
X201678493Y-112586742D01*
X201727232Y-112517134D01*
X201797523Y-112416749D01*
X201799846Y-112411767D01*
X201799849Y-112411762D01*
X201891961Y-112214225D01*
X201891961Y-112214224D01*
X201894284Y-112209243D01*
X201900593Y-112185700D01*
X201952119Y-111993402D01*
X201952119Y-111993400D01*
X201953543Y-111988087D01*
X201973498Y-111760000D01*
X209506502Y-111760000D01*
X209526457Y-111988087D01*
X209527881Y-111993400D01*
X209527881Y-111993402D01*
X209579408Y-112185700D01*
X209585716Y-112209243D01*
X209588039Y-112214224D01*
X209588039Y-112214225D01*
X209680151Y-112411762D01*
X209680154Y-112411767D01*
X209682477Y-112416749D01*
X209752768Y-112517134D01*
X209801508Y-112586742D01*
X209813802Y-112604300D01*
X209975700Y-112766198D01*
X209980208Y-112769355D01*
X209980211Y-112769357D01*
X210022500Y-112798968D01*
X210163251Y-112897523D01*
X210168233Y-112899846D01*
X210168238Y-112899849D01*
X210319357Y-112970316D01*
X210370757Y-112994284D01*
X210376065Y-112995706D01*
X210376067Y-112995707D01*
X210586598Y-113052119D01*
X210586600Y-113052119D01*
X210591913Y-113053543D01*
X210820000Y-113073498D01*
X211048087Y-113053543D01*
X211053400Y-113052119D01*
X211053402Y-113052119D01*
X211263933Y-112995707D01*
X211263935Y-112995706D01*
X211269243Y-112994284D01*
X211320643Y-112970316D01*
X211471762Y-112899849D01*
X211471767Y-112899846D01*
X211476749Y-112897523D01*
X211617500Y-112798968D01*
X211659789Y-112769357D01*
X211659792Y-112769355D01*
X211664300Y-112766198D01*
X211826198Y-112604300D01*
X211838493Y-112586742D01*
X211884945Y-112520400D01*
X213914000Y-112520400D01*
X213914337Y-112523646D01*
X213914337Y-112523650D01*
X213923933Y-112616131D01*
X213924974Y-112626166D01*
X213980950Y-112793946D01*
X214074022Y-112944348D01*
X214199197Y-113069305D01*
X214205427Y-113073145D01*
X214205428Y-113073146D01*
X214342590Y-113157694D01*
X214349762Y-113162115D01*
X214429505Y-113188564D01*
X214511111Y-113215632D01*
X214511113Y-113215632D01*
X214517639Y-113217797D01*
X214524475Y-113218497D01*
X214524478Y-113218498D01*
X214567531Y-113222909D01*
X214622100Y-113228500D01*
X217822900Y-113228500D01*
X217826146Y-113228163D01*
X217826150Y-113228163D01*
X217921808Y-113218238D01*
X217921812Y-113218237D01*
X217928666Y-113217526D01*
X217935202Y-113215345D01*
X217935204Y-113215345D01*
X218067306Y-113171272D01*
X218096446Y-113161550D01*
X218246848Y-113068478D01*
X218371805Y-112943303D01*
X218400024Y-112897523D01*
X218460775Y-112798968D01*
X218460776Y-112798966D01*
X218464615Y-112792738D01*
X218520297Y-112624861D01*
X218521192Y-112616131D01*
X218530672Y-112523598D01*
X218531000Y-112520400D01*
X218531000Y-110919600D01*
X218530663Y-110916350D01*
X218520738Y-110820692D01*
X218520737Y-110820688D01*
X218520026Y-110813834D01*
X218464050Y-110646054D01*
X218370978Y-110495652D01*
X218245803Y-110370695D01*
X218125825Y-110296739D01*
X218101468Y-110281725D01*
X218101466Y-110281724D01*
X218095238Y-110277885D01*
X217934754Y-110224655D01*
X217933889Y-110224368D01*
X217933887Y-110224368D01*
X217927361Y-110222203D01*
X217920525Y-110221503D01*
X217920522Y-110221502D01*
X217877469Y-110217091D01*
X217822900Y-110211500D01*
X214622100Y-110211500D01*
X214618854Y-110211837D01*
X214618850Y-110211837D01*
X214523192Y-110221762D01*
X214523188Y-110221763D01*
X214516334Y-110222474D01*
X214509798Y-110224655D01*
X214509796Y-110224655D01*
X214377694Y-110268728D01*
X214348554Y-110278450D01*
X214198152Y-110371522D01*
X214073195Y-110496697D01*
X214069355Y-110502927D01*
X214069354Y-110502928D01*
X213997097Y-110620151D01*
X213980385Y-110647262D01*
X213924703Y-110815139D01*
X213914000Y-110919600D01*
X213914000Y-112520400D01*
X211884945Y-112520400D01*
X211887232Y-112517134D01*
X211957523Y-112416749D01*
X211959846Y-112411767D01*
X211959849Y-112411762D01*
X212051961Y-112214225D01*
X212051961Y-112214224D01*
X212054284Y-112209243D01*
X212060593Y-112185700D01*
X212112119Y-111993402D01*
X212112119Y-111993400D01*
X212113543Y-111988087D01*
X212133498Y-111760000D01*
X212113543Y-111531913D01*
X212099201Y-111478387D01*
X212055707Y-111316067D01*
X212055706Y-111316065D01*
X212054284Y-111310757D01*
X212049814Y-111301170D01*
X211959849Y-111108238D01*
X211959846Y-111108233D01*
X211957523Y-111103251D01*
X211831216Y-110922866D01*
X211829357Y-110920211D01*
X211829355Y-110920208D01*
X211826198Y-110915700D01*
X211664300Y-110753802D01*
X211659792Y-110750645D01*
X211659789Y-110750643D01*
X211581611Y-110695902D01*
X211476749Y-110622477D01*
X211471767Y-110620154D01*
X211471762Y-110620151D01*
X211274225Y-110528039D01*
X211274224Y-110528039D01*
X211269243Y-110525716D01*
X211263935Y-110524294D01*
X211263933Y-110524293D01*
X211053402Y-110467881D01*
X211053400Y-110467881D01*
X211048087Y-110466457D01*
X210820000Y-110446502D01*
X210591913Y-110466457D01*
X210586600Y-110467881D01*
X210586598Y-110467881D01*
X210376067Y-110524293D01*
X210376065Y-110524294D01*
X210370757Y-110525716D01*
X210365776Y-110528039D01*
X210365775Y-110528039D01*
X210168238Y-110620151D01*
X210168233Y-110620154D01*
X210163251Y-110622477D01*
X210058389Y-110695902D01*
X209980211Y-110750643D01*
X209980208Y-110750645D01*
X209975700Y-110753802D01*
X209813802Y-110915700D01*
X209810645Y-110920208D01*
X209810643Y-110920211D01*
X209808784Y-110922866D01*
X209682477Y-111103251D01*
X209680154Y-111108233D01*
X209680151Y-111108238D01*
X209590186Y-111301170D01*
X209585716Y-111310757D01*
X209584294Y-111316065D01*
X209584293Y-111316067D01*
X209540799Y-111478387D01*
X209526457Y-111531913D01*
X209506502Y-111760000D01*
X201973498Y-111760000D01*
X201953543Y-111531913D01*
X201939201Y-111478387D01*
X201895707Y-111316067D01*
X201895706Y-111316065D01*
X201894284Y-111310757D01*
X201889814Y-111301170D01*
X201799849Y-111108238D01*
X201799846Y-111108233D01*
X201797523Y-111103251D01*
X201671216Y-110922866D01*
X201669357Y-110920211D01*
X201669355Y-110920208D01*
X201666198Y-110915700D01*
X201504300Y-110753802D01*
X201499792Y-110750645D01*
X201499789Y-110750643D01*
X201421611Y-110695902D01*
X201316749Y-110622477D01*
X201311767Y-110620154D01*
X201311762Y-110620151D01*
X201114225Y-110528039D01*
X201114224Y-110528039D01*
X201109243Y-110525716D01*
X201103935Y-110524294D01*
X201103933Y-110524293D01*
X200893402Y-110467881D01*
X200893400Y-110467881D01*
X200888087Y-110466457D01*
X200660000Y-110446502D01*
X200431913Y-110466457D01*
X200426600Y-110467881D01*
X200426598Y-110467881D01*
X200216067Y-110524293D01*
X200216065Y-110524294D01*
X200210757Y-110525716D01*
X200205776Y-110528039D01*
X200205775Y-110528039D01*
X200008238Y-110620151D01*
X200008233Y-110620154D01*
X200003251Y-110622477D01*
X199898389Y-110695902D01*
X199820211Y-110750643D01*
X199820208Y-110750645D01*
X199815700Y-110753802D01*
X199653802Y-110915700D01*
X199650645Y-110920208D01*
X199650643Y-110920211D01*
X199648784Y-110922866D01*
X199522477Y-111103251D01*
X199520154Y-111108233D01*
X199520151Y-111108238D01*
X199430186Y-111301170D01*
X199425716Y-111310757D01*
X199424294Y-111316065D01*
X199424293Y-111316067D01*
X199380799Y-111478387D01*
X199366457Y-111531913D01*
X199346502Y-111760000D01*
X198458500Y-111760000D01*
X198458500Y-110611866D01*
X198451745Y-110549684D01*
X198400615Y-110413295D01*
X198313261Y-110296739D01*
X198196705Y-110209385D01*
X198060316Y-110158255D01*
X197998134Y-110151500D01*
X195701866Y-110151500D01*
X195639684Y-110158255D01*
X195503295Y-110209385D01*
X195386739Y-110296739D01*
X195299385Y-110413295D01*
X195248255Y-110549684D01*
X195241500Y-110611866D01*
X195241500Y-112908134D01*
X193685999Y-112908134D01*
X193685999Y-112339331D01*
X193685629Y-112332510D01*
X193680105Y-112281648D01*
X193676479Y-112266396D01*
X193631324Y-112145946D01*
X193622786Y-112130351D01*
X193546285Y-112028276D01*
X193533724Y-112015715D01*
X193431649Y-111939214D01*
X193416054Y-111930676D01*
X193295606Y-111885522D01*
X193280351Y-111881895D01*
X193229486Y-111876369D01*
X193222672Y-111876000D01*
X192550115Y-111876000D01*
X192534876Y-111880475D01*
X192533671Y-111881865D01*
X192532000Y-111889548D01*
X192532000Y-113011885D01*
X192024000Y-113011885D01*
X192024000Y-111894116D01*
X192019525Y-111878877D01*
X192018135Y-111877672D01*
X192010452Y-111876001D01*
X191333331Y-111876001D01*
X191326510Y-111876371D01*
X191275648Y-111881895D01*
X191260396Y-111885521D01*
X191139946Y-111930676D01*
X191124351Y-111939214D01*
X191022276Y-112015715D01*
X191009715Y-112028276D01*
X190933214Y-112130351D01*
X190924675Y-112145948D01*
X190903934Y-112201275D01*
X190861293Y-112258040D01*
X190794731Y-112282740D01*
X190725383Y-112267533D01*
X190702388Y-112250909D01*
X190701887Y-112250358D01*
X190639737Y-112201275D01*
X190524177Y-112110011D01*
X190524172Y-112110008D01*
X190520123Y-112106810D01*
X190515607Y-112104317D01*
X190515604Y-112104315D01*
X190321879Y-111997373D01*
X190321875Y-111997371D01*
X190317355Y-111994876D01*
X190312486Y-111993152D01*
X190312482Y-111993150D01*
X190103903Y-111919288D01*
X190103899Y-111919287D01*
X190099028Y-111917562D01*
X190093935Y-111916655D01*
X190093932Y-111916654D01*
X189876095Y-111877851D01*
X189876089Y-111877850D01*
X189871006Y-111876945D01*
X189793644Y-111876000D01*
X189644581Y-111874179D01*
X189644579Y-111874179D01*
X189639411Y-111874116D01*
X189410464Y-111909150D01*
X189190314Y-111981106D01*
X189185726Y-111983494D01*
X189185722Y-111983496D01*
X188989461Y-112085663D01*
X188984872Y-112088052D01*
X188980739Y-112091155D01*
X188980736Y-112091157D01*
X188803790Y-112224012D01*
X188799655Y-112227117D01*
X188639639Y-112394564D01*
X188636725Y-112398836D01*
X188636724Y-112398837D01*
X188512627Y-112580757D01*
X188509119Y-112585899D01*
X188508403Y-112587442D01*
X188458086Y-112636090D01*
X188399574Y-112650500D01*
X185226594Y-112650500D01*
X185158473Y-112630498D01*
X185137499Y-112613595D01*
X181518405Y-108994500D01*
X181484379Y-108932188D01*
X181481500Y-108905405D01*
X181481500Y-107955000D01*
X182826502Y-107955000D01*
X182846457Y-108183087D01*
X182847881Y-108188400D01*
X182847881Y-108188402D01*
X182858272Y-108227179D01*
X182905716Y-108404243D01*
X182908039Y-108409224D01*
X182908039Y-108409225D01*
X183000151Y-108606762D01*
X183000154Y-108606767D01*
X183002477Y-108611749D01*
X183133802Y-108799300D01*
X183295700Y-108961198D01*
X183300208Y-108964355D01*
X183300211Y-108964357D01*
X183341542Y-108993297D01*
X183483251Y-109092523D01*
X183488233Y-109094846D01*
X183488238Y-109094849D01*
X183680034Y-109184284D01*
X183690757Y-109189284D01*
X183696065Y-109190706D01*
X183696067Y-109190707D01*
X183906598Y-109247119D01*
X183906600Y-109247119D01*
X183911913Y-109248543D01*
X184140000Y-109268498D01*
X184368087Y-109248543D01*
X184373400Y-109247119D01*
X184373402Y-109247119D01*
X184583933Y-109190707D01*
X184583935Y-109190706D01*
X184589243Y-109189284D01*
X184599966Y-109184284D01*
X184791762Y-109094849D01*
X184791767Y-109094846D01*
X184796749Y-109092523D01*
X184938458Y-108993297D01*
X184979789Y-108964357D01*
X184979792Y-108964355D01*
X184984300Y-108961198D01*
X185146198Y-108799300D01*
X185277523Y-108611749D01*
X185279846Y-108606767D01*
X185279849Y-108606762D01*
X185371961Y-108409225D01*
X185371961Y-108409224D01*
X185374284Y-108404243D01*
X185421729Y-108227179D01*
X185432119Y-108188402D01*
X185432119Y-108188400D01*
X185433543Y-108183087D01*
X185453498Y-107955000D01*
X185433543Y-107726913D01*
X185418825Y-107671984D01*
X185375707Y-107511067D01*
X185375706Y-107511065D01*
X185374284Y-107505757D01*
X185371961Y-107500775D01*
X185279849Y-107303238D01*
X185279846Y-107303233D01*
X185277523Y-107298251D01*
X185146198Y-107110700D01*
X184984300Y-106948802D01*
X184979792Y-106945645D01*
X184979789Y-106945643D01*
X184901611Y-106890902D01*
X184796749Y-106817477D01*
X184791767Y-106815154D01*
X184791762Y-106815151D01*
X184756951Y-106798919D01*
X184703666Y-106752002D01*
X184684205Y-106683725D01*
X184704747Y-106615765D01*
X184756951Y-106570529D01*
X184791511Y-106554414D01*
X184801007Y-106548931D01*
X184979467Y-106423972D01*
X184987875Y-106416916D01*
X185141916Y-106262875D01*
X185148972Y-106254467D01*
X185273931Y-106076007D01*
X185279414Y-106066511D01*
X185371490Y-105869053D01*
X185375236Y-105858761D01*
X185421394Y-105686497D01*
X185421058Y-105672401D01*
X185413116Y-105669000D01*
X182872033Y-105669000D01*
X182858502Y-105672973D01*
X182857273Y-105681522D01*
X182904764Y-105858761D01*
X182908510Y-105869053D01*
X183000586Y-106066511D01*
X183006069Y-106076007D01*
X183131028Y-106254467D01*
X183138084Y-106262875D01*
X183292125Y-106416916D01*
X183300533Y-106423972D01*
X183478993Y-106548931D01*
X183488489Y-106554414D01*
X183523049Y-106570529D01*
X183576334Y-106617446D01*
X183595795Y-106685723D01*
X183575253Y-106753683D01*
X183523049Y-106798919D01*
X183488238Y-106815151D01*
X183488233Y-106815154D01*
X183483251Y-106817477D01*
X183378389Y-106890902D01*
X183300211Y-106945643D01*
X183300208Y-106945645D01*
X183295700Y-106948802D01*
X183133802Y-107110700D01*
X183002477Y-107298251D01*
X183000154Y-107303233D01*
X183000151Y-107303238D01*
X182908039Y-107500775D01*
X182905716Y-107505757D01*
X182904294Y-107511065D01*
X182904293Y-107511067D01*
X182861175Y-107671984D01*
X182846457Y-107726913D01*
X182826502Y-107955000D01*
X181481500Y-107955000D01*
X181481500Y-105415000D01*
X190446502Y-105415000D01*
X190466457Y-105643087D01*
X190525716Y-105864243D01*
X190528039Y-105869224D01*
X190528039Y-105869225D01*
X190620151Y-106066762D01*
X190620154Y-106066767D01*
X190622477Y-106071749D01*
X190753802Y-106259300D01*
X190915700Y-106421198D01*
X190920211Y-106424357D01*
X190924424Y-106427892D01*
X190923473Y-106429026D01*
X190963471Y-106479071D01*
X190970776Y-106549690D01*
X190938742Y-106613049D01*
X190877538Y-106649030D01*
X190860483Y-106652082D01*
X190849684Y-106653255D01*
X190713295Y-106704385D01*
X190596739Y-106791739D01*
X190509385Y-106908295D01*
X190458255Y-107044684D01*
X190451500Y-107106866D01*
X190451500Y-108803134D01*
X190458255Y-108865316D01*
X190509385Y-109001705D01*
X190596739Y-109118261D01*
X190713295Y-109205615D01*
X190849684Y-109256745D01*
X190911866Y-109263500D01*
X192608134Y-109263500D01*
X192670316Y-109256745D01*
X192806705Y-109205615D01*
X192923261Y-109118261D01*
X193010615Y-109001705D01*
X193061745Y-108865316D01*
X193068500Y-108803134D01*
X193068500Y-107106866D01*
X193061745Y-107044684D01*
X193010615Y-106908295D01*
X192923261Y-106791739D01*
X192898013Y-106772817D01*
X213910014Y-106772817D01*
X213910595Y-106777837D01*
X213910595Y-106777841D01*
X213930249Y-106947699D01*
X213937915Y-107013956D01*
X213939291Y-107018820D01*
X213939292Y-107018823D01*
X213984976Y-107180266D01*
X214004010Y-107247532D01*
X214006144Y-107252108D01*
X214006146Y-107252114D01*
X214062946Y-107373922D01*
X214106599Y-107467536D01*
X214243044Y-107668307D01*
X214409832Y-107844681D01*
X214413858Y-107847759D01*
X214413859Y-107847760D01*
X214598654Y-107989047D01*
X214598658Y-107989050D01*
X214602674Y-107992120D01*
X214816609Y-108106831D01*
X215046131Y-108185862D01*
X215145478Y-108203022D01*
X215281426Y-108226504D01*
X215281432Y-108226505D01*
X215285336Y-108227179D01*
X215289297Y-108227359D01*
X215289298Y-108227359D01*
X215313006Y-108228436D01*
X215313025Y-108228436D01*
X215314425Y-108228500D01*
X217083501Y-108228500D01*
X217086009Y-108228298D01*
X217086014Y-108228298D01*
X217259424Y-108214346D01*
X217259429Y-108214345D01*
X217264465Y-108213940D01*
X217269373Y-108212734D01*
X217269376Y-108212734D01*
X217495292Y-108157244D01*
X217500206Y-108156037D01*
X217504858Y-108154062D01*
X217504862Y-108154061D01*
X217718998Y-108063165D01*
X217723656Y-108061188D01*
X217829537Y-107994511D01*
X217924788Y-107934528D01*
X217924791Y-107934526D01*
X217929067Y-107931833D01*
X218027922Y-107844681D01*
X218107358Y-107774650D01*
X218107361Y-107774647D01*
X218111155Y-107771302D01*
X218147222Y-107727393D01*
X218262026Y-107587628D01*
X218262028Y-107587625D01*
X218265234Y-107583722D01*
X218387341Y-107373922D01*
X218418119Y-107293743D01*
X218472520Y-107152022D01*
X218472521Y-107152018D01*
X218474333Y-107147298D01*
X218475368Y-107142345D01*
X218522940Y-106914631D01*
X218522940Y-106914627D01*
X218523974Y-106909680D01*
X218534986Y-106667183D01*
X218534405Y-106662159D01*
X218507667Y-106431071D01*
X218507666Y-106431067D01*
X218507085Y-106426044D01*
X218468017Y-106287978D01*
X218442366Y-106197331D01*
X218440990Y-106192468D01*
X218438856Y-106187892D01*
X218438854Y-106187886D01*
X218340538Y-105977046D01*
X218340536Y-105977042D01*
X218338401Y-105972464D01*
X218201956Y-105771693D01*
X218035168Y-105595319D01*
X218031141Y-105592240D01*
X217846346Y-105450953D01*
X217846342Y-105450950D01*
X217842326Y-105447880D01*
X217628391Y-105333169D01*
X217398869Y-105254138D01*
X217299522Y-105236978D01*
X217163574Y-105213496D01*
X217163568Y-105213495D01*
X217159664Y-105212821D01*
X217155703Y-105212641D01*
X217155702Y-105212641D01*
X217131994Y-105211564D01*
X217131975Y-105211564D01*
X217130575Y-105211500D01*
X215361499Y-105211500D01*
X215358991Y-105211702D01*
X215358986Y-105211702D01*
X215185576Y-105225654D01*
X215185571Y-105225655D01*
X215180535Y-105226060D01*
X215175627Y-105227266D01*
X215175624Y-105227266D01*
X215059507Y-105255787D01*
X214944794Y-105283963D01*
X214940142Y-105285938D01*
X214940138Y-105285939D01*
X214832752Y-105331522D01*
X214721344Y-105378812D01*
X214717060Y-105381510D01*
X214520212Y-105505472D01*
X214520209Y-105505474D01*
X214515933Y-105508167D01*
X214512139Y-105511512D01*
X214337642Y-105665350D01*
X214337639Y-105665353D01*
X214333845Y-105668698D01*
X214179766Y-105856278D01*
X214057659Y-106066078D01*
X214055846Y-106070801D01*
X213981993Y-106263197D01*
X213970667Y-106292702D01*
X213969633Y-106297652D01*
X213969632Y-106297655D01*
X213941042Y-106434510D01*
X213921026Y-106530320D01*
X213910014Y-106772817D01*
X192898013Y-106772817D01*
X192806705Y-106704385D01*
X192670316Y-106653255D01*
X192659526Y-106652083D01*
X192657394Y-106651197D01*
X192654778Y-106650575D01*
X192654879Y-106650152D01*
X192593965Y-106624845D01*
X192553537Y-106566483D01*
X192551078Y-106495529D01*
X192587371Y-106434510D01*
X192596035Y-106427507D01*
X192599790Y-106424356D01*
X192604300Y-106421198D01*
X192766198Y-106259300D01*
X192897523Y-106071749D01*
X192899846Y-106066767D01*
X192899849Y-106066762D01*
X192991961Y-105869225D01*
X192991961Y-105869224D01*
X192994284Y-105864243D01*
X193053543Y-105643087D01*
X193073498Y-105415000D01*
X193053543Y-105186913D01*
X193043244Y-105148478D01*
X192995707Y-104971067D01*
X192995706Y-104971065D01*
X192994284Y-104965757D01*
X192899966Y-104763489D01*
X192899849Y-104763238D01*
X192899846Y-104763233D01*
X192897523Y-104758251D01*
X192766198Y-104570700D01*
X192604300Y-104408802D01*
X192599792Y-104405645D01*
X192599789Y-104405643D01*
X192468753Y-104313891D01*
X192416749Y-104277477D01*
X192411767Y-104275154D01*
X192411762Y-104275151D01*
X192214225Y-104183039D01*
X192214224Y-104183039D01*
X192209243Y-104180716D01*
X192203935Y-104179294D01*
X192203933Y-104179293D01*
X191993402Y-104122881D01*
X191993400Y-104122881D01*
X191988087Y-104121457D01*
X191760000Y-104101502D01*
X191531913Y-104121457D01*
X191526600Y-104122881D01*
X191526598Y-104122881D01*
X191316067Y-104179293D01*
X191316065Y-104179294D01*
X191310757Y-104180716D01*
X191305776Y-104183039D01*
X191305775Y-104183039D01*
X191108238Y-104275151D01*
X191108233Y-104275154D01*
X191103251Y-104277477D01*
X191051247Y-104313891D01*
X190920211Y-104405643D01*
X190920208Y-104405645D01*
X190915700Y-104408802D01*
X190753802Y-104570700D01*
X190622477Y-104758251D01*
X190620154Y-104763233D01*
X190620151Y-104763238D01*
X190620034Y-104763489D01*
X190525716Y-104965757D01*
X190524294Y-104971065D01*
X190524293Y-104971067D01*
X190476756Y-105148478D01*
X190466457Y-105186913D01*
X190446502Y-105415000D01*
X181481500Y-105415000D01*
X181481500Y-105143503D01*
X182858606Y-105143503D01*
X182858942Y-105157599D01*
X182866884Y-105161000D01*
X183867885Y-105161000D01*
X183883124Y-105156525D01*
X183884329Y-105155135D01*
X183886000Y-105147452D01*
X183886000Y-105142885D01*
X184394000Y-105142885D01*
X184398475Y-105158124D01*
X184399865Y-105159329D01*
X184407548Y-105161000D01*
X185407967Y-105161000D01*
X185421498Y-105157027D01*
X185422727Y-105148478D01*
X185375236Y-104971239D01*
X185371490Y-104960947D01*
X185279414Y-104763489D01*
X185273931Y-104753993D01*
X185148972Y-104575533D01*
X185141916Y-104567125D01*
X184987875Y-104413084D01*
X184979467Y-104406028D01*
X184801007Y-104281069D01*
X184791511Y-104275586D01*
X184594053Y-104183510D01*
X184583761Y-104179764D01*
X184411497Y-104133606D01*
X184397401Y-104133942D01*
X184394000Y-104141884D01*
X184394000Y-105142885D01*
X183886000Y-105142885D01*
X183886000Y-104147033D01*
X183882027Y-104133502D01*
X183873478Y-104132273D01*
X183696239Y-104179764D01*
X183685947Y-104183510D01*
X183488489Y-104275586D01*
X183478993Y-104281069D01*
X183300533Y-104406028D01*
X183292125Y-104413084D01*
X183138084Y-104567125D01*
X183131028Y-104575533D01*
X183006069Y-104753993D01*
X183000586Y-104763489D01*
X182908510Y-104960947D01*
X182904764Y-104971239D01*
X182858606Y-105143503D01*
X181481500Y-105143503D01*
X181481500Y-104089394D01*
X181501502Y-104021273D01*
X181535229Y-103986181D01*
X181687789Y-103879357D01*
X181687792Y-103879355D01*
X181692300Y-103876198D01*
X181854198Y-103714300D01*
X181985523Y-103526749D01*
X181987846Y-103521767D01*
X181987849Y-103521762D01*
X182079961Y-103324225D01*
X182079961Y-103324224D01*
X182082284Y-103319243D01*
X182130970Y-103137548D01*
X182140119Y-103103402D01*
X182140119Y-103103400D01*
X182141543Y-103098087D01*
X182161498Y-102870000D01*
X182141543Y-102641913D01*
X182131244Y-102603478D01*
X182083707Y-102426067D01*
X182083706Y-102426065D01*
X182082284Y-102420757D01*
X182043098Y-102336722D01*
X181987849Y-102218238D01*
X181987846Y-102218233D01*
X181985523Y-102213251D01*
X181854198Y-102025700D01*
X181692300Y-101863802D01*
X181687792Y-101860645D01*
X181687789Y-101860643D01*
X181599386Y-101798743D01*
X181504749Y-101732477D01*
X181499767Y-101730154D01*
X181499762Y-101730151D01*
X181302225Y-101638039D01*
X181302224Y-101638039D01*
X181297243Y-101635716D01*
X181291935Y-101634294D01*
X181291933Y-101634293D01*
X181163951Y-101600000D01*
X195236526Y-101600000D01*
X195256391Y-101852403D01*
X195257545Y-101857210D01*
X195257546Y-101857216D01*
X195271468Y-101915203D01*
X195315495Y-102098591D01*
X195317388Y-102103162D01*
X195317389Y-102103164D01*
X195370719Y-102231913D01*
X195412384Y-102332502D01*
X195544672Y-102548376D01*
X195709102Y-102740898D01*
X195901624Y-102905328D01*
X196117498Y-103037616D01*
X196122068Y-103039509D01*
X196122072Y-103039511D01*
X196334258Y-103127401D01*
X196351409Y-103134505D01*
X196436032Y-103154821D01*
X196592784Y-103192454D01*
X196592790Y-103192455D01*
X196597597Y-103193609D01*
X196850000Y-103213474D01*
X197102403Y-103193609D01*
X197107210Y-103192455D01*
X197107216Y-103192454D01*
X197263968Y-103154821D01*
X197348591Y-103134505D01*
X197365742Y-103127401D01*
X197577928Y-103039511D01*
X197577932Y-103039509D01*
X197582502Y-103037616D01*
X197798376Y-102905328D01*
X197990898Y-102740898D01*
X198155328Y-102548376D01*
X198287616Y-102332502D01*
X198329282Y-102231913D01*
X198382611Y-102103164D01*
X198382612Y-102103162D01*
X198384505Y-102098591D01*
X198428532Y-101915203D01*
X198442454Y-101857216D01*
X198442455Y-101857210D01*
X198443609Y-101852403D01*
X198463474Y-101600000D01*
X198443609Y-101347597D01*
X198438337Y-101325634D01*
X198400463Y-101167881D01*
X198384505Y-101101409D01*
X198287616Y-100867498D01*
X198155328Y-100651624D01*
X197990898Y-100459102D01*
X197798376Y-100294672D01*
X197582502Y-100162384D01*
X197577932Y-100160491D01*
X197577928Y-100160489D01*
X197353164Y-100067389D01*
X197353162Y-100067388D01*
X197348591Y-100065495D01*
X197263968Y-100045179D01*
X197107216Y-100007546D01*
X197107210Y-100007545D01*
X197102403Y-100006391D01*
X196850000Y-99986526D01*
X196597597Y-100006391D01*
X196592790Y-100007545D01*
X196592784Y-100007546D01*
X196436032Y-100045179D01*
X196351409Y-100065495D01*
X196346838Y-100067388D01*
X196346836Y-100067389D01*
X196122072Y-100160489D01*
X196122068Y-100160491D01*
X196117498Y-100162384D01*
X195901624Y-100294672D01*
X195709102Y-100459102D01*
X195544672Y-100651624D01*
X195412384Y-100867498D01*
X195315495Y-101101409D01*
X195299537Y-101167881D01*
X195261664Y-101325634D01*
X195256391Y-101347597D01*
X195236526Y-101600000D01*
X181163951Y-101600000D01*
X181081402Y-101577881D01*
X181081400Y-101577881D01*
X181076087Y-101576457D01*
X180848000Y-101556502D01*
X180619913Y-101576457D01*
X180614600Y-101577881D01*
X180614598Y-101577881D01*
X180404067Y-101634293D01*
X180404065Y-101634294D01*
X180398757Y-101635716D01*
X180393776Y-101638039D01*
X180393775Y-101638039D01*
X180196238Y-101730151D01*
X180196233Y-101730154D01*
X180191251Y-101732477D01*
X180096614Y-101798743D01*
X180008211Y-101860643D01*
X180008208Y-101860645D01*
X180003700Y-101863802D01*
X179841802Y-102025700D01*
X179710477Y-102213251D01*
X179708154Y-102218233D01*
X179708151Y-102218238D01*
X179652902Y-102336722D01*
X179613716Y-102420757D01*
X179612294Y-102426065D01*
X179612293Y-102426067D01*
X179564756Y-102603478D01*
X179554457Y-102641913D01*
X179534502Y-102870000D01*
X179554457Y-103098087D01*
X179555881Y-103103400D01*
X179555881Y-103103402D01*
X179565031Y-103137548D01*
X179613716Y-103319243D01*
X179616039Y-103324224D01*
X179616039Y-103324225D01*
X179708151Y-103521762D01*
X179708154Y-103521767D01*
X179710477Y-103526749D01*
X179841802Y-103714300D01*
X180003700Y-103876198D01*
X180008208Y-103879355D01*
X180008211Y-103879357D01*
X180160771Y-103986181D01*
X180205099Y-104041638D01*
X180214500Y-104089394D01*
X180214500Y-109141233D01*
X180213973Y-109152416D01*
X180212298Y-109159909D01*
X180212547Y-109167835D01*
X180212547Y-109167836D01*
X180214438Y-109227986D01*
X180214500Y-109231945D01*
X180214500Y-109259856D01*
X180214997Y-109263790D01*
X180214997Y-109263791D01*
X180215005Y-109263856D01*
X180215938Y-109275693D01*
X180217327Y-109319889D01*
X180222978Y-109339339D01*
X180226987Y-109358700D01*
X180229526Y-109378797D01*
X180232445Y-109386168D01*
X180232445Y-109386170D01*
X180245804Y-109419912D01*
X180249649Y-109431142D01*
X180261982Y-109473593D01*
X180266015Y-109480412D01*
X180266017Y-109480417D01*
X180272293Y-109491028D01*
X180280988Y-109508776D01*
X180288448Y-109527617D01*
X180293110Y-109534033D01*
X180293110Y-109534034D01*
X180314436Y-109563387D01*
X180320952Y-109573307D01*
X180343458Y-109611362D01*
X180357779Y-109625683D01*
X180370619Y-109640716D01*
X180382528Y-109657107D01*
X180388634Y-109662158D01*
X180416605Y-109685298D01*
X180425384Y-109693288D01*
X184408348Y-113676253D01*
X184415888Y-113684539D01*
X184420000Y-113691018D01*
X184425777Y-113696443D01*
X184469651Y-113737643D01*
X184472493Y-113740398D01*
X184492230Y-113760135D01*
X184495427Y-113762615D01*
X184504447Y-113770318D01*
X184536679Y-113800586D01*
X184543625Y-113804405D01*
X184543628Y-113804407D01*
X184554434Y-113810348D01*
X184570953Y-113821199D01*
X184586959Y-113833614D01*
X184594228Y-113836759D01*
X184594232Y-113836762D01*
X184627537Y-113851174D01*
X184638187Y-113856391D01*
X184676940Y-113877695D01*
X184684615Y-113879666D01*
X184684616Y-113879666D01*
X184696562Y-113882733D01*
X184715267Y-113889137D01*
X184733855Y-113897181D01*
X184741678Y-113898420D01*
X184741688Y-113898423D01*
X184777524Y-113904099D01*
X184789144Y-113906505D01*
X184824289Y-113915528D01*
X184831970Y-113917500D01*
X184852224Y-113917500D01*
X184871934Y-113919051D01*
X184891943Y-113922220D01*
X184899835Y-113921474D01*
X184935961Y-113918059D01*
X184947819Y-113917500D01*
X188403630Y-113917500D01*
X188471751Y-113937502D01*
X188511063Y-113977665D01*
X188569048Y-114072287D01*
X188591953Y-114109665D01*
X188610491Y-114178199D01*
X188589035Y-114245875D01*
X188534396Y-114291208D01*
X188484520Y-114301500D01*
X181713031Y-114301500D01*
X181644910Y-114281498D01*
X181598417Y-114227842D01*
X181588313Y-114157568D01*
X181617807Y-114092988D01*
X181640760Y-114072287D01*
X181687789Y-114039357D01*
X181687792Y-114039355D01*
X181692300Y-114036198D01*
X181854198Y-113874300D01*
X181868740Y-113853533D01*
X181947957Y-113740398D01*
X181985523Y-113686749D01*
X181987846Y-113681767D01*
X181987849Y-113681762D01*
X182079961Y-113484225D01*
X182079961Y-113484224D01*
X182082284Y-113479243D01*
X182126624Y-113313767D01*
X182140119Y-113263402D01*
X182140119Y-113263400D01*
X182141543Y-113258087D01*
X182161498Y-113030000D01*
X182141543Y-112801913D01*
X182095612Y-112630498D01*
X182083707Y-112586067D01*
X182083706Y-112586065D01*
X182082284Y-112580757D01*
X182055655Y-112523650D01*
X181987849Y-112378238D01*
X181987846Y-112378233D01*
X181985523Y-112373251D01*
X181883199Y-112227117D01*
X181857357Y-112190211D01*
X181857355Y-112190208D01*
X181854198Y-112185700D01*
X181692300Y-112023802D01*
X181687792Y-112020645D01*
X181687789Y-112020643D01*
X181571496Y-111939214D01*
X181504749Y-111892477D01*
X181499767Y-111890154D01*
X181499762Y-111890151D01*
X181302225Y-111798039D01*
X181302224Y-111798039D01*
X181297243Y-111795716D01*
X181291935Y-111794294D01*
X181291933Y-111794293D01*
X181081402Y-111737881D01*
X181081400Y-111737881D01*
X181076087Y-111736457D01*
X180848000Y-111716502D01*
X180619913Y-111736457D01*
X180614600Y-111737881D01*
X180614598Y-111737881D01*
X180404067Y-111794293D01*
X180404065Y-111794294D01*
X180398757Y-111795716D01*
X180393776Y-111798039D01*
X180393775Y-111798039D01*
X180196238Y-111890151D01*
X180196233Y-111890154D01*
X180191251Y-111892477D01*
X180124504Y-111939214D01*
X180008211Y-112020643D01*
X180008208Y-112020645D01*
X180003700Y-112023802D01*
X179841802Y-112185700D01*
X179838645Y-112190208D01*
X179838643Y-112190211D01*
X179812801Y-112227117D01*
X179710477Y-112373251D01*
X179708154Y-112378233D01*
X179708151Y-112378238D01*
X179640345Y-112523650D01*
X179613716Y-112580757D01*
X179612294Y-112586065D01*
X179612293Y-112586067D01*
X179600388Y-112630498D01*
X179554457Y-112801913D01*
X179534502Y-113030000D01*
X179554457Y-113258087D01*
X179555881Y-113263400D01*
X179555881Y-113263402D01*
X179569377Y-113313767D01*
X179613716Y-113479243D01*
X179616039Y-113484224D01*
X179616039Y-113484225D01*
X179708151Y-113681762D01*
X179708154Y-113681767D01*
X179710477Y-113686749D01*
X179748043Y-113740398D01*
X179827261Y-113853533D01*
X179841802Y-113874300D01*
X180003700Y-114036198D01*
X180008208Y-114039355D01*
X180008211Y-114039357D01*
X180055240Y-114072287D01*
X180099568Y-114127744D01*
X180106877Y-114198364D01*
X180074846Y-114261724D01*
X180013645Y-114297709D01*
X179982969Y-114301500D01*
X178665031Y-114301500D01*
X178596910Y-114281498D01*
X178550417Y-114227842D01*
X178540313Y-114157568D01*
X178569807Y-114092988D01*
X178592760Y-114072287D01*
X178639789Y-114039357D01*
X178639792Y-114039355D01*
X178644300Y-114036198D01*
X178806198Y-113874300D01*
X178820740Y-113853533D01*
X178899957Y-113740398D01*
X178937523Y-113686749D01*
X178939846Y-113681767D01*
X178939849Y-113681762D01*
X179031961Y-113484225D01*
X179031961Y-113484224D01*
X179034284Y-113479243D01*
X179078624Y-113313767D01*
X179092119Y-113263402D01*
X179092119Y-113263400D01*
X179093543Y-113258087D01*
X179113498Y-113030000D01*
X179093543Y-112801913D01*
X179047612Y-112630498D01*
X179035707Y-112586067D01*
X179035706Y-112586065D01*
X179034284Y-112580757D01*
X179007655Y-112523650D01*
X178939849Y-112378238D01*
X178939846Y-112378233D01*
X178937523Y-112373251D01*
X178835199Y-112227117D01*
X178809357Y-112190211D01*
X178809355Y-112190208D01*
X178806198Y-112185700D01*
X178644300Y-112023802D01*
X178639792Y-112020645D01*
X178639789Y-112020643D01*
X178523496Y-111939214D01*
X178456749Y-111892477D01*
X178451767Y-111890154D01*
X178451762Y-111890151D01*
X178254225Y-111798039D01*
X178254224Y-111798039D01*
X178249243Y-111795716D01*
X178243935Y-111794294D01*
X178243933Y-111794293D01*
X178033402Y-111737881D01*
X178033400Y-111737881D01*
X178028087Y-111736457D01*
X177800000Y-111716502D01*
X177571913Y-111736457D01*
X177566600Y-111737881D01*
X177566598Y-111737881D01*
X177356067Y-111794293D01*
X177356065Y-111794294D01*
X177350757Y-111795716D01*
X177345776Y-111798039D01*
X177345775Y-111798039D01*
X177148238Y-111890151D01*
X177148233Y-111890154D01*
X177143251Y-111892477D01*
X177076504Y-111939214D01*
X176960211Y-112020643D01*
X176960208Y-112020645D01*
X176955700Y-112023802D01*
X176793802Y-112185700D01*
X176790645Y-112190208D01*
X176790643Y-112190211D01*
X176764801Y-112227117D01*
X176662477Y-112373251D01*
X176660154Y-112378233D01*
X176660151Y-112378238D01*
X176592345Y-112523650D01*
X176565716Y-112580757D01*
X176564294Y-112586065D01*
X176564293Y-112586067D01*
X176552388Y-112630498D01*
X176506457Y-112801913D01*
X176486502Y-113030000D01*
X176506457Y-113258087D01*
X176507881Y-113263400D01*
X176507881Y-113263402D01*
X176521377Y-113313767D01*
X176565716Y-113479243D01*
X176568039Y-113484224D01*
X176568039Y-113484225D01*
X176660151Y-113681762D01*
X176660154Y-113681767D01*
X176662477Y-113686749D01*
X176700043Y-113740398D01*
X176779261Y-113853533D01*
X176793802Y-113874300D01*
X176955700Y-114036198D01*
X176960208Y-114039355D01*
X176960211Y-114039357D01*
X177007240Y-114072287D01*
X177051568Y-114127744D01*
X177058877Y-114198364D01*
X177026846Y-114261724D01*
X176965645Y-114297709D01*
X176934969Y-114301500D01*
X172315031Y-114301500D01*
X172246910Y-114281498D01*
X172200417Y-114227842D01*
X172190313Y-114157568D01*
X172219807Y-114092988D01*
X172242760Y-114072287D01*
X172289789Y-114039357D01*
X172289792Y-114039355D01*
X172294300Y-114036198D01*
X172456198Y-113874300D01*
X172470740Y-113853533D01*
X172549957Y-113740398D01*
X172587523Y-113686749D01*
X172589846Y-113681767D01*
X172589849Y-113681762D01*
X172681961Y-113484225D01*
X172681961Y-113484224D01*
X172684284Y-113479243D01*
X172728624Y-113313767D01*
X172742119Y-113263402D01*
X172742119Y-113263400D01*
X172743543Y-113258087D01*
X172763498Y-113030000D01*
X172743543Y-112801913D01*
X172697612Y-112630498D01*
X172685707Y-112586067D01*
X172685706Y-112586065D01*
X172684284Y-112580757D01*
X172657655Y-112523650D01*
X172589849Y-112378238D01*
X172589846Y-112378233D01*
X172587523Y-112373251D01*
X172485199Y-112227117D01*
X172459357Y-112190211D01*
X172459355Y-112190208D01*
X172456198Y-112185700D01*
X172294300Y-112023802D01*
X172289792Y-112020645D01*
X172289789Y-112020643D01*
X172173496Y-111939214D01*
X172106749Y-111892477D01*
X172101767Y-111890154D01*
X172101762Y-111890151D01*
X171904225Y-111798039D01*
X171904224Y-111798039D01*
X171899243Y-111795716D01*
X171893935Y-111794294D01*
X171893933Y-111794293D01*
X171683402Y-111737881D01*
X171683400Y-111737881D01*
X171678087Y-111736457D01*
X171450000Y-111716502D01*
X171221913Y-111736457D01*
X171216600Y-111737881D01*
X171216598Y-111737881D01*
X171006067Y-111794293D01*
X171006065Y-111794294D01*
X171000757Y-111795716D01*
X170995776Y-111798039D01*
X170995775Y-111798039D01*
X170798238Y-111890151D01*
X170798233Y-111890154D01*
X170793251Y-111892477D01*
X170726504Y-111939214D01*
X170610211Y-112020643D01*
X170610208Y-112020645D01*
X170605700Y-112023802D01*
X170443802Y-112185700D01*
X170440645Y-112190208D01*
X170440643Y-112190211D01*
X170414801Y-112227117D01*
X170312477Y-112373251D01*
X170310154Y-112378233D01*
X170310151Y-112378238D01*
X170242345Y-112523650D01*
X170215716Y-112580757D01*
X170214294Y-112586065D01*
X170214293Y-112586067D01*
X170202388Y-112630498D01*
X170156457Y-112801913D01*
X170136502Y-113030000D01*
X170156457Y-113258087D01*
X170157881Y-113263400D01*
X170157881Y-113263402D01*
X170171377Y-113313767D01*
X170215716Y-113479243D01*
X170218039Y-113484224D01*
X170218039Y-113484225D01*
X170310151Y-113681762D01*
X170310154Y-113681767D01*
X170312477Y-113686749D01*
X170350043Y-113740398D01*
X170429261Y-113853533D01*
X170443802Y-113874300D01*
X170605700Y-114036198D01*
X170610208Y-114039355D01*
X170610211Y-114039357D01*
X170657240Y-114072287D01*
X170701568Y-114127744D01*
X170708877Y-114198364D01*
X170676846Y-114261724D01*
X170615645Y-114297709D01*
X170584969Y-114301500D01*
X170494594Y-114301500D01*
X170426473Y-114281498D01*
X170405499Y-114264595D01*
X167050405Y-110909500D01*
X167016379Y-110847188D01*
X167013500Y-110820405D01*
X167013500Y-107950000D01*
X170136502Y-107950000D01*
X170156457Y-108178087D01*
X170157881Y-108183400D01*
X170157881Y-108183402D01*
X170166173Y-108214346D01*
X170215716Y-108399243D01*
X170218039Y-108404224D01*
X170218039Y-108404225D01*
X170310151Y-108601762D01*
X170310154Y-108601767D01*
X170312477Y-108606749D01*
X170443802Y-108794300D01*
X170605700Y-108956198D01*
X170610208Y-108959355D01*
X170610211Y-108959357D01*
X170680953Y-109008891D01*
X170793251Y-109087523D01*
X170798233Y-109089846D01*
X170798238Y-109089849D01*
X170933867Y-109153093D01*
X171000757Y-109184284D01*
X171006065Y-109185706D01*
X171006067Y-109185707D01*
X171216598Y-109242119D01*
X171216600Y-109242119D01*
X171221913Y-109243543D01*
X171450000Y-109263498D01*
X171678087Y-109243543D01*
X171683400Y-109242119D01*
X171683402Y-109242119D01*
X171893933Y-109185707D01*
X171893935Y-109185706D01*
X171899243Y-109184284D01*
X171966133Y-109153093D01*
X172101762Y-109089849D01*
X172101767Y-109089846D01*
X172106749Y-109087523D01*
X172219047Y-109008891D01*
X172289789Y-108959357D01*
X172289792Y-108959355D01*
X172294300Y-108956198D01*
X172456198Y-108794300D01*
X172587523Y-108606749D01*
X172589846Y-108601767D01*
X172589849Y-108601762D01*
X172681961Y-108404225D01*
X172681961Y-108404224D01*
X172684284Y-108399243D01*
X172733828Y-108214346D01*
X172742119Y-108183402D01*
X172742119Y-108183400D01*
X172743543Y-108178087D01*
X172763498Y-107950000D01*
X172743543Y-107721913D01*
X172742119Y-107716598D01*
X172685707Y-107506067D01*
X172685706Y-107506065D01*
X172684284Y-107500757D01*
X172627177Y-107378290D01*
X172589849Y-107298238D01*
X172589846Y-107298233D01*
X172587523Y-107293251D01*
X172488633Y-107152022D01*
X172459357Y-107110211D01*
X172459355Y-107110208D01*
X172456198Y-107105700D01*
X172294300Y-106943802D01*
X172289792Y-106940645D01*
X172289789Y-106940643D01*
X172118398Y-106820634D01*
X172106749Y-106812477D01*
X172101767Y-106810154D01*
X172101762Y-106810151D01*
X171904225Y-106718039D01*
X171904224Y-106718039D01*
X171899243Y-106715716D01*
X171893935Y-106714294D01*
X171893933Y-106714293D01*
X171683402Y-106657881D01*
X171683400Y-106657881D01*
X171678087Y-106656457D01*
X171450000Y-106636502D01*
X171221913Y-106656457D01*
X171216600Y-106657881D01*
X171216598Y-106657881D01*
X171006067Y-106714293D01*
X171006065Y-106714294D01*
X171000757Y-106715716D01*
X170995776Y-106718039D01*
X170995775Y-106718039D01*
X170798238Y-106810151D01*
X170798233Y-106810154D01*
X170793251Y-106812477D01*
X170781602Y-106820634D01*
X170610211Y-106940643D01*
X170610208Y-106940645D01*
X170605700Y-106943802D01*
X170443802Y-107105700D01*
X170440645Y-107110208D01*
X170440643Y-107110211D01*
X170411367Y-107152022D01*
X170312477Y-107293251D01*
X170310154Y-107298233D01*
X170310151Y-107298238D01*
X170272823Y-107378290D01*
X170215716Y-107500757D01*
X170214294Y-107506065D01*
X170214293Y-107506067D01*
X170157881Y-107716598D01*
X170156457Y-107721913D01*
X170136502Y-107950000D01*
X167013500Y-107950000D01*
X167013500Y-104694500D01*
X167033502Y-104626379D01*
X167087158Y-104579886D01*
X167139500Y-104568500D01*
X167228134Y-104568500D01*
X167290316Y-104561745D01*
X167426705Y-104510615D01*
X167543261Y-104423261D01*
X167630615Y-104306705D01*
X167681745Y-104170316D01*
X167682917Y-104159526D01*
X167683803Y-104157394D01*
X167684425Y-104154778D01*
X167684848Y-104154879D01*
X167710155Y-104093965D01*
X167768517Y-104053537D01*
X167839471Y-104051078D01*
X167900490Y-104087371D01*
X167907489Y-104096031D01*
X167910643Y-104099789D01*
X167913802Y-104104300D01*
X168075700Y-104266198D01*
X168080208Y-104269355D01*
X168080211Y-104269357D01*
X168096938Y-104281069D01*
X168263251Y-104397523D01*
X168268233Y-104399846D01*
X168268238Y-104399849D01*
X168464765Y-104491490D01*
X168470757Y-104494284D01*
X168476065Y-104495706D01*
X168476067Y-104495707D01*
X168686598Y-104552119D01*
X168686600Y-104552119D01*
X168691913Y-104553543D01*
X168920000Y-104573498D01*
X169148087Y-104553543D01*
X169153400Y-104552119D01*
X169153402Y-104552119D01*
X169363933Y-104495707D01*
X169363935Y-104495706D01*
X169369243Y-104494284D01*
X169375235Y-104491490D01*
X169571762Y-104399849D01*
X169571767Y-104399846D01*
X169576749Y-104397523D01*
X169743062Y-104281069D01*
X169759789Y-104269357D01*
X169759792Y-104269355D01*
X169764300Y-104266198D01*
X169926198Y-104104300D01*
X169936636Y-104089394D01*
X170054366Y-103921257D01*
X170057523Y-103916749D01*
X170059846Y-103911767D01*
X170059849Y-103911762D01*
X170075805Y-103877543D01*
X170122722Y-103824258D01*
X170190999Y-103804797D01*
X170258959Y-103825339D01*
X170304195Y-103877543D01*
X170320151Y-103911762D01*
X170320154Y-103911767D01*
X170322477Y-103916749D01*
X170325634Y-103921257D01*
X170443365Y-104089394D01*
X170453802Y-104104300D01*
X170615700Y-104266198D01*
X170620208Y-104269355D01*
X170620211Y-104269357D01*
X170636938Y-104281069D01*
X170803251Y-104397523D01*
X170808233Y-104399846D01*
X170808238Y-104399849D01*
X171004765Y-104491490D01*
X171010757Y-104494284D01*
X171016065Y-104495706D01*
X171016067Y-104495707D01*
X171226598Y-104552119D01*
X171226600Y-104552119D01*
X171231913Y-104553543D01*
X171460000Y-104573498D01*
X171688087Y-104553543D01*
X171693400Y-104552119D01*
X171693402Y-104552119D01*
X171903933Y-104495707D01*
X171903935Y-104495706D01*
X171909243Y-104494284D01*
X171915235Y-104491490D01*
X172111762Y-104399849D01*
X172111767Y-104399846D01*
X172116749Y-104397523D01*
X172283062Y-104281069D01*
X172299789Y-104269357D01*
X172299792Y-104269355D01*
X172304300Y-104266198D01*
X172466198Y-104104300D01*
X172476636Y-104089394D01*
X172594366Y-103921257D01*
X172597523Y-103916749D01*
X172599846Y-103911767D01*
X172599849Y-103911762D01*
X172616081Y-103876951D01*
X172662998Y-103823666D01*
X172731275Y-103804205D01*
X172799235Y-103824747D01*
X172844471Y-103876951D01*
X172860586Y-103911511D01*
X172866069Y-103921007D01*
X172991028Y-104099467D01*
X172998084Y-104107875D01*
X173152125Y-104261916D01*
X173160533Y-104268972D01*
X173338993Y-104393931D01*
X173348489Y-104399414D01*
X173545947Y-104491490D01*
X173556239Y-104495236D01*
X173728503Y-104541394D01*
X173742599Y-104541058D01*
X173746000Y-104533116D01*
X173746000Y-104527967D01*
X174254000Y-104527967D01*
X174257973Y-104541498D01*
X174266522Y-104542727D01*
X174443761Y-104495236D01*
X174454053Y-104491490D01*
X174651511Y-104399414D01*
X174661007Y-104393931D01*
X174839467Y-104268972D01*
X174847875Y-104261916D01*
X175001916Y-104107875D01*
X175008972Y-104099467D01*
X175133931Y-103921007D01*
X175139414Y-103911511D01*
X175231490Y-103714053D01*
X175235236Y-103703761D01*
X175291625Y-103493312D01*
X175293528Y-103482519D01*
X175307762Y-103319830D01*
X175308000Y-103314365D01*
X175308000Y-103136522D01*
X176517273Y-103136522D01*
X176564764Y-103313761D01*
X176568510Y-103324053D01*
X176660586Y-103521511D01*
X176666069Y-103531007D01*
X176791028Y-103709467D01*
X176798084Y-103717875D01*
X176952125Y-103871916D01*
X176960533Y-103878972D01*
X177138993Y-104003931D01*
X177148489Y-104009414D01*
X177345947Y-104101490D01*
X177356239Y-104105236D01*
X177528503Y-104151394D01*
X177542599Y-104151058D01*
X177546000Y-104143116D01*
X177546000Y-104137967D01*
X178054000Y-104137967D01*
X178057973Y-104151498D01*
X178066522Y-104152727D01*
X178243761Y-104105236D01*
X178254053Y-104101490D01*
X178451511Y-104009414D01*
X178461007Y-104003931D01*
X178639467Y-103878972D01*
X178647875Y-103871916D01*
X178801916Y-103717875D01*
X178808972Y-103709467D01*
X178933931Y-103531007D01*
X178939414Y-103521511D01*
X179031490Y-103324053D01*
X179035236Y-103313761D01*
X179081394Y-103141497D01*
X179081058Y-103127401D01*
X179073116Y-103124000D01*
X178072115Y-103124000D01*
X178056876Y-103128475D01*
X178055671Y-103129865D01*
X178054000Y-103137548D01*
X178054000Y-104137967D01*
X177546000Y-104137967D01*
X177546000Y-103142115D01*
X177541525Y-103126876D01*
X177540135Y-103125671D01*
X177532452Y-103124000D01*
X176532033Y-103124000D01*
X176518502Y-103127973D01*
X176517273Y-103136522D01*
X175308000Y-103136522D01*
X175308000Y-103132115D01*
X175303525Y-103116876D01*
X175302135Y-103115671D01*
X175294452Y-103114000D01*
X174272115Y-103114000D01*
X174256876Y-103118475D01*
X174255671Y-103119865D01*
X174254000Y-103127548D01*
X174254000Y-104527967D01*
X173746000Y-104527967D01*
X173746000Y-102587885D01*
X174254000Y-102587885D01*
X174258475Y-102603124D01*
X174259865Y-102604329D01*
X174267548Y-102606000D01*
X175289885Y-102606000D01*
X175305124Y-102601525D01*
X175306329Y-102600135D01*
X175306684Y-102598503D01*
X176518606Y-102598503D01*
X176518942Y-102612599D01*
X176526884Y-102616000D01*
X177527885Y-102616000D01*
X177543124Y-102611525D01*
X177544329Y-102610135D01*
X177546000Y-102602452D01*
X177546000Y-102597885D01*
X178054000Y-102597885D01*
X178058475Y-102613124D01*
X178059865Y-102614329D01*
X178067548Y-102616000D01*
X179067967Y-102616000D01*
X179081498Y-102612027D01*
X179082727Y-102603478D01*
X179035236Y-102426239D01*
X179031490Y-102415947D01*
X178939414Y-102218489D01*
X178933931Y-102208993D01*
X178808972Y-102030533D01*
X178801916Y-102022125D01*
X178647875Y-101868084D01*
X178639467Y-101861028D01*
X178461007Y-101736069D01*
X178451511Y-101730586D01*
X178254053Y-101638510D01*
X178243761Y-101634764D01*
X178071497Y-101588606D01*
X178057401Y-101588942D01*
X178054000Y-101596884D01*
X178054000Y-102597885D01*
X177546000Y-102597885D01*
X177546000Y-101602033D01*
X177542027Y-101588502D01*
X177533478Y-101587273D01*
X177356239Y-101634764D01*
X177345947Y-101638510D01*
X177148489Y-101730586D01*
X177138993Y-101736069D01*
X176960533Y-101861028D01*
X176952125Y-101868084D01*
X176798084Y-102022125D01*
X176791028Y-102030533D01*
X176666069Y-102208993D01*
X176660586Y-102218489D01*
X176568510Y-102415947D01*
X176564764Y-102426239D01*
X176518606Y-102598503D01*
X175306684Y-102598503D01*
X175308000Y-102592452D01*
X175308000Y-102405635D01*
X175307762Y-102400170D01*
X175293528Y-102237481D01*
X175291625Y-102226688D01*
X175235236Y-102016239D01*
X175231490Y-102005947D01*
X175139414Y-101808489D01*
X175133931Y-101798993D01*
X175008972Y-101620533D01*
X175001916Y-101612125D01*
X174847875Y-101458084D01*
X174839467Y-101451028D01*
X174661007Y-101326069D01*
X174651511Y-101320586D01*
X174454053Y-101228510D01*
X174443761Y-101224764D01*
X174271497Y-101178606D01*
X174257401Y-101178942D01*
X174254000Y-101186884D01*
X174254000Y-102587885D01*
X173746000Y-102587885D01*
X173746000Y-101192033D01*
X173742027Y-101178502D01*
X173733478Y-101177273D01*
X173556239Y-101224764D01*
X173545947Y-101228510D01*
X173348489Y-101320586D01*
X173338993Y-101326069D01*
X173160533Y-101451028D01*
X173152125Y-101458084D01*
X172998084Y-101612125D01*
X172991028Y-101620533D01*
X172866069Y-101798993D01*
X172860586Y-101808489D01*
X172844471Y-101843049D01*
X172797554Y-101896334D01*
X172729277Y-101915795D01*
X172661317Y-101895253D01*
X172616081Y-101843049D01*
X172599849Y-101808238D01*
X172599846Y-101808233D01*
X172597523Y-101803251D01*
X172481840Y-101638039D01*
X172469357Y-101620211D01*
X172469355Y-101620208D01*
X172466198Y-101615700D01*
X172304300Y-101453802D01*
X172299792Y-101450645D01*
X172299789Y-101450643D01*
X172145750Y-101342784D01*
X172116749Y-101322477D01*
X172111767Y-101320154D01*
X172111762Y-101320151D01*
X171914225Y-101228039D01*
X171914224Y-101228039D01*
X171909243Y-101225716D01*
X171903935Y-101224294D01*
X171903933Y-101224293D01*
X171693402Y-101167881D01*
X171693400Y-101167881D01*
X171688087Y-101166457D01*
X171460000Y-101146502D01*
X171231913Y-101166457D01*
X171226600Y-101167881D01*
X171226598Y-101167881D01*
X171016067Y-101224293D01*
X171016065Y-101224294D01*
X171010757Y-101225716D01*
X171005776Y-101228039D01*
X171005775Y-101228039D01*
X170808238Y-101320151D01*
X170808233Y-101320154D01*
X170803251Y-101322477D01*
X170774250Y-101342784D01*
X170620211Y-101450643D01*
X170620208Y-101450645D01*
X170615700Y-101453802D01*
X170453802Y-101615700D01*
X170450645Y-101620208D01*
X170450643Y-101620211D01*
X170438160Y-101638039D01*
X170322477Y-101803251D01*
X170320154Y-101808233D01*
X170320151Y-101808238D01*
X170304195Y-101842457D01*
X170257278Y-101895742D01*
X170189001Y-101915203D01*
X170121041Y-101894661D01*
X170075805Y-101842457D01*
X170059849Y-101808238D01*
X170059846Y-101808233D01*
X170057523Y-101803251D01*
X169941840Y-101638039D01*
X169929357Y-101620211D01*
X169929355Y-101620208D01*
X169926198Y-101615700D01*
X169764300Y-101453802D01*
X169759792Y-101450645D01*
X169759789Y-101450643D01*
X169605750Y-101342784D01*
X169576749Y-101322477D01*
X169571767Y-101320154D01*
X169571762Y-101320151D01*
X169374225Y-101228039D01*
X169374224Y-101228039D01*
X169369243Y-101225716D01*
X169363935Y-101224294D01*
X169363933Y-101224293D01*
X169153402Y-101167881D01*
X169153400Y-101167881D01*
X169148087Y-101166457D01*
X168920000Y-101146502D01*
X168691913Y-101166457D01*
X168686600Y-101167881D01*
X168686598Y-101167881D01*
X168476067Y-101224293D01*
X168476065Y-101224294D01*
X168470757Y-101225716D01*
X168465776Y-101228039D01*
X168465775Y-101228039D01*
X168268238Y-101320151D01*
X168268233Y-101320154D01*
X168263251Y-101322477D01*
X168234250Y-101342784D01*
X168080211Y-101450643D01*
X168080208Y-101450645D01*
X168075700Y-101453802D01*
X167913802Y-101615700D01*
X167910643Y-101620211D01*
X167907108Y-101624424D01*
X167905974Y-101623473D01*
X167855929Y-101663471D01*
X167785310Y-101670776D01*
X167721951Y-101638742D01*
X167685970Y-101577538D01*
X167682918Y-101560483D01*
X167681745Y-101549684D01*
X167630615Y-101413295D01*
X167543261Y-101296739D01*
X167426705Y-101209385D01*
X167290316Y-101158255D01*
X167228134Y-101151500D01*
X165531866Y-101151500D01*
X165469684Y-101158255D01*
X165333295Y-101209385D01*
X165216739Y-101296739D01*
X165129385Y-101413295D01*
X165078255Y-101549684D01*
X165071500Y-101611866D01*
X165071500Y-104108134D01*
X165078255Y-104170316D01*
X165129385Y-104306705D01*
X165216739Y-104423261D01*
X165333295Y-104510615D01*
X165469684Y-104561745D01*
X165531866Y-104568500D01*
X165620500Y-104568500D01*
X165688621Y-104588502D01*
X165735114Y-104642158D01*
X165746500Y-104694500D01*
X165746500Y-111056233D01*
X165745973Y-111067416D01*
X165744298Y-111074909D01*
X165744547Y-111082835D01*
X165744547Y-111082836D01*
X165746438Y-111142986D01*
X165746500Y-111146945D01*
X165746500Y-111174856D01*
X165746997Y-111178790D01*
X165746997Y-111178791D01*
X165747005Y-111178856D01*
X165747938Y-111190693D01*
X165749327Y-111234889D01*
X165754978Y-111254339D01*
X165758987Y-111273700D01*
X165761526Y-111293797D01*
X165764445Y-111301168D01*
X165764445Y-111301170D01*
X165777804Y-111334912D01*
X165781649Y-111346142D01*
X165793982Y-111388593D01*
X165798015Y-111395412D01*
X165798017Y-111395417D01*
X165804293Y-111406028D01*
X165812988Y-111423776D01*
X165820448Y-111442617D01*
X165825110Y-111449033D01*
X165825110Y-111449034D01*
X165846436Y-111478387D01*
X165852952Y-111488307D01*
X165875458Y-111526362D01*
X165889779Y-111540683D01*
X165902619Y-111555716D01*
X165914528Y-111572107D01*
X165920634Y-111577158D01*
X165948605Y-111600298D01*
X165957384Y-111608288D01*
X169676343Y-115327247D01*
X169683887Y-115335537D01*
X169688000Y-115342018D01*
X169693777Y-115347443D01*
X169737667Y-115388658D01*
X169740509Y-115391413D01*
X169760231Y-115411135D01*
X169763355Y-115413558D01*
X169763359Y-115413562D01*
X169763424Y-115413612D01*
X169772445Y-115421317D01*
X169804679Y-115451586D01*
X169811627Y-115455405D01*
X169811629Y-115455407D01*
X169822432Y-115461346D01*
X169838959Y-115472202D01*
X169848698Y-115479757D01*
X169848700Y-115479758D01*
X169854960Y-115484614D01*
X169895540Y-115502174D01*
X169906188Y-115507391D01*
X169944940Y-115528695D01*
X169952616Y-115530666D01*
X169952619Y-115530667D01*
X169964562Y-115533733D01*
X169983267Y-115540137D01*
X170001855Y-115548181D01*
X170009678Y-115549420D01*
X170009688Y-115549423D01*
X170045524Y-115555099D01*
X170057144Y-115557505D01*
X170092289Y-115566528D01*
X170099970Y-115568500D01*
X170120224Y-115568500D01*
X170139934Y-115570051D01*
X170159943Y-115573220D01*
X170167835Y-115572474D01*
X170203961Y-115569059D01*
X170215819Y-115568500D01*
X170738721Y-115568500D01*
X170806842Y-115588502D01*
X170853335Y-115642158D01*
X170863439Y-115712432D01*
X170833945Y-115777012D01*
X170810991Y-115797713D01*
X170722235Y-115859860D01*
X170722229Y-115859865D01*
X170717719Y-115863023D01*
X170560523Y-116020219D01*
X170557366Y-116024727D01*
X170557364Y-116024730D01*
X170436169Y-116197815D01*
X170433012Y-116202324D01*
X170430689Y-116207306D01*
X170430686Y-116207311D01*
X170381695Y-116312373D01*
X170334777Y-116365658D01*
X170266500Y-116385119D01*
X170198540Y-116364577D01*
X170153305Y-116312373D01*
X170104314Y-116207311D01*
X170104311Y-116207306D01*
X170101988Y-116202324D01*
X170098831Y-116197815D01*
X169977636Y-116024730D01*
X169977634Y-116024727D01*
X169974477Y-116020219D01*
X169817281Y-115863023D01*
X169812773Y-115859866D01*
X169812770Y-115859864D01*
X169724009Y-115797713D01*
X169635177Y-115735512D01*
X169630195Y-115733189D01*
X169630190Y-115733186D01*
X169438678Y-115643883D01*
X169438677Y-115643882D01*
X169433696Y-115641560D01*
X169428388Y-115640138D01*
X169428386Y-115640137D01*
X169307479Y-115607740D01*
X169218963Y-115584022D01*
X168997500Y-115564647D01*
X168776037Y-115584022D01*
X168687521Y-115607740D01*
X168566614Y-115640137D01*
X168566612Y-115640138D01*
X168561304Y-115641560D01*
X168556323Y-115643882D01*
X168556322Y-115643883D01*
X168364811Y-115733186D01*
X168364806Y-115733189D01*
X168359824Y-115735512D01*
X168355317Y-115738668D01*
X168355315Y-115738669D01*
X168182230Y-115859864D01*
X168182227Y-115859866D01*
X168177719Y-115863023D01*
X168020523Y-116020219D01*
X168017366Y-116024727D01*
X168017364Y-116024730D01*
X167896169Y-116197815D01*
X167893012Y-116202324D01*
X167890689Y-116207306D01*
X167890686Y-116207311D01*
X167841695Y-116312373D01*
X167794777Y-116365658D01*
X167726500Y-116385119D01*
X167658540Y-116364577D01*
X167613305Y-116312373D01*
X167564314Y-116207311D01*
X167564311Y-116207306D01*
X167561988Y-116202324D01*
X167558831Y-116197815D01*
X167437636Y-116024730D01*
X167437634Y-116024727D01*
X167434477Y-116020219D01*
X167277281Y-115863023D01*
X167272773Y-115859866D01*
X167272770Y-115859864D01*
X167184009Y-115797713D01*
X167095177Y-115735512D01*
X167090195Y-115733189D01*
X167090190Y-115733186D01*
X166898678Y-115643883D01*
X166898677Y-115643882D01*
X166893696Y-115641560D01*
X166888388Y-115640138D01*
X166888386Y-115640137D01*
X166767479Y-115607740D01*
X166678963Y-115584022D01*
X166457500Y-115564647D01*
X166236037Y-115584022D01*
X166147521Y-115607740D01*
X166026614Y-115640137D01*
X166026612Y-115640138D01*
X166021304Y-115641560D01*
X166016323Y-115643882D01*
X166016322Y-115643883D01*
X165824811Y-115733186D01*
X165824806Y-115733189D01*
X165819824Y-115735512D01*
X165815317Y-115738668D01*
X165815315Y-115738669D01*
X165642230Y-115859864D01*
X165642227Y-115859866D01*
X165637719Y-115863023D01*
X165480523Y-116020219D01*
X165477366Y-116024727D01*
X165477364Y-116024730D01*
X165356169Y-116197815D01*
X165353012Y-116202324D01*
X165350689Y-116207306D01*
X165350686Y-116207311D01*
X165301695Y-116312373D01*
X165254777Y-116365658D01*
X165186500Y-116385119D01*
X165118540Y-116364577D01*
X165073305Y-116312373D01*
X165024314Y-116207311D01*
X165024311Y-116207306D01*
X165021988Y-116202324D01*
X165018831Y-116197815D01*
X164897636Y-116024730D01*
X164897634Y-116024727D01*
X164894477Y-116020219D01*
X164737281Y-115863023D01*
X164732773Y-115859866D01*
X164732770Y-115859864D01*
X164644009Y-115797713D01*
X164555177Y-115735512D01*
X164550195Y-115733189D01*
X164550190Y-115733186D01*
X164358678Y-115643883D01*
X164358677Y-115643882D01*
X164353696Y-115641560D01*
X164348388Y-115640138D01*
X164348386Y-115640137D01*
X164227479Y-115607740D01*
X164138963Y-115584022D01*
X163917500Y-115564647D01*
X163696037Y-115584022D01*
X163607521Y-115607740D01*
X163486614Y-115640137D01*
X163486612Y-115640138D01*
X163481304Y-115641560D01*
X163476323Y-115643882D01*
X163476322Y-115643883D01*
X163284811Y-115733186D01*
X163284806Y-115733189D01*
X163279824Y-115735512D01*
X163275317Y-115738668D01*
X163275315Y-115738669D01*
X163102230Y-115859864D01*
X163102227Y-115859866D01*
X163097719Y-115863023D01*
X162940523Y-116020219D01*
X162937366Y-116024727D01*
X162937364Y-116024730D01*
X162816169Y-116197815D01*
X162813012Y-116202324D01*
X162810689Y-116207306D01*
X162810686Y-116207311D01*
X162761419Y-116312965D01*
X162714501Y-116366250D01*
X162646224Y-116385711D01*
X162578264Y-116365169D01*
X162533029Y-116312965D01*
X162483877Y-116207559D01*
X162478397Y-116198068D01*
X162447706Y-116154235D01*
X162437229Y-116145860D01*
X162423782Y-116152928D01*
X161749522Y-116827188D01*
X161741908Y-116841132D01*
X161075194Y-116841132D01*
X161078424Y-116795968D01*
X161107385Y-116750905D01*
X162065293Y-115792997D01*
X162071723Y-115781223D01*
X162062426Y-115769207D01*
X162019431Y-115739102D01*
X162009945Y-115733624D01*
X161818507Y-115644355D01*
X161808215Y-115640609D01*
X161604191Y-115585941D01*
X161593396Y-115584038D01*
X161382975Y-115565628D01*
X161372025Y-115565628D01*
X161161604Y-115584038D01*
X161150809Y-115585941D01*
X160946785Y-115640609D01*
X160936493Y-115644355D01*
X160745056Y-115733624D01*
X160735577Y-115739097D01*
X160706770Y-115759268D01*
X160639496Y-115781955D01*
X160570635Y-115764669D01*
X160522052Y-115712899D01*
X160508500Y-115656054D01*
X160508500Y-115183453D01*
X160528502Y-115115332D01*
X160582158Y-115068839D01*
X160634645Y-115057453D01*
X161576350Y-115058535D01*
X164592000Y-115062000D01*
X164592000Y-95697127D01*
X165071500Y-95697127D01*
X165071738Y-95699844D01*
X165071738Y-95699851D01*
X165077746Y-95768520D01*
X165086457Y-95868087D01*
X165087881Y-95873400D01*
X165087881Y-95873402D01*
X165143325Y-96080318D01*
X165145716Y-96089243D01*
X165148039Y-96094224D01*
X165148039Y-96094225D01*
X165240151Y-96291762D01*
X165240154Y-96291767D01*
X165242477Y-96296749D01*
X165267505Y-96332492D01*
X165361172Y-96466262D01*
X165373802Y-96484300D01*
X165535700Y-96646198D01*
X165540208Y-96649355D01*
X165540211Y-96649357D01*
X165618389Y-96704098D01*
X165723251Y-96777523D01*
X165728233Y-96779846D01*
X165728238Y-96779849D01*
X165925775Y-96871961D01*
X165930757Y-96874284D01*
X165936065Y-96875706D01*
X165936067Y-96875707D01*
X166146598Y-96932119D01*
X166146600Y-96932119D01*
X166151913Y-96933543D01*
X166380000Y-96953498D01*
X166608087Y-96933543D01*
X166613400Y-96932119D01*
X166613402Y-96932119D01*
X166823933Y-96875707D01*
X166823935Y-96875706D01*
X166829243Y-96874284D01*
X166834225Y-96871961D01*
X167031762Y-96779849D01*
X167031767Y-96779846D01*
X167036749Y-96777523D01*
X167141611Y-96704098D01*
X167219789Y-96649357D01*
X167219792Y-96649355D01*
X167224300Y-96646198D01*
X167386198Y-96484300D01*
X167398829Y-96466262D01*
X167492495Y-96332492D01*
X167517523Y-96296749D01*
X167519846Y-96291767D01*
X167519849Y-96291762D01*
X167535805Y-96257543D01*
X167582722Y-96204258D01*
X167650999Y-96184797D01*
X167718959Y-96205339D01*
X167764195Y-96257543D01*
X167780151Y-96291762D01*
X167780154Y-96291767D01*
X167782477Y-96296749D01*
X167807505Y-96332492D01*
X167901172Y-96466262D01*
X167913802Y-96484300D01*
X168075700Y-96646198D01*
X168080208Y-96649355D01*
X168080211Y-96649357D01*
X168158389Y-96704098D01*
X168263251Y-96777523D01*
X168268233Y-96779846D01*
X168268238Y-96779849D01*
X168465775Y-96871961D01*
X168470757Y-96874284D01*
X168476065Y-96875706D01*
X168476067Y-96875707D01*
X168686598Y-96932119D01*
X168686600Y-96932119D01*
X168691913Y-96933543D01*
X168920000Y-96953498D01*
X169148087Y-96933543D01*
X169153400Y-96932119D01*
X169153402Y-96932119D01*
X169363933Y-96875707D01*
X169363935Y-96875706D01*
X169369243Y-96874284D01*
X169374225Y-96871961D01*
X169571762Y-96779849D01*
X169571767Y-96779846D01*
X169576749Y-96777523D01*
X169681611Y-96704098D01*
X169759789Y-96649357D01*
X169759792Y-96649355D01*
X169764300Y-96646198D01*
X169926198Y-96484300D01*
X169938829Y-96466262D01*
X170032495Y-96332492D01*
X170057523Y-96296749D01*
X170059846Y-96291767D01*
X170059849Y-96291762D01*
X170075805Y-96257543D01*
X170122722Y-96204258D01*
X170190999Y-96184797D01*
X170258959Y-96205339D01*
X170304195Y-96257543D01*
X170320151Y-96291762D01*
X170320154Y-96291767D01*
X170322477Y-96296749D01*
X170347505Y-96332492D01*
X170441172Y-96466262D01*
X170453802Y-96484300D01*
X170615700Y-96646198D01*
X170620208Y-96649355D01*
X170620211Y-96649357D01*
X170698389Y-96704098D01*
X170803251Y-96777523D01*
X170808233Y-96779846D01*
X170808238Y-96779849D01*
X171005775Y-96871961D01*
X171010757Y-96874284D01*
X171016065Y-96875706D01*
X171016067Y-96875707D01*
X171226598Y-96932119D01*
X171226600Y-96932119D01*
X171231913Y-96933543D01*
X171460000Y-96953498D01*
X171688087Y-96933543D01*
X171693400Y-96932119D01*
X171693402Y-96932119D01*
X171903933Y-96875707D01*
X171903935Y-96875706D01*
X171909243Y-96874284D01*
X171914225Y-96871961D01*
X172111762Y-96779849D01*
X172111767Y-96779846D01*
X172116749Y-96777523D01*
X172221611Y-96704098D01*
X172299789Y-96649357D01*
X172299792Y-96649355D01*
X172304300Y-96646198D01*
X172466198Y-96484300D01*
X172478829Y-96466262D01*
X172572495Y-96332492D01*
X172597523Y-96296749D01*
X172599846Y-96291767D01*
X172599849Y-96291762D01*
X172615805Y-96257543D01*
X172662722Y-96204258D01*
X172730999Y-96184797D01*
X172798959Y-96205339D01*
X172844195Y-96257543D01*
X172860151Y-96291762D01*
X172860154Y-96291767D01*
X172862477Y-96296749D01*
X172887505Y-96332492D01*
X172981172Y-96466262D01*
X172993802Y-96484300D01*
X173155700Y-96646198D01*
X173160208Y-96649355D01*
X173160211Y-96649357D01*
X173238389Y-96704098D01*
X173343251Y-96777523D01*
X173348233Y-96779846D01*
X173348238Y-96779849D01*
X173545775Y-96871961D01*
X173550757Y-96874284D01*
X173556065Y-96875706D01*
X173556067Y-96875707D01*
X173766598Y-96932119D01*
X173766600Y-96932119D01*
X173771913Y-96933543D01*
X174000000Y-96953498D01*
X174228087Y-96933543D01*
X174233400Y-96932119D01*
X174233402Y-96932119D01*
X174443933Y-96875707D01*
X174443935Y-96875706D01*
X174449243Y-96874284D01*
X174454225Y-96871961D01*
X174651762Y-96779849D01*
X174651767Y-96779846D01*
X174656749Y-96777523D01*
X174761611Y-96704098D01*
X174839789Y-96649357D01*
X174839792Y-96649355D01*
X174844300Y-96646198D01*
X175006198Y-96484300D01*
X175018829Y-96466262D01*
X175112495Y-96332492D01*
X175137523Y-96296749D01*
X175139846Y-96291767D01*
X175139849Y-96291762D01*
X175231961Y-96094225D01*
X175231961Y-96094224D01*
X175234284Y-96089243D01*
X175236676Y-96080318D01*
X175292119Y-95873402D01*
X175292119Y-95873400D01*
X175293543Y-95868087D01*
X175302254Y-95768520D01*
X175308262Y-95699851D01*
X175308262Y-95699844D01*
X175308500Y-95697127D01*
X175308500Y-95250000D01*
X175724502Y-95250000D01*
X175744457Y-95478087D01*
X175745881Y-95483400D01*
X175745881Y-95483402D01*
X175755031Y-95517548D01*
X175803716Y-95699243D01*
X175806039Y-95704224D01*
X175806039Y-95704225D01*
X175898151Y-95901762D01*
X175898154Y-95901767D01*
X175900477Y-95906749D01*
X175950310Y-95977917D01*
X176022012Y-96080318D01*
X176031802Y-96094300D01*
X176193700Y-96256198D01*
X176198208Y-96259355D01*
X176198211Y-96259357D01*
X176251613Y-96296749D01*
X176381251Y-96387523D01*
X176386233Y-96389846D01*
X176386238Y-96389849D01*
X176545238Y-96463991D01*
X176588757Y-96484284D01*
X176594065Y-96485706D01*
X176594067Y-96485707D01*
X176804598Y-96542119D01*
X176804600Y-96542119D01*
X176809913Y-96543543D01*
X177038000Y-96563498D01*
X177266087Y-96543543D01*
X177271400Y-96542119D01*
X177271402Y-96542119D01*
X177481933Y-96485707D01*
X177481935Y-96485706D01*
X177487243Y-96484284D01*
X177530762Y-96463991D01*
X177689762Y-96389849D01*
X177689767Y-96389846D01*
X177694749Y-96387523D01*
X177824387Y-96296749D01*
X177877789Y-96259357D01*
X177877792Y-96259355D01*
X177882300Y-96256198D01*
X178044198Y-96094300D01*
X178053989Y-96080318D01*
X178125690Y-95977917D01*
X178175523Y-95906749D01*
X178177846Y-95901767D01*
X178177849Y-95901762D01*
X178269961Y-95704225D01*
X178269961Y-95704224D01*
X178272284Y-95699243D01*
X178320970Y-95517548D01*
X178330119Y-95483402D01*
X178330119Y-95483400D01*
X178331543Y-95478087D01*
X178351498Y-95250000D01*
X185884502Y-95250000D01*
X185904457Y-95478087D01*
X185905881Y-95483400D01*
X185905881Y-95483402D01*
X185915031Y-95517548D01*
X185963716Y-95699243D01*
X185966039Y-95704224D01*
X185966039Y-95704225D01*
X186058151Y-95901762D01*
X186058154Y-95901767D01*
X186060477Y-95906749D01*
X186110310Y-95977917D01*
X186182012Y-96080318D01*
X186191802Y-96094300D01*
X186353700Y-96256198D01*
X186358208Y-96259355D01*
X186358211Y-96259357D01*
X186411613Y-96296749D01*
X186541251Y-96387523D01*
X186546233Y-96389846D01*
X186546238Y-96389849D01*
X186705238Y-96463991D01*
X186748757Y-96484284D01*
X186754065Y-96485706D01*
X186754067Y-96485707D01*
X186964598Y-96542119D01*
X186964600Y-96542119D01*
X186969913Y-96543543D01*
X187198000Y-96563498D01*
X187426087Y-96543543D01*
X187431400Y-96542119D01*
X187431402Y-96542119D01*
X187641933Y-96485707D01*
X187641935Y-96485706D01*
X187647243Y-96484284D01*
X187690762Y-96463991D01*
X187849762Y-96389849D01*
X187849767Y-96389846D01*
X187854749Y-96387523D01*
X187984387Y-96296749D01*
X188037789Y-96259357D01*
X188037792Y-96259355D01*
X188042300Y-96256198D01*
X188204198Y-96094300D01*
X188213989Y-96080318D01*
X188285690Y-95977917D01*
X188309508Y-95943902D01*
X188364964Y-95899575D01*
X188435583Y-95892266D01*
X188498944Y-95924297D01*
X188520153Y-95950339D01*
X188602501Y-96084719D01*
X188754147Y-96259784D01*
X188932349Y-96407730D01*
X189132322Y-96524584D01*
X189348694Y-96607209D01*
X189353760Y-96608240D01*
X189353761Y-96608240D01*
X189406846Y-96619040D01*
X189575656Y-96653385D01*
X189706324Y-96658176D01*
X189801949Y-96661683D01*
X189801953Y-96661683D01*
X189807113Y-96661872D01*
X189812233Y-96661216D01*
X189812235Y-96661216D01*
X189885270Y-96651860D01*
X190036847Y-96632442D01*
X190041795Y-96630957D01*
X190041802Y-96630956D01*
X190253747Y-96567369D01*
X190258690Y-96565886D01*
X190263565Y-96563498D01*
X190462049Y-96466262D01*
X190462052Y-96466260D01*
X190466684Y-96463991D01*
X190655243Y-96329494D01*
X190658898Y-96325852D01*
X190658906Y-96325845D01*
X190700697Y-96284199D01*
X190763068Y-96250282D01*
X190833875Y-96255470D01*
X190890637Y-96298116D01*
X190907619Y-96329218D01*
X190929677Y-96388056D01*
X190938214Y-96403649D01*
X191014715Y-96505724D01*
X191027276Y-96518285D01*
X191129351Y-96594786D01*
X191144946Y-96603324D01*
X191265394Y-96648478D01*
X191280649Y-96652105D01*
X191331514Y-96657631D01*
X191338328Y-96658000D01*
X192010885Y-96658000D01*
X192026124Y-96653525D01*
X192027329Y-96652135D01*
X192029000Y-96644452D01*
X192029000Y-96639884D01*
X192537000Y-96639884D01*
X192541475Y-96655123D01*
X192542865Y-96656328D01*
X192550548Y-96657999D01*
X193227669Y-96657999D01*
X193234490Y-96657629D01*
X193285352Y-96652105D01*
X193300604Y-96648479D01*
X193421054Y-96603324D01*
X193436649Y-96594786D01*
X193538724Y-96518285D01*
X193551285Y-96505724D01*
X193627786Y-96403649D01*
X193636324Y-96388054D01*
X193681478Y-96267606D01*
X193685105Y-96252351D01*
X193690631Y-96201486D01*
X193691000Y-96194672D01*
X193691000Y-95522115D01*
X193686525Y-95506876D01*
X193685135Y-95505671D01*
X193677452Y-95504000D01*
X192555115Y-95504000D01*
X192539876Y-95508475D01*
X192538671Y-95509865D01*
X192537000Y-95517548D01*
X192537000Y-96639884D01*
X192029000Y-96639884D01*
X192029000Y-94977885D01*
X192537000Y-94977885D01*
X192541475Y-94993124D01*
X192542865Y-94994329D01*
X192550548Y-94996000D01*
X193672884Y-94996000D01*
X193688123Y-94991525D01*
X193689328Y-94990135D01*
X193690999Y-94982452D01*
X193690999Y-94305331D01*
X193690629Y-94298510D01*
X193685105Y-94247648D01*
X193681479Y-94232396D01*
X193636324Y-94111946D01*
X193627786Y-94096351D01*
X193551285Y-93994276D01*
X193538724Y-93981715D01*
X193436649Y-93905214D01*
X193421054Y-93896676D01*
X193300606Y-93851522D01*
X193285351Y-93847895D01*
X193234486Y-93842369D01*
X193227672Y-93842000D01*
X192555115Y-93842000D01*
X192539876Y-93846475D01*
X192538671Y-93847865D01*
X192537000Y-93855548D01*
X192537000Y-94977885D01*
X192029000Y-94977885D01*
X192029000Y-93860116D01*
X192024525Y-93844877D01*
X192023135Y-93843672D01*
X192015452Y-93842001D01*
X191338331Y-93842001D01*
X191331510Y-93842371D01*
X191280648Y-93847895D01*
X191265396Y-93851521D01*
X191144946Y-93896676D01*
X191129351Y-93905214D01*
X191027276Y-93981715D01*
X191014715Y-93994276D01*
X190938214Y-94096351D01*
X190929675Y-94111948D01*
X190908934Y-94167275D01*
X190866293Y-94224040D01*
X190799731Y-94248740D01*
X190730383Y-94233533D01*
X190707388Y-94216909D01*
X190706887Y-94216358D01*
X190579348Y-94115634D01*
X190529177Y-94076011D01*
X190529172Y-94076008D01*
X190525123Y-94072810D01*
X190520607Y-94070317D01*
X190520604Y-94070315D01*
X190326879Y-93963373D01*
X190326875Y-93963371D01*
X190322355Y-93960876D01*
X190317486Y-93959152D01*
X190317482Y-93959150D01*
X190108903Y-93885288D01*
X190108899Y-93885287D01*
X190104028Y-93883562D01*
X190098935Y-93882655D01*
X190098932Y-93882654D01*
X189881095Y-93843851D01*
X189881089Y-93843850D01*
X189876006Y-93842945D01*
X189798644Y-93842000D01*
X189649581Y-93840179D01*
X189649579Y-93840179D01*
X189644411Y-93840116D01*
X189415464Y-93875150D01*
X189195314Y-93947106D01*
X189190726Y-93949494D01*
X189190722Y-93949496D01*
X188994461Y-94051663D01*
X188989872Y-94054052D01*
X188985739Y-94057155D01*
X188985736Y-94057157D01*
X188839073Y-94167275D01*
X188804655Y-94193117D01*
X188644639Y-94360564D01*
X188641725Y-94364836D01*
X188641724Y-94364837D01*
X188514433Y-94551438D01*
X188459522Y-94596441D01*
X188388997Y-94604612D01*
X188325250Y-94573358D01*
X188307132Y-94552705D01*
X188207357Y-94410211D01*
X188207355Y-94410208D01*
X188204198Y-94405700D01*
X188042300Y-94243802D01*
X188037792Y-94240645D01*
X188037789Y-94240643D01*
X187933008Y-94167275D01*
X187854749Y-94112477D01*
X187849767Y-94110154D01*
X187849762Y-94110151D01*
X187652225Y-94018039D01*
X187652224Y-94018039D01*
X187647243Y-94015716D01*
X187641935Y-94014294D01*
X187641933Y-94014293D01*
X187431402Y-93957881D01*
X187431400Y-93957881D01*
X187426087Y-93956457D01*
X187198000Y-93936502D01*
X186969913Y-93956457D01*
X186964600Y-93957881D01*
X186964598Y-93957881D01*
X186754067Y-94014293D01*
X186754065Y-94014294D01*
X186748757Y-94015716D01*
X186743776Y-94018039D01*
X186743775Y-94018039D01*
X186546238Y-94110151D01*
X186546233Y-94110154D01*
X186541251Y-94112477D01*
X186462992Y-94167275D01*
X186358211Y-94240643D01*
X186358208Y-94240645D01*
X186353700Y-94243802D01*
X186191802Y-94405700D01*
X186060477Y-94593251D01*
X186058154Y-94598233D01*
X186058151Y-94598238D01*
X185972055Y-94782873D01*
X185963716Y-94800757D01*
X185962294Y-94806065D01*
X185962293Y-94806067D01*
X185912972Y-94990135D01*
X185904457Y-95021913D01*
X185884502Y-95250000D01*
X178351498Y-95250000D01*
X178331543Y-95021913D01*
X178323028Y-94990135D01*
X178273707Y-94806067D01*
X178273706Y-94806065D01*
X178272284Y-94800757D01*
X178263945Y-94782873D01*
X178177849Y-94598238D01*
X178177846Y-94598233D01*
X178175523Y-94593251D01*
X178044198Y-94405700D01*
X177882300Y-94243802D01*
X177877792Y-94240645D01*
X177877789Y-94240643D01*
X177773008Y-94167275D01*
X177694749Y-94112477D01*
X177689767Y-94110154D01*
X177689762Y-94110151D01*
X177492225Y-94018039D01*
X177492224Y-94018039D01*
X177487243Y-94015716D01*
X177481935Y-94014294D01*
X177481933Y-94014293D01*
X177271402Y-93957881D01*
X177271400Y-93957881D01*
X177266087Y-93956457D01*
X177038000Y-93936502D01*
X176809913Y-93956457D01*
X176804600Y-93957881D01*
X176804598Y-93957881D01*
X176594067Y-94014293D01*
X176594065Y-94014294D01*
X176588757Y-94015716D01*
X176583776Y-94018039D01*
X176583775Y-94018039D01*
X176386238Y-94110151D01*
X176386233Y-94110154D01*
X176381251Y-94112477D01*
X176302992Y-94167275D01*
X176198211Y-94240643D01*
X176198208Y-94240645D01*
X176193700Y-94243802D01*
X176031802Y-94405700D01*
X175900477Y-94593251D01*
X175898154Y-94598233D01*
X175898151Y-94598238D01*
X175812055Y-94782873D01*
X175803716Y-94800757D01*
X175802294Y-94806065D01*
X175802293Y-94806067D01*
X175752972Y-94990135D01*
X175744457Y-95021913D01*
X175724502Y-95250000D01*
X175308500Y-95250000D01*
X175308500Y-94782873D01*
X175293543Y-94611913D01*
X175289397Y-94596441D01*
X175235707Y-94396067D01*
X175235706Y-94396065D01*
X175234284Y-94390757D01*
X175231961Y-94385775D01*
X175139849Y-94188238D01*
X175139846Y-94188233D01*
X175137523Y-94183251D01*
X175021840Y-94018039D01*
X175009357Y-94000211D01*
X175009355Y-94000208D01*
X175006198Y-93995700D01*
X174844300Y-93833802D01*
X174839792Y-93830645D01*
X174839789Y-93830643D01*
X174761611Y-93775902D01*
X174656749Y-93702477D01*
X174651767Y-93700154D01*
X174651762Y-93700151D01*
X174454225Y-93608039D01*
X174454224Y-93608039D01*
X174449243Y-93605716D01*
X174443935Y-93604294D01*
X174443933Y-93604293D01*
X174233402Y-93547881D01*
X174233400Y-93547881D01*
X174228087Y-93546457D01*
X174000000Y-93526502D01*
X173771913Y-93546457D01*
X173766600Y-93547881D01*
X173766598Y-93547881D01*
X173556067Y-93604293D01*
X173556065Y-93604294D01*
X173550757Y-93605716D01*
X173545776Y-93608039D01*
X173545775Y-93608039D01*
X173348238Y-93700151D01*
X173348233Y-93700154D01*
X173343251Y-93702477D01*
X173238389Y-93775902D01*
X173160211Y-93830643D01*
X173160208Y-93830645D01*
X173155700Y-93833802D01*
X172993802Y-93995700D01*
X172990645Y-94000208D01*
X172990643Y-94000211D01*
X172978160Y-94018039D01*
X172862477Y-94183251D01*
X172860154Y-94188233D01*
X172860151Y-94188238D01*
X172844195Y-94222457D01*
X172797278Y-94275742D01*
X172729001Y-94295203D01*
X172661041Y-94274661D01*
X172615805Y-94222457D01*
X172599849Y-94188238D01*
X172599846Y-94188233D01*
X172597523Y-94183251D01*
X172481840Y-94018039D01*
X172469357Y-94000211D01*
X172469355Y-94000208D01*
X172466198Y-93995700D01*
X172304300Y-93833802D01*
X172299792Y-93830645D01*
X172299789Y-93830643D01*
X172221611Y-93775902D01*
X172116749Y-93702477D01*
X172111767Y-93700154D01*
X172111762Y-93700151D01*
X171914225Y-93608039D01*
X171914224Y-93608039D01*
X171909243Y-93605716D01*
X171903935Y-93604294D01*
X171903933Y-93604293D01*
X171693402Y-93547881D01*
X171693400Y-93547881D01*
X171688087Y-93546457D01*
X171460000Y-93526502D01*
X171231913Y-93546457D01*
X171226600Y-93547881D01*
X171226598Y-93547881D01*
X171016067Y-93604293D01*
X171016065Y-93604294D01*
X171010757Y-93605716D01*
X171005776Y-93608039D01*
X171005775Y-93608039D01*
X170808238Y-93700151D01*
X170808233Y-93700154D01*
X170803251Y-93702477D01*
X170698389Y-93775902D01*
X170620211Y-93830643D01*
X170620208Y-93830645D01*
X170615700Y-93833802D01*
X170453802Y-93995700D01*
X170450645Y-94000208D01*
X170450643Y-94000211D01*
X170438160Y-94018039D01*
X170322477Y-94183251D01*
X170320154Y-94188233D01*
X170320151Y-94188238D01*
X170304195Y-94222457D01*
X170257278Y-94275742D01*
X170189001Y-94295203D01*
X170121041Y-94274661D01*
X170075805Y-94222457D01*
X170059849Y-94188238D01*
X170059846Y-94188233D01*
X170057523Y-94183251D01*
X169941840Y-94018039D01*
X169929357Y-94000211D01*
X169929355Y-94000208D01*
X169926198Y-93995700D01*
X169764300Y-93833802D01*
X169759792Y-93830645D01*
X169759789Y-93830643D01*
X169681611Y-93775902D01*
X169576749Y-93702477D01*
X169571767Y-93700154D01*
X169571762Y-93700151D01*
X169374225Y-93608039D01*
X169374224Y-93608039D01*
X169369243Y-93605716D01*
X169363935Y-93604294D01*
X169363933Y-93604293D01*
X169153402Y-93547881D01*
X169153400Y-93547881D01*
X169148087Y-93546457D01*
X168920000Y-93526502D01*
X168691913Y-93546457D01*
X168686600Y-93547881D01*
X168686598Y-93547881D01*
X168476067Y-93604293D01*
X168476065Y-93604294D01*
X168470757Y-93605716D01*
X168465776Y-93608039D01*
X168465775Y-93608039D01*
X168268238Y-93700151D01*
X168268233Y-93700154D01*
X168263251Y-93702477D01*
X168158389Y-93775902D01*
X168080211Y-93830643D01*
X168080208Y-93830645D01*
X168075700Y-93833802D01*
X167913802Y-93995700D01*
X167910645Y-94000208D01*
X167910643Y-94000211D01*
X167898160Y-94018039D01*
X167782477Y-94183251D01*
X167780154Y-94188233D01*
X167780151Y-94188238D01*
X167764195Y-94222457D01*
X167717278Y-94275742D01*
X167649001Y-94295203D01*
X167581041Y-94274661D01*
X167535805Y-94222457D01*
X167519849Y-94188238D01*
X167519846Y-94188233D01*
X167517523Y-94183251D01*
X167401840Y-94018039D01*
X167389357Y-94000211D01*
X167389355Y-94000208D01*
X167386198Y-93995700D01*
X167224300Y-93833802D01*
X167219792Y-93830645D01*
X167219789Y-93830643D01*
X167141611Y-93775902D01*
X167036749Y-93702477D01*
X167031767Y-93700154D01*
X167031762Y-93700151D01*
X166834225Y-93608039D01*
X166834224Y-93608039D01*
X166829243Y-93605716D01*
X166823935Y-93604294D01*
X166823933Y-93604293D01*
X166613402Y-93547881D01*
X166613400Y-93547881D01*
X166608087Y-93546457D01*
X166380000Y-93526502D01*
X166151913Y-93546457D01*
X166146600Y-93547881D01*
X166146598Y-93547881D01*
X165936067Y-93604293D01*
X165936065Y-93604294D01*
X165930757Y-93605716D01*
X165925776Y-93608039D01*
X165925775Y-93608039D01*
X165728238Y-93700151D01*
X165728233Y-93700154D01*
X165723251Y-93702477D01*
X165618389Y-93775902D01*
X165540211Y-93830643D01*
X165540208Y-93830645D01*
X165535700Y-93833802D01*
X165373802Y-93995700D01*
X165370645Y-94000208D01*
X165370643Y-94000211D01*
X165358160Y-94018039D01*
X165242477Y-94183251D01*
X165240154Y-94188233D01*
X165240151Y-94188238D01*
X165148039Y-94385775D01*
X165145716Y-94390757D01*
X165144294Y-94396065D01*
X165144293Y-94396067D01*
X165090603Y-94596441D01*
X165086457Y-94611913D01*
X165071500Y-94782873D01*
X165071500Y-95697127D01*
X164592000Y-95697127D01*
X164592000Y-92964000D01*
X164310402Y-92963659D01*
X163969782Y-92963247D01*
X163914501Y-92946942D01*
X163888423Y-92960649D01*
X163863446Y-92963119D01*
X162650905Y-92961652D01*
X161464419Y-92960217D01*
X161396322Y-92940132D01*
X161378492Y-92919505D01*
X161375659Y-92924502D01*
X161312814Y-92957534D01*
X161287839Y-92960004D01*
X160863435Y-92959490D01*
X160634347Y-92959213D01*
X160566251Y-92939128D01*
X160519823Y-92885417D01*
X160508500Y-92833213D01*
X160508500Y-92624558D01*
X160528502Y-92556437D01*
X160582158Y-92509944D01*
X160652432Y-92499840D01*
X160706770Y-92521344D01*
X160739823Y-92544488D01*
X160744805Y-92546811D01*
X160744810Y-92546814D01*
X160911534Y-92624558D01*
X160941304Y-92638440D01*
X160946612Y-92639862D01*
X160946614Y-92639863D01*
X161012449Y-92657503D01*
X161156037Y-92695978D01*
X161233568Y-92702761D01*
X161298970Y-92708483D01*
X161365088Y-92734347D01*
X161374997Y-92748031D01*
X161429219Y-92713278D01*
X161453588Y-92708696D01*
X161598963Y-92695978D01*
X161742551Y-92657503D01*
X161808386Y-92639863D01*
X161808388Y-92639862D01*
X161813696Y-92638440D01*
X161843466Y-92624558D01*
X162010190Y-92546814D01*
X162010195Y-92546811D01*
X162015177Y-92544488D01*
X162117005Y-92473187D01*
X162192770Y-92420136D01*
X162192773Y-92420134D01*
X162197281Y-92416977D01*
X162354477Y-92259781D01*
X162442394Y-92134223D01*
X162478831Y-92082185D01*
X162478832Y-92082183D01*
X162481988Y-92077676D01*
X162484311Y-92072694D01*
X162484314Y-92072689D01*
X162533305Y-91967627D01*
X162580223Y-91914342D01*
X162648500Y-91894881D01*
X162716460Y-91915423D01*
X162761695Y-91967627D01*
X162810686Y-92072689D01*
X162810689Y-92072694D01*
X162813012Y-92077676D01*
X162816168Y-92082183D01*
X162816169Y-92082185D01*
X162852607Y-92134223D01*
X162940523Y-92259781D01*
X163097719Y-92416977D01*
X163102227Y-92420134D01*
X163102230Y-92420136D01*
X163177995Y-92473187D01*
X163279823Y-92544488D01*
X163284805Y-92546811D01*
X163284810Y-92546814D01*
X163451534Y-92624558D01*
X163481304Y-92638440D01*
X163486612Y-92639862D01*
X163486614Y-92639863D01*
X163552449Y-92657503D01*
X163696037Y-92695978D01*
X163823403Y-92707121D01*
X163874577Y-92711598D01*
X163916404Y-92727959D01*
X163934582Y-92716308D01*
X163958949Y-92711727D01*
X164138963Y-92695978D01*
X164282551Y-92657503D01*
X164348386Y-92639863D01*
X164348388Y-92639862D01*
X164353696Y-92638440D01*
X164383466Y-92624558D01*
X164550190Y-92546814D01*
X164550195Y-92546811D01*
X164555177Y-92544488D01*
X164657005Y-92473187D01*
X164732770Y-92420136D01*
X164732773Y-92420134D01*
X164737281Y-92416977D01*
X164894477Y-92259781D01*
X164982394Y-92134223D01*
X165018831Y-92082185D01*
X165018832Y-92082183D01*
X165021988Y-92077676D01*
X165024311Y-92072694D01*
X165024314Y-92072689D01*
X165073305Y-91967627D01*
X165120223Y-91914342D01*
X165188500Y-91894881D01*
X165256460Y-91915423D01*
X165301695Y-91967627D01*
X165350686Y-92072689D01*
X165350689Y-92072694D01*
X165353012Y-92077676D01*
X165356168Y-92082183D01*
X165356169Y-92082185D01*
X165392607Y-92134223D01*
X165480523Y-92259781D01*
X165637719Y-92416977D01*
X165642227Y-92420134D01*
X165642230Y-92420136D01*
X165717995Y-92473187D01*
X165819823Y-92544488D01*
X165824805Y-92546811D01*
X165824810Y-92546814D01*
X165991534Y-92624558D01*
X166021304Y-92638440D01*
X166026612Y-92639862D01*
X166026614Y-92639863D01*
X166092449Y-92657503D01*
X166236037Y-92695978D01*
X166457500Y-92715353D01*
X166678963Y-92695978D01*
X166822551Y-92657503D01*
X166888386Y-92639863D01*
X166888388Y-92639862D01*
X166893696Y-92638440D01*
X166923466Y-92624558D01*
X167090190Y-92546814D01*
X167090195Y-92546811D01*
X167095177Y-92544488D01*
X167197005Y-92473187D01*
X167272770Y-92420136D01*
X167272773Y-92420134D01*
X167277281Y-92416977D01*
X167434477Y-92259781D01*
X167522394Y-92134223D01*
X167558831Y-92082185D01*
X167558832Y-92082183D01*
X167561988Y-92077676D01*
X167564311Y-92072694D01*
X167564314Y-92072689D01*
X167613305Y-91967627D01*
X167660223Y-91914342D01*
X167728500Y-91894881D01*
X167796460Y-91915423D01*
X167841695Y-91967627D01*
X167890686Y-92072689D01*
X167890689Y-92072694D01*
X167893012Y-92077676D01*
X167896168Y-92082183D01*
X167896169Y-92082185D01*
X167932607Y-92134223D01*
X168020523Y-92259781D01*
X168177719Y-92416977D01*
X168182227Y-92420134D01*
X168182230Y-92420136D01*
X168257995Y-92473187D01*
X168359823Y-92544488D01*
X168364805Y-92546811D01*
X168364810Y-92546814D01*
X168531534Y-92624558D01*
X168561304Y-92638440D01*
X168566612Y-92639862D01*
X168566614Y-92639863D01*
X168632449Y-92657503D01*
X168776037Y-92695978D01*
X168997500Y-92715353D01*
X169218963Y-92695978D01*
X169362551Y-92657503D01*
X169428386Y-92639863D01*
X169428388Y-92639862D01*
X169433696Y-92638440D01*
X169463466Y-92624558D01*
X169630190Y-92546814D01*
X169630195Y-92546811D01*
X169635177Y-92544488D01*
X169737005Y-92473187D01*
X169812770Y-92420136D01*
X169812773Y-92420134D01*
X169817281Y-92416977D01*
X169974477Y-92259781D01*
X170062394Y-92134223D01*
X170098831Y-92082185D01*
X170098832Y-92082183D01*
X170101988Y-92077676D01*
X170104311Y-92072694D01*
X170104314Y-92072689D01*
X170153305Y-91967627D01*
X170200223Y-91914342D01*
X170268500Y-91894881D01*
X170336460Y-91915423D01*
X170381695Y-91967627D01*
X170430686Y-92072689D01*
X170430689Y-92072694D01*
X170433012Y-92077676D01*
X170436168Y-92082183D01*
X170436169Y-92082185D01*
X170472607Y-92134223D01*
X170560523Y-92259781D01*
X170717719Y-92416977D01*
X170722227Y-92420134D01*
X170722230Y-92420136D01*
X170797995Y-92473187D01*
X170899823Y-92544488D01*
X170904805Y-92546811D01*
X170904810Y-92546814D01*
X171071534Y-92624558D01*
X171101304Y-92638440D01*
X171106612Y-92639862D01*
X171106614Y-92639863D01*
X171172449Y-92657503D01*
X171316037Y-92695978D01*
X171537500Y-92715353D01*
X171758963Y-92695978D01*
X171902551Y-92657503D01*
X171968386Y-92639863D01*
X171968388Y-92639862D01*
X171973696Y-92638440D01*
X172003466Y-92624558D01*
X172170190Y-92546814D01*
X172170195Y-92546811D01*
X172175177Y-92544488D01*
X172277005Y-92473187D01*
X172352770Y-92420136D01*
X172352773Y-92420134D01*
X172357281Y-92416977D01*
X172514477Y-92259781D01*
X172602394Y-92134223D01*
X172638831Y-92082185D01*
X172638832Y-92082183D01*
X172641988Y-92077676D01*
X172644311Y-92072694D01*
X172644314Y-92072689D01*
X172693305Y-91967627D01*
X172740223Y-91914342D01*
X172808500Y-91894881D01*
X172876460Y-91915423D01*
X172921695Y-91967627D01*
X172970686Y-92072689D01*
X172970689Y-92072694D01*
X172973012Y-92077676D01*
X172976168Y-92082183D01*
X172976169Y-92082185D01*
X173012607Y-92134223D01*
X173100523Y-92259781D01*
X173257719Y-92416977D01*
X173262227Y-92420134D01*
X173262230Y-92420136D01*
X173337995Y-92473187D01*
X173439823Y-92544488D01*
X173444805Y-92546811D01*
X173444810Y-92546814D01*
X173611534Y-92624558D01*
X173641304Y-92638440D01*
X173646612Y-92639862D01*
X173646614Y-92639863D01*
X173712449Y-92657503D01*
X173856037Y-92695978D01*
X174077500Y-92715353D01*
X174298963Y-92695978D01*
X174442551Y-92657503D01*
X174508386Y-92639863D01*
X174508388Y-92639862D01*
X174513696Y-92638440D01*
X174543466Y-92624558D01*
X174710190Y-92546814D01*
X174710195Y-92546811D01*
X174715177Y-92544488D01*
X174817005Y-92473187D01*
X174892770Y-92420136D01*
X174892773Y-92420134D01*
X174897281Y-92416977D01*
X175054477Y-92259781D01*
X175142394Y-92134223D01*
X175178831Y-92082185D01*
X175178832Y-92082183D01*
X175181988Y-92077676D01*
X175184311Y-92072694D01*
X175184314Y-92072689D01*
X175233305Y-91967627D01*
X175280223Y-91914342D01*
X175348500Y-91894881D01*
X175416460Y-91915423D01*
X175461695Y-91967627D01*
X175510686Y-92072689D01*
X175510689Y-92072694D01*
X175513012Y-92077676D01*
X175516168Y-92082183D01*
X175516169Y-92082185D01*
X175552607Y-92134223D01*
X175640523Y-92259781D01*
X175797719Y-92416977D01*
X175802227Y-92420134D01*
X175802230Y-92420136D01*
X175877995Y-92473187D01*
X175979823Y-92544488D01*
X175984805Y-92546811D01*
X175984810Y-92546814D01*
X176151534Y-92624558D01*
X176181304Y-92638440D01*
X176186612Y-92639862D01*
X176186614Y-92639863D01*
X176252449Y-92657503D01*
X176396037Y-92695978D01*
X176617500Y-92715353D01*
X176838963Y-92695978D01*
X176982551Y-92657503D01*
X177048386Y-92639863D01*
X177048388Y-92639862D01*
X177053696Y-92638440D01*
X177083466Y-92624558D01*
X177250190Y-92546814D01*
X177250195Y-92546811D01*
X177255177Y-92544488D01*
X177357005Y-92473187D01*
X177432770Y-92420136D01*
X177432773Y-92420134D01*
X177437281Y-92416977D01*
X177594477Y-92259781D01*
X177682394Y-92134223D01*
X177718831Y-92082185D01*
X177718832Y-92082183D01*
X177721988Y-92077676D01*
X177724311Y-92072694D01*
X177724314Y-92072689D01*
X177773305Y-91967627D01*
X177820223Y-91914342D01*
X177888500Y-91894881D01*
X177956460Y-91915423D01*
X178001695Y-91967627D01*
X178050686Y-92072689D01*
X178050689Y-92072694D01*
X178053012Y-92077676D01*
X178056168Y-92082183D01*
X178056169Y-92082185D01*
X178092607Y-92134223D01*
X178180523Y-92259781D01*
X178337719Y-92416977D01*
X178342227Y-92420134D01*
X178342230Y-92420136D01*
X178417995Y-92473187D01*
X178519823Y-92544488D01*
X178524805Y-92546811D01*
X178524810Y-92546814D01*
X178691534Y-92624558D01*
X178721304Y-92638440D01*
X178726612Y-92639862D01*
X178726614Y-92639863D01*
X178792449Y-92657503D01*
X178936037Y-92695978D01*
X179157500Y-92715353D01*
X179378963Y-92695978D01*
X179522551Y-92657503D01*
X179588386Y-92639863D01*
X179588388Y-92639862D01*
X179593696Y-92638440D01*
X179623466Y-92624558D01*
X179790190Y-92546814D01*
X179790195Y-92546811D01*
X179795177Y-92544488D01*
X179897005Y-92473187D01*
X179972770Y-92420136D01*
X179972773Y-92420134D01*
X179977281Y-92416977D01*
X180134477Y-92259781D01*
X180222394Y-92134223D01*
X180258831Y-92082185D01*
X180258832Y-92082183D01*
X180261988Y-92077676D01*
X180264311Y-92072694D01*
X180264314Y-92072689D01*
X180313305Y-91967627D01*
X180360223Y-91914342D01*
X180428500Y-91894881D01*
X180496460Y-91915423D01*
X180541695Y-91967627D01*
X180590686Y-92072689D01*
X180590689Y-92072694D01*
X180593012Y-92077676D01*
X180596168Y-92082183D01*
X180596169Y-92082185D01*
X180632607Y-92134223D01*
X180720523Y-92259781D01*
X180877719Y-92416977D01*
X180882227Y-92420134D01*
X180882230Y-92420136D01*
X180957995Y-92473187D01*
X181059823Y-92544488D01*
X181064805Y-92546811D01*
X181064810Y-92546814D01*
X181231534Y-92624558D01*
X181261304Y-92638440D01*
X181266612Y-92639862D01*
X181266614Y-92639863D01*
X181332449Y-92657503D01*
X181476037Y-92695978D01*
X181697500Y-92715353D01*
X181918963Y-92695978D01*
X182062551Y-92657503D01*
X182128386Y-92639863D01*
X182128388Y-92639862D01*
X182133696Y-92638440D01*
X182163466Y-92624558D01*
X182330190Y-92546814D01*
X182330195Y-92546811D01*
X182335177Y-92544488D01*
X182437005Y-92473187D01*
X182512770Y-92420136D01*
X182512773Y-92420134D01*
X182517281Y-92416977D01*
X182674477Y-92259781D01*
X182762394Y-92134223D01*
X182798831Y-92082185D01*
X182798832Y-92082183D01*
X182801988Y-92077676D01*
X182804311Y-92072694D01*
X182804314Y-92072689D01*
X182853305Y-91967627D01*
X182900223Y-91914342D01*
X182968500Y-91894881D01*
X183036460Y-91915423D01*
X183081695Y-91967627D01*
X183130686Y-92072689D01*
X183130689Y-92072694D01*
X183133012Y-92077676D01*
X183136168Y-92082183D01*
X183136169Y-92082185D01*
X183172607Y-92134223D01*
X183260523Y-92259781D01*
X183417719Y-92416977D01*
X183422227Y-92420134D01*
X183422230Y-92420136D01*
X183497995Y-92473187D01*
X183599823Y-92544488D01*
X183604805Y-92546811D01*
X183604810Y-92546814D01*
X183771534Y-92624558D01*
X183801304Y-92638440D01*
X183806612Y-92639862D01*
X183806614Y-92639863D01*
X183872449Y-92657503D01*
X184016037Y-92695978D01*
X184237500Y-92715353D01*
X184458963Y-92695978D01*
X184602551Y-92657503D01*
X184668386Y-92639863D01*
X184668388Y-92639862D01*
X184673696Y-92638440D01*
X184703466Y-92624558D01*
X184870190Y-92546814D01*
X184870195Y-92546811D01*
X184875177Y-92544488D01*
X184977005Y-92473187D01*
X185052770Y-92420136D01*
X185052773Y-92420134D01*
X185057281Y-92416977D01*
X185214477Y-92259781D01*
X185302394Y-92134223D01*
X185338831Y-92082185D01*
X185338832Y-92082183D01*
X185341988Y-92077676D01*
X185344311Y-92072694D01*
X185344314Y-92072689D01*
X185393305Y-91967627D01*
X185440223Y-91914342D01*
X185508500Y-91894881D01*
X185576460Y-91915423D01*
X185621695Y-91967627D01*
X185670686Y-92072689D01*
X185670689Y-92072694D01*
X185673012Y-92077676D01*
X185676168Y-92082183D01*
X185676169Y-92082185D01*
X185712607Y-92134223D01*
X185800523Y-92259781D01*
X185957719Y-92416977D01*
X185962227Y-92420134D01*
X185962230Y-92420136D01*
X186037995Y-92473187D01*
X186139823Y-92544488D01*
X186144805Y-92546811D01*
X186144810Y-92546814D01*
X186311534Y-92624558D01*
X186341304Y-92638440D01*
X186346612Y-92639862D01*
X186346614Y-92639863D01*
X186412449Y-92657503D01*
X186556037Y-92695978D01*
X186777500Y-92715353D01*
X186998963Y-92695978D01*
X187142551Y-92657503D01*
X187208386Y-92639863D01*
X187208388Y-92639862D01*
X187213696Y-92638440D01*
X187243466Y-92624558D01*
X187410190Y-92546814D01*
X187410195Y-92546811D01*
X187415177Y-92544488D01*
X187517005Y-92473187D01*
X187592770Y-92420136D01*
X187592773Y-92420134D01*
X187597281Y-92416977D01*
X187754477Y-92259781D01*
X187842394Y-92134223D01*
X187878831Y-92082185D01*
X187878832Y-92082183D01*
X187881988Y-92077676D01*
X187884311Y-92072694D01*
X187884314Y-92072689D01*
X187933305Y-91967627D01*
X187980223Y-91914342D01*
X188048500Y-91894881D01*
X188116460Y-91915423D01*
X188161695Y-91967627D01*
X188210686Y-92072689D01*
X188210689Y-92072694D01*
X188213012Y-92077676D01*
X188216168Y-92082183D01*
X188216169Y-92082185D01*
X188252607Y-92134223D01*
X188340523Y-92259781D01*
X188497719Y-92416977D01*
X188502227Y-92420134D01*
X188502230Y-92420136D01*
X188577995Y-92473187D01*
X188679823Y-92544488D01*
X188684805Y-92546811D01*
X188684810Y-92546814D01*
X188851534Y-92624558D01*
X188881304Y-92638440D01*
X188886612Y-92639862D01*
X188886614Y-92639863D01*
X188952449Y-92657503D01*
X189096037Y-92695978D01*
X189317500Y-92715353D01*
X189538963Y-92695978D01*
X189682551Y-92657503D01*
X189748386Y-92639863D01*
X189748388Y-92639862D01*
X189753696Y-92638440D01*
X189783466Y-92624558D01*
X189950190Y-92546814D01*
X189950195Y-92546811D01*
X189955177Y-92544488D01*
X190057005Y-92473187D01*
X190132770Y-92420136D01*
X190132773Y-92420134D01*
X190137281Y-92416977D01*
X190294477Y-92259781D01*
X190382394Y-92134223D01*
X190418831Y-92082185D01*
X190418832Y-92082183D01*
X190421988Y-92077676D01*
X190424311Y-92072694D01*
X190424314Y-92072689D01*
X190473305Y-91967627D01*
X190520223Y-91914342D01*
X190588500Y-91894881D01*
X190656460Y-91915423D01*
X190701695Y-91967627D01*
X190750686Y-92072689D01*
X190750689Y-92072694D01*
X190753012Y-92077676D01*
X190756168Y-92082183D01*
X190756169Y-92082185D01*
X190792607Y-92134223D01*
X190880523Y-92259781D01*
X191037719Y-92416977D01*
X191042227Y-92420134D01*
X191042230Y-92420136D01*
X191117995Y-92473187D01*
X191219823Y-92544488D01*
X191224805Y-92546811D01*
X191224810Y-92546814D01*
X191391534Y-92624558D01*
X191421304Y-92638440D01*
X191426612Y-92639862D01*
X191426614Y-92639863D01*
X191492449Y-92657503D01*
X191636037Y-92695978D01*
X191857500Y-92715353D01*
X192078963Y-92695978D01*
X192222551Y-92657503D01*
X192288386Y-92639863D01*
X192288388Y-92639862D01*
X192293696Y-92638440D01*
X192323466Y-92624558D01*
X192490190Y-92546814D01*
X192490195Y-92546811D01*
X192495177Y-92544488D01*
X192560459Y-92498777D01*
X193703277Y-92498777D01*
X193712574Y-92510793D01*
X193755569Y-92540898D01*
X193765055Y-92546376D01*
X193956493Y-92635645D01*
X193966785Y-92639391D01*
X194170809Y-92694059D01*
X194181604Y-92695962D01*
X194392025Y-92714372D01*
X194402975Y-92714372D01*
X194613396Y-92695962D01*
X194624191Y-92694059D01*
X194828215Y-92639391D01*
X194838507Y-92635645D01*
X195029945Y-92546376D01*
X195039431Y-92540898D01*
X195083264Y-92510207D01*
X195091639Y-92499729D01*
X195084571Y-92486281D01*
X194410312Y-91812022D01*
X194396368Y-91804408D01*
X194394535Y-91804539D01*
X194387920Y-91808790D01*
X193709707Y-92487003D01*
X193703277Y-92498777D01*
X192560459Y-92498777D01*
X192597005Y-92473187D01*
X192672770Y-92420136D01*
X192672773Y-92420134D01*
X192677281Y-92416977D01*
X192834477Y-92259781D01*
X192922394Y-92134223D01*
X192958831Y-92082185D01*
X192958832Y-92082183D01*
X192961988Y-92077676D01*
X192964311Y-92072694D01*
X192964314Y-92072689D01*
X193013581Y-91967035D01*
X193060499Y-91913750D01*
X193128776Y-91894289D01*
X193196736Y-91914831D01*
X193241971Y-91967035D01*
X193291123Y-92072441D01*
X193296603Y-92081932D01*
X193327294Y-92125765D01*
X193337771Y-92134140D01*
X193351218Y-92127072D01*
X194025478Y-91452812D01*
X194033092Y-91438868D01*
X194032961Y-91437035D01*
X194028710Y-91430420D01*
X193350497Y-90752207D01*
X193338723Y-90745777D01*
X193326707Y-90755074D01*
X193296603Y-90798068D01*
X193291123Y-90807559D01*
X193241971Y-90912965D01*
X193195053Y-90966250D01*
X193126776Y-90985711D01*
X193058816Y-90965169D01*
X193013581Y-90912965D01*
X192964314Y-90807311D01*
X192964311Y-90807306D01*
X192961988Y-90802324D01*
X192946895Y-90780769D01*
X192837636Y-90624730D01*
X192837632Y-90624725D01*
X192834477Y-90620219D01*
X192677281Y-90463023D01*
X192672773Y-90459866D01*
X192672770Y-90459864D01*
X192579530Y-90394577D01*
X192559099Y-90380271D01*
X193703360Y-90380271D01*
X193710428Y-90393718D01*
X194384688Y-91067978D01*
X194398632Y-91075592D01*
X194400465Y-91075461D01*
X194407080Y-91071210D01*
X195085293Y-90392997D01*
X195091723Y-90381223D01*
X195082426Y-90369207D01*
X195039431Y-90339102D01*
X195029945Y-90333624D01*
X194838507Y-90244355D01*
X194828215Y-90240609D01*
X194624191Y-90185941D01*
X194613396Y-90184038D01*
X194402975Y-90165628D01*
X194392025Y-90165628D01*
X194181604Y-90184038D01*
X194170809Y-90185941D01*
X193966785Y-90240609D01*
X193956493Y-90244355D01*
X193765059Y-90333623D01*
X193755568Y-90339103D01*
X193711735Y-90369794D01*
X193703360Y-90380271D01*
X192559099Y-90380271D01*
X192495177Y-90335512D01*
X192490195Y-90333189D01*
X192490190Y-90333186D01*
X192298678Y-90243883D01*
X192298677Y-90243882D01*
X192293696Y-90241560D01*
X192288388Y-90240138D01*
X192288386Y-90240137D01*
X192210808Y-90219350D01*
X192078963Y-90184022D01*
X191857500Y-90164647D01*
X191636037Y-90184022D01*
X191504192Y-90219350D01*
X191426614Y-90240137D01*
X191426612Y-90240138D01*
X191421304Y-90241560D01*
X191416323Y-90243882D01*
X191416322Y-90243883D01*
X191224811Y-90333186D01*
X191224806Y-90333189D01*
X191219824Y-90335512D01*
X191215317Y-90338668D01*
X191215315Y-90338669D01*
X191042230Y-90459864D01*
X191042227Y-90459866D01*
X191037719Y-90463023D01*
X190880523Y-90620219D01*
X190877368Y-90624725D01*
X190877364Y-90624730D01*
X190768105Y-90780769D01*
X190753012Y-90802324D01*
X190750689Y-90807306D01*
X190750686Y-90807311D01*
X190701695Y-90912373D01*
X190654777Y-90965658D01*
X190586500Y-90985119D01*
X190518540Y-90964577D01*
X190473305Y-90912373D01*
X190424314Y-90807311D01*
X190424311Y-90807306D01*
X190421988Y-90802324D01*
X190406895Y-90780769D01*
X190297636Y-90624730D01*
X190297632Y-90624725D01*
X190294477Y-90620219D01*
X190137281Y-90463023D01*
X190132773Y-90459866D01*
X190132770Y-90459864D01*
X190039530Y-90394577D01*
X189955177Y-90335512D01*
X189950195Y-90333189D01*
X189950190Y-90333186D01*
X189758678Y-90243883D01*
X189758677Y-90243882D01*
X189753696Y-90241560D01*
X189748388Y-90240138D01*
X189748386Y-90240137D01*
X189670808Y-90219350D01*
X189538963Y-90184022D01*
X189317500Y-90164647D01*
X189096037Y-90184022D01*
X188964192Y-90219350D01*
X188886614Y-90240137D01*
X188886612Y-90240138D01*
X188881304Y-90241560D01*
X188876323Y-90243882D01*
X188876322Y-90243883D01*
X188684811Y-90333186D01*
X188684806Y-90333189D01*
X188679824Y-90335512D01*
X188675317Y-90338668D01*
X188675315Y-90338669D01*
X188502230Y-90459864D01*
X188502227Y-90459866D01*
X188497719Y-90463023D01*
X188340523Y-90620219D01*
X188337368Y-90624725D01*
X188337364Y-90624730D01*
X188228105Y-90780769D01*
X188213012Y-90802324D01*
X188210689Y-90807306D01*
X188210686Y-90807311D01*
X188161695Y-90912373D01*
X188114777Y-90965658D01*
X188046500Y-90985119D01*
X187978540Y-90964577D01*
X187933305Y-90912373D01*
X187884314Y-90807311D01*
X187884311Y-90807306D01*
X187881988Y-90802324D01*
X187866895Y-90780769D01*
X187757636Y-90624730D01*
X187757632Y-90624725D01*
X187754477Y-90620219D01*
X187597281Y-90463023D01*
X187592773Y-90459866D01*
X187592770Y-90459864D01*
X187499530Y-90394577D01*
X187415177Y-90335512D01*
X187410195Y-90333189D01*
X187410190Y-90333186D01*
X187218678Y-90243883D01*
X187218677Y-90243882D01*
X187213696Y-90241560D01*
X187208388Y-90240138D01*
X187208386Y-90240137D01*
X187130808Y-90219350D01*
X186998963Y-90184022D01*
X186777500Y-90164647D01*
X186556037Y-90184022D01*
X186424192Y-90219350D01*
X186346614Y-90240137D01*
X186346612Y-90240138D01*
X186341304Y-90241560D01*
X186336323Y-90243882D01*
X186336322Y-90243883D01*
X186144811Y-90333186D01*
X186144806Y-90333189D01*
X186139824Y-90335512D01*
X186135317Y-90338668D01*
X186135315Y-90338669D01*
X185962230Y-90459864D01*
X185962227Y-90459866D01*
X185957719Y-90463023D01*
X185800523Y-90620219D01*
X185797368Y-90624725D01*
X185797364Y-90624730D01*
X185688105Y-90780769D01*
X185673012Y-90802324D01*
X185670689Y-90807306D01*
X185670686Y-90807311D01*
X185621695Y-90912373D01*
X185574777Y-90965658D01*
X185506500Y-90985119D01*
X185438540Y-90964577D01*
X185393305Y-90912373D01*
X185344314Y-90807311D01*
X185344311Y-90807306D01*
X185341988Y-90802324D01*
X185326895Y-90780769D01*
X185217636Y-90624730D01*
X185217632Y-90624725D01*
X185214477Y-90620219D01*
X185057281Y-90463023D01*
X185052773Y-90459866D01*
X185052770Y-90459864D01*
X184959530Y-90394577D01*
X184875177Y-90335512D01*
X184870195Y-90333189D01*
X184870190Y-90333186D01*
X184678678Y-90243883D01*
X184678677Y-90243882D01*
X184673696Y-90241560D01*
X184668388Y-90240138D01*
X184668386Y-90240137D01*
X184590808Y-90219350D01*
X184458963Y-90184022D01*
X184237500Y-90164647D01*
X184016037Y-90184022D01*
X183884192Y-90219350D01*
X183806614Y-90240137D01*
X183806612Y-90240138D01*
X183801304Y-90241560D01*
X183796323Y-90243882D01*
X183796322Y-90243883D01*
X183604811Y-90333186D01*
X183604806Y-90333189D01*
X183599824Y-90335512D01*
X183595317Y-90338668D01*
X183595315Y-90338669D01*
X183422230Y-90459864D01*
X183422227Y-90459866D01*
X183417719Y-90463023D01*
X183260523Y-90620219D01*
X183257368Y-90624725D01*
X183257364Y-90624730D01*
X183148105Y-90780769D01*
X183133012Y-90802324D01*
X183130689Y-90807306D01*
X183130686Y-90807311D01*
X183081695Y-90912373D01*
X183034777Y-90965658D01*
X182966500Y-90985119D01*
X182898540Y-90964577D01*
X182853305Y-90912373D01*
X182804314Y-90807311D01*
X182804311Y-90807306D01*
X182801988Y-90802324D01*
X182786895Y-90780769D01*
X182677636Y-90624730D01*
X182677632Y-90624725D01*
X182674477Y-90620219D01*
X182517281Y-90463023D01*
X182512773Y-90459866D01*
X182512770Y-90459864D01*
X182419530Y-90394577D01*
X182335177Y-90335512D01*
X182330195Y-90333189D01*
X182330190Y-90333186D01*
X182138678Y-90243883D01*
X182138677Y-90243882D01*
X182133696Y-90241560D01*
X182128388Y-90240138D01*
X182128386Y-90240137D01*
X182050808Y-90219350D01*
X181918963Y-90184022D01*
X181697500Y-90164647D01*
X181476037Y-90184022D01*
X181344192Y-90219350D01*
X181266614Y-90240137D01*
X181266612Y-90240138D01*
X181261304Y-90241560D01*
X181256323Y-90243882D01*
X181256322Y-90243883D01*
X181064811Y-90333186D01*
X181064806Y-90333189D01*
X181059824Y-90335512D01*
X181055317Y-90338668D01*
X181055315Y-90338669D01*
X180882230Y-90459864D01*
X180882227Y-90459866D01*
X180877719Y-90463023D01*
X180720523Y-90620219D01*
X180717368Y-90624725D01*
X180717364Y-90624730D01*
X180608105Y-90780769D01*
X180593012Y-90802324D01*
X180590689Y-90807306D01*
X180590686Y-90807311D01*
X180541695Y-90912373D01*
X180494777Y-90965658D01*
X180426500Y-90985119D01*
X180358540Y-90964577D01*
X180313305Y-90912373D01*
X180264314Y-90807311D01*
X180264311Y-90807306D01*
X180261988Y-90802324D01*
X180246895Y-90780769D01*
X180137636Y-90624730D01*
X180137632Y-90624725D01*
X180134477Y-90620219D01*
X179977281Y-90463023D01*
X179972773Y-90459866D01*
X179972770Y-90459864D01*
X179879530Y-90394577D01*
X179795177Y-90335512D01*
X179790195Y-90333189D01*
X179790190Y-90333186D01*
X179598678Y-90243883D01*
X179598677Y-90243882D01*
X179593696Y-90241560D01*
X179588388Y-90240138D01*
X179588386Y-90240137D01*
X179510808Y-90219350D01*
X179378963Y-90184022D01*
X179157500Y-90164647D01*
X178936037Y-90184022D01*
X178804192Y-90219350D01*
X178726614Y-90240137D01*
X178726612Y-90240138D01*
X178721304Y-90241560D01*
X178716323Y-90243882D01*
X178716322Y-90243883D01*
X178524811Y-90333186D01*
X178524806Y-90333189D01*
X178519824Y-90335512D01*
X178515317Y-90338668D01*
X178515315Y-90338669D01*
X178342230Y-90459864D01*
X178342227Y-90459866D01*
X178337719Y-90463023D01*
X178180523Y-90620219D01*
X178177368Y-90624725D01*
X178177364Y-90624730D01*
X178068105Y-90780769D01*
X178053012Y-90802324D01*
X178050689Y-90807306D01*
X178050686Y-90807311D01*
X178001695Y-90912373D01*
X177954777Y-90965658D01*
X177886500Y-90985119D01*
X177818540Y-90964577D01*
X177773305Y-90912373D01*
X177724314Y-90807311D01*
X177724311Y-90807306D01*
X177721988Y-90802324D01*
X177706895Y-90780769D01*
X177597636Y-90624730D01*
X177597632Y-90624725D01*
X177594477Y-90620219D01*
X177437281Y-90463023D01*
X177432773Y-90459866D01*
X177432770Y-90459864D01*
X177339530Y-90394577D01*
X177255177Y-90335512D01*
X177250195Y-90333189D01*
X177250190Y-90333186D01*
X177058678Y-90243883D01*
X177058677Y-90243882D01*
X177053696Y-90241560D01*
X177048388Y-90240138D01*
X177048386Y-90240137D01*
X176970808Y-90219350D01*
X176838963Y-90184022D01*
X176617500Y-90164647D01*
X176396037Y-90184022D01*
X176264192Y-90219350D01*
X176186614Y-90240137D01*
X176186612Y-90240138D01*
X176181304Y-90241560D01*
X176176323Y-90243882D01*
X176176322Y-90243883D01*
X175984811Y-90333186D01*
X175984806Y-90333189D01*
X175979824Y-90335512D01*
X175975317Y-90338668D01*
X175975315Y-90338669D01*
X175802230Y-90459864D01*
X175802227Y-90459866D01*
X175797719Y-90463023D01*
X175640523Y-90620219D01*
X175637368Y-90624725D01*
X175637364Y-90624730D01*
X175528105Y-90780769D01*
X175513012Y-90802324D01*
X175510689Y-90807306D01*
X175510686Y-90807311D01*
X175461695Y-90912373D01*
X175414777Y-90965658D01*
X175346500Y-90985119D01*
X175278540Y-90964577D01*
X175233305Y-90912373D01*
X175184314Y-90807311D01*
X175184311Y-90807306D01*
X175181988Y-90802324D01*
X175166895Y-90780769D01*
X175057636Y-90624730D01*
X175057632Y-90624725D01*
X175054477Y-90620219D01*
X174897281Y-90463023D01*
X174892773Y-90459866D01*
X174892770Y-90459864D01*
X174799530Y-90394577D01*
X174715177Y-90335512D01*
X174710195Y-90333189D01*
X174710190Y-90333186D01*
X174518678Y-90243883D01*
X174518677Y-90243882D01*
X174513696Y-90241560D01*
X174508388Y-90240138D01*
X174508386Y-90240137D01*
X174430808Y-90219350D01*
X174298963Y-90184022D01*
X174077500Y-90164647D01*
X173856037Y-90184022D01*
X173724192Y-90219350D01*
X173646614Y-90240137D01*
X173646612Y-90240138D01*
X173641304Y-90241560D01*
X173636323Y-90243882D01*
X173636322Y-90243883D01*
X173444811Y-90333186D01*
X173444806Y-90333189D01*
X173439824Y-90335512D01*
X173435317Y-90338668D01*
X173435315Y-90338669D01*
X173262230Y-90459864D01*
X173262227Y-90459866D01*
X173257719Y-90463023D01*
X173100523Y-90620219D01*
X173097368Y-90624725D01*
X173097364Y-90624730D01*
X172988105Y-90780769D01*
X172973012Y-90802324D01*
X172970689Y-90807306D01*
X172970686Y-90807311D01*
X172921695Y-90912373D01*
X172874777Y-90965658D01*
X172806500Y-90985119D01*
X172738540Y-90964577D01*
X172693305Y-90912373D01*
X172644314Y-90807311D01*
X172644311Y-90807306D01*
X172641988Y-90802324D01*
X172626895Y-90780769D01*
X172517636Y-90624730D01*
X172517632Y-90624725D01*
X172514477Y-90620219D01*
X172357281Y-90463023D01*
X172352773Y-90459866D01*
X172352770Y-90459864D01*
X172259530Y-90394577D01*
X172175177Y-90335512D01*
X172170195Y-90333189D01*
X172170190Y-90333186D01*
X171978678Y-90243883D01*
X171978677Y-90243882D01*
X171973696Y-90241560D01*
X171968388Y-90240138D01*
X171968386Y-90240137D01*
X171890808Y-90219350D01*
X171758963Y-90184022D01*
X171537500Y-90164647D01*
X171316037Y-90184022D01*
X171184192Y-90219350D01*
X171106614Y-90240137D01*
X171106612Y-90240138D01*
X171101304Y-90241560D01*
X171096323Y-90243882D01*
X171096322Y-90243883D01*
X170904811Y-90333186D01*
X170904806Y-90333189D01*
X170899824Y-90335512D01*
X170895317Y-90338668D01*
X170895315Y-90338669D01*
X170722230Y-90459864D01*
X170722227Y-90459866D01*
X170717719Y-90463023D01*
X170560523Y-90620219D01*
X170557368Y-90624725D01*
X170557364Y-90624730D01*
X170448105Y-90780769D01*
X170433012Y-90802324D01*
X170430689Y-90807306D01*
X170430686Y-90807311D01*
X170381695Y-90912373D01*
X170334777Y-90965658D01*
X170266500Y-90985119D01*
X170198540Y-90964577D01*
X170153305Y-90912373D01*
X170104314Y-90807311D01*
X170104311Y-90807306D01*
X170101988Y-90802324D01*
X170086895Y-90780769D01*
X169977636Y-90624730D01*
X169977632Y-90624725D01*
X169974477Y-90620219D01*
X169817281Y-90463023D01*
X169812773Y-90459866D01*
X169812770Y-90459864D01*
X169719530Y-90394577D01*
X169635177Y-90335512D01*
X169630195Y-90333189D01*
X169630190Y-90333186D01*
X169438678Y-90243883D01*
X169438677Y-90243882D01*
X169433696Y-90241560D01*
X169428388Y-90240138D01*
X169428386Y-90240137D01*
X169350808Y-90219350D01*
X169218963Y-90184022D01*
X168997500Y-90164647D01*
X168776037Y-90184022D01*
X168644192Y-90219350D01*
X168566614Y-90240137D01*
X168566612Y-90240138D01*
X168561304Y-90241560D01*
X168556323Y-90243882D01*
X168556322Y-90243883D01*
X168364811Y-90333186D01*
X168364806Y-90333189D01*
X168359824Y-90335512D01*
X168355317Y-90338668D01*
X168355315Y-90338669D01*
X168182230Y-90459864D01*
X168182227Y-90459866D01*
X168177719Y-90463023D01*
X168020523Y-90620219D01*
X168017368Y-90624725D01*
X168017364Y-90624730D01*
X167908105Y-90780769D01*
X167893012Y-90802324D01*
X167890689Y-90807306D01*
X167890686Y-90807311D01*
X167841695Y-90912373D01*
X167794777Y-90965658D01*
X167726500Y-90985119D01*
X167658540Y-90964577D01*
X167613305Y-90912373D01*
X167564314Y-90807311D01*
X167564311Y-90807306D01*
X167561988Y-90802324D01*
X167546895Y-90780769D01*
X167437636Y-90624730D01*
X167437632Y-90624725D01*
X167434477Y-90620219D01*
X167277281Y-90463023D01*
X167272773Y-90459866D01*
X167272770Y-90459864D01*
X167179530Y-90394577D01*
X167095177Y-90335512D01*
X167090195Y-90333189D01*
X167090190Y-90333186D01*
X166898678Y-90243883D01*
X166898677Y-90243882D01*
X166893696Y-90241560D01*
X166888388Y-90240138D01*
X166888386Y-90240137D01*
X166810808Y-90219350D01*
X166678963Y-90184022D01*
X166457500Y-90164647D01*
X166236037Y-90184022D01*
X166104192Y-90219350D01*
X166026614Y-90240137D01*
X166026612Y-90240138D01*
X166021304Y-90241560D01*
X166016323Y-90243882D01*
X166016322Y-90243883D01*
X165824811Y-90333186D01*
X165824806Y-90333189D01*
X165819824Y-90335512D01*
X165815317Y-90338668D01*
X165815315Y-90338669D01*
X165642230Y-90459864D01*
X165642227Y-90459866D01*
X165637719Y-90463023D01*
X165480523Y-90620219D01*
X165477368Y-90624725D01*
X165477364Y-90624730D01*
X165368105Y-90780769D01*
X165353012Y-90802324D01*
X165350689Y-90807306D01*
X165350686Y-90807311D01*
X165301695Y-90912373D01*
X165254777Y-90965658D01*
X165186500Y-90985119D01*
X165118540Y-90964577D01*
X165073305Y-90912373D01*
X165024314Y-90807311D01*
X165024311Y-90807306D01*
X165021988Y-90802324D01*
X165006895Y-90780769D01*
X164897636Y-90624730D01*
X164897632Y-90624725D01*
X164894477Y-90620219D01*
X164737281Y-90463023D01*
X164732773Y-90459866D01*
X164732770Y-90459864D01*
X164639530Y-90394577D01*
X164555177Y-90335512D01*
X164550195Y-90333189D01*
X164550190Y-90333186D01*
X164358678Y-90243883D01*
X164358677Y-90243882D01*
X164353696Y-90241560D01*
X164348388Y-90240138D01*
X164348386Y-90240137D01*
X164270808Y-90219350D01*
X164138963Y-90184022D01*
X163917500Y-90164647D01*
X163696037Y-90184022D01*
X163564192Y-90219350D01*
X163486614Y-90240137D01*
X163486612Y-90240138D01*
X163481304Y-90241560D01*
X163476323Y-90243882D01*
X163476322Y-90243883D01*
X163284811Y-90333186D01*
X163284806Y-90333189D01*
X163279824Y-90335512D01*
X163275317Y-90338668D01*
X163275315Y-90338669D01*
X163102230Y-90459864D01*
X163102227Y-90459866D01*
X163097719Y-90463023D01*
X162940523Y-90620219D01*
X162937368Y-90624725D01*
X162937364Y-90624730D01*
X162828105Y-90780769D01*
X162813012Y-90802324D01*
X162810689Y-90807306D01*
X162810686Y-90807311D01*
X162761695Y-90912373D01*
X162714777Y-90965658D01*
X162646500Y-90985119D01*
X162578540Y-90964577D01*
X162533305Y-90912373D01*
X162484314Y-90807311D01*
X162484311Y-90807306D01*
X162481988Y-90802324D01*
X162466895Y-90780769D01*
X162357636Y-90624730D01*
X162357632Y-90624725D01*
X162354477Y-90620219D01*
X162197281Y-90463023D01*
X162192773Y-90459866D01*
X162192770Y-90459864D01*
X162099530Y-90394577D01*
X162015177Y-90335512D01*
X162010195Y-90333189D01*
X162010190Y-90333186D01*
X161818678Y-90243883D01*
X161818677Y-90243882D01*
X161813696Y-90241560D01*
X161808388Y-90240138D01*
X161808386Y-90240137D01*
X161730808Y-90219350D01*
X161598963Y-90184022D01*
X161377500Y-90164647D01*
X161156037Y-90184022D01*
X161024192Y-90219350D01*
X160946614Y-90240137D01*
X160946612Y-90240138D01*
X160941304Y-90241560D01*
X160936323Y-90243882D01*
X160936322Y-90243883D01*
X160744811Y-90333186D01*
X160744806Y-90333189D01*
X160739824Y-90335512D01*
X160735317Y-90338668D01*
X160735315Y-90338669D01*
X160706771Y-90358656D01*
X160639497Y-90381344D01*
X160570636Y-90364059D01*
X160522052Y-90312289D01*
X160508500Y-90255443D01*
X160508500Y-88986681D01*
X189161000Y-88986681D01*
X189161077Y-88989733D01*
X189162233Y-88998945D01*
X189199162Y-89182091D01*
X189202752Y-89193833D01*
X189273978Y-89364943D01*
X189279778Y-89375759D01*
X189382885Y-89529779D01*
X189390678Y-89539266D01*
X189521734Y-89670322D01*
X189531221Y-89678115D01*
X189685241Y-89781222D01*
X189696057Y-89787022D01*
X189867167Y-89858248D01*
X189878909Y-89861838D01*
X190062055Y-89898767D01*
X190071267Y-89899923D01*
X190074319Y-89900000D01*
X190539885Y-89900000D01*
X190555124Y-89895525D01*
X190556329Y-89894135D01*
X190558000Y-89886452D01*
X190558000Y-89881885D01*
X191066000Y-89881885D01*
X191070475Y-89897124D01*
X191071865Y-89898329D01*
X191079548Y-89900000D01*
X191549681Y-89900000D01*
X191552733Y-89899923D01*
X191561945Y-89898767D01*
X191745091Y-89861838D01*
X191756833Y-89858248D01*
X191927943Y-89787022D01*
X191938759Y-89781222D01*
X192092779Y-89678115D01*
X192102266Y-89670322D01*
X192222551Y-89550037D01*
X192284863Y-89516011D01*
X192355678Y-89521076D01*
X192400741Y-89550037D01*
X192525777Y-89675073D01*
X192530896Y-89678500D01*
X192530901Y-89678504D01*
X192685004Y-89781666D01*
X192685008Y-89781668D01*
X192690127Y-89785095D01*
X192872716Y-89861100D01*
X192878752Y-89862317D01*
X192878755Y-89862318D01*
X193062004Y-89899267D01*
X193066592Y-89900192D01*
X193072672Y-89900500D01*
X194551328Y-89900500D01*
X194557408Y-89900192D01*
X194561996Y-89899267D01*
X194745245Y-89862318D01*
X194745248Y-89862317D01*
X194751284Y-89861100D01*
X194933873Y-89785095D01*
X194938992Y-89781668D01*
X194938996Y-89781666D01*
X195093099Y-89678504D01*
X195093104Y-89678500D01*
X195098223Y-89675073D01*
X195238073Y-89535223D01*
X195241500Y-89530104D01*
X195241504Y-89530099D01*
X195344666Y-89375996D01*
X195344668Y-89375992D01*
X195348095Y-89370873D01*
X195362818Y-89335503D01*
X195370021Y-89320930D01*
X195398527Y-89271556D01*
X195457542Y-89089928D01*
X195467582Y-88994408D01*
X195476814Y-88906565D01*
X195477504Y-88900000D01*
X195464190Y-88773324D01*
X195463500Y-88760154D01*
X195463500Y-87795672D01*
X195463192Y-87789592D01*
X195448714Y-87717790D01*
X195425318Y-87601755D01*
X195425317Y-87601752D01*
X195424100Y-87595716D01*
X195348095Y-87413127D01*
X195344668Y-87408008D01*
X195344666Y-87408004D01*
X195241504Y-87253901D01*
X195241500Y-87253896D01*
X195238073Y-87248777D01*
X195098223Y-87108927D01*
X195093104Y-87105500D01*
X195093099Y-87105496D01*
X194938996Y-87002334D01*
X194938992Y-87002332D01*
X194933873Y-86998905D01*
X194921946Y-86993940D01*
X194854493Y-86965862D01*
X194751284Y-86922900D01*
X194745248Y-86921683D01*
X194745245Y-86921682D01*
X194561996Y-86884733D01*
X194561995Y-86884733D01*
X194557408Y-86883808D01*
X194551328Y-86883500D01*
X193072672Y-86883500D01*
X193066592Y-86883808D01*
X193062005Y-86884733D01*
X193062004Y-86884733D01*
X192878755Y-86921682D01*
X192878752Y-86921683D01*
X192872716Y-86922900D01*
X192769507Y-86965862D01*
X192702055Y-86993940D01*
X192690127Y-86998905D01*
X192685008Y-87002332D01*
X192685004Y-87002334D01*
X192530901Y-87105496D01*
X192530896Y-87105500D01*
X192525777Y-87108927D01*
X192400741Y-87233963D01*
X192338429Y-87267989D01*
X192267614Y-87262924D01*
X192222551Y-87233963D01*
X192102266Y-87113678D01*
X192092779Y-87105885D01*
X191938759Y-87002778D01*
X191927943Y-86996978D01*
X191756833Y-86925752D01*
X191745091Y-86922162D01*
X191561945Y-86885233D01*
X191552733Y-86884077D01*
X191549681Y-86884000D01*
X191084115Y-86884000D01*
X191068876Y-86888475D01*
X191067671Y-86889865D01*
X191066000Y-86897548D01*
X191066000Y-89881885D01*
X190558000Y-89881885D01*
X190558000Y-88664115D01*
X190553525Y-88648876D01*
X190552135Y-88647671D01*
X190544452Y-88646000D01*
X189179115Y-88646000D01*
X189163876Y-88650475D01*
X189162671Y-88651865D01*
X189161000Y-88659548D01*
X189161000Y-88986681D01*
X160508500Y-88986681D01*
X160508500Y-88119885D01*
X189161000Y-88119885D01*
X189165475Y-88135124D01*
X189166865Y-88136329D01*
X189174548Y-88138000D01*
X190539885Y-88138000D01*
X190555124Y-88133525D01*
X190556329Y-88132135D01*
X190558000Y-88124452D01*
X190558000Y-86902115D01*
X190553525Y-86886876D01*
X190552135Y-86885671D01*
X190544452Y-86884000D01*
X190074319Y-86884000D01*
X190071267Y-86884077D01*
X190062055Y-86885233D01*
X189878909Y-86922162D01*
X189867167Y-86925752D01*
X189696057Y-86996978D01*
X189685241Y-87002778D01*
X189531221Y-87105885D01*
X189521734Y-87113678D01*
X189390678Y-87244734D01*
X189382885Y-87254221D01*
X189279778Y-87408241D01*
X189273978Y-87419057D01*
X189202752Y-87590167D01*
X189199162Y-87601909D01*
X189162233Y-87785055D01*
X189161077Y-87794267D01*
X189161000Y-87797319D01*
X189161000Y-88119885D01*
X160508500Y-88119885D01*
X160508500Y-81914000D01*
X160528502Y-81845879D01*
X160582158Y-81799386D01*
X160634500Y-81788000D01*
X195962000Y-81788000D01*
X196030121Y-81808002D01*
G37*
%TD.AperFunction*%
%TD*%
M02*
