%TF.GenerationSoftware,KiCad,Pcbnew,(6.0.4)*%
%TF.CreationDate,2022-04-13T23:09:14+02:00*%
%TF.ProjectId,TICtoUART,54494374-6f55-4415-9254-2e6b69636164,rev?*%
%TF.SameCoordinates,Original*%
%TF.FileFunction,Legend,Bot*%
%TF.FilePolarity,Positive*%
%FSLAX46Y46*%
G04 Gerber Fmt 4.6, Leading zero omitted, Abs format (unit mm)*
G04 Created by KiCad (PCBNEW (6.0.4)) date 2022-04-13 23:09:14*
%MOMM*%
%LPD*%
G01*
G04 APERTURE LIST*
G04 Aperture macros list*
%AMRoundRect*
0 Rectangle with rounded corners*
0 $1 Rounding radius*
0 $2 $3 $4 $5 $6 $7 $8 $9 X,Y pos of 4 corners*
0 Add a 4 corners polygon primitive as box body*
4,1,4,$2,$3,$4,$5,$6,$7,$8,$9,$2,$3,0*
0 Add four circle primitives for the rounded corners*
1,1,$1+$1,$2,$3*
1,1,$1+$1,$4,$5*
1,1,$1+$1,$6,$7*
1,1,$1+$1,$8,$9*
0 Add four rect primitives between the rounded corners*
20,1,$1+$1,$2,$3,$4,$5,0*
20,1,$1+$1,$4,$5,$6,$7,0*
20,1,$1+$1,$6,$7,$8,$9,0*
20,1,$1+$1,$8,$9,$2,$3,0*%
G04 Aperture macros list end*
%ADD10C,0.150000*%
%ADD11C,0.120000*%
%ADD12C,1.600000*%
%ADD13O,1.600000X1.600000*%
%ADD14R,1.800000X1.800000*%
%ADD15C,1.800000*%
%ADD16RoundRect,0.500000X0.643000X0.500000X-0.643000X0.500000X-0.643000X-0.500000X0.643000X-0.500000X0*%
%ADD17RoundRect,0.500000X1.250000X0.500000X-1.250000X0.500000X-1.250000X-0.500000X1.250000X-0.500000X0*%
%ADD18R,2.200000X2.200000*%
%ADD19O,2.200000X2.200000*%
%ADD20RoundRect,0.250000X1.550000X-0.750000X1.550000X0.750000X-1.550000X0.750000X-1.550000X-0.750000X0*%
%ADD21O,3.600000X2.000000*%
%ADD22R,1.600000X1.600000*%
%ADD23R,1.600000X2.400000*%
%ADD24O,1.600000X2.400000*%
%ADD25C,1.524000*%
G04 APERTURE END LIST*
D10*
X160000000Y-118500000D02*
X220000000Y-118500000D01*
X160000000Y-81500000D02*
X220000000Y-81500000D01*
%TO.C,PS1*%
X194192952Y-86463428D02*
X193431047Y-86463428D01*
X193812000Y-86844380D02*
X193812000Y-86082476D01*
X191692952Y-86963428D02*
X190931047Y-86963428D01*
X206597714Y-86844380D02*
X206597714Y-85844380D01*
X206026285Y-86844380D01*
X206026285Y-85844380D01*
X210002476Y-86844380D02*
X210478666Y-86844380D01*
X210478666Y-85844380D01*
%TO.C,U3*%
X162099880Y-103378095D02*
X162909404Y-103378095D01*
X163004642Y-103425714D01*
X163052261Y-103473333D01*
X163099880Y-103568571D01*
X163099880Y-103759047D01*
X163052261Y-103854285D01*
X163004642Y-103901904D01*
X162909404Y-103949523D01*
X162099880Y-103949523D01*
X162099880Y-104330476D02*
X162099880Y-104949523D01*
X162480833Y-104616190D01*
X162480833Y-104759047D01*
X162528452Y-104854285D01*
X162576071Y-104901904D01*
X162671309Y-104949523D01*
X162909404Y-104949523D01*
X163004642Y-104901904D01*
X163052261Y-104854285D01*
X163099880Y-104759047D01*
X163099880Y-104473333D01*
X163052261Y-104378095D01*
X163004642Y-104330476D01*
D11*
%TO.C,PS1*%
X213812000Y-87392000D02*
X188812000Y-87392000D01*
X188812000Y-87392000D02*
X188812000Y-76392000D01*
X188812000Y-76392000D02*
X213812000Y-76392000D01*
X213812000Y-76392000D02*
X213812000Y-87392000D01*
%TD*%
%LPC*%
D12*
%TO.C,R6*%
X177038000Y-95250000D03*
D13*
X187198000Y-95250000D03*
%TD*%
D12*
%TO.C,R5*%
X180848000Y-113030000D03*
D13*
X180848000Y-102870000D03*
%TD*%
D14*
%TO.C,D3*%
X192283000Y-95250000D03*
D15*
X189743000Y-95250000D03*
%TD*%
D14*
%TO.C,D2*%
X192278000Y-113284000D03*
D15*
X189738000Y-113284000D03*
%TD*%
D16*
%TO.C,PS1*%
X193812000Y-88392000D03*
X190812000Y-88392000D03*
D17*
X205812000Y-88392000D03*
X210312000Y-88392000D03*
%TD*%
D12*
%TO.C,R3*%
X161290000Y-113030000D03*
D13*
X171450000Y-113030000D03*
%TD*%
D12*
%TO.C,R4*%
X177800000Y-113030000D03*
D13*
X177800000Y-102870000D03*
%TD*%
D18*
%TO.C,D1*%
X196850000Y-111760000D03*
D19*
X196850000Y-101600000D03*
%TD*%
D20*
%TO.C,J1*%
X216222500Y-111720000D03*
D21*
X216222500Y-106720000D03*
%TD*%
D22*
%TO.C,U1*%
X191760000Y-107955000D03*
D13*
X191760000Y-105415000D03*
X184140000Y-105415000D03*
X184140000Y-107955000D03*
%TD*%
D23*
%TO.C,U2*%
X166380000Y-102860000D03*
D24*
X168920000Y-102860000D03*
X171460000Y-102860000D03*
X174000000Y-102860000D03*
X174000000Y-95240000D03*
X171460000Y-95240000D03*
X168920000Y-95240000D03*
X166380000Y-95240000D03*
%TD*%
D12*
%TO.C,R1*%
X210820000Y-111760000D03*
D13*
X200660000Y-111760000D03*
%TD*%
D12*
%TO.C,R2*%
X161290000Y-107950000D03*
D13*
X171450000Y-107950000D03*
%TD*%
D20*
%TO.C,J2*%
X216222500Y-90500000D03*
D21*
X216222500Y-85500000D03*
%TD*%
D25*
%TO.C,U3*%
X161377500Y-91440000D03*
X163917500Y-91440000D03*
X166457500Y-91440000D03*
X168997500Y-91440000D03*
X171537500Y-91440000D03*
X174077500Y-91440000D03*
X176617500Y-91440000D03*
X179157500Y-91440000D03*
X181697500Y-91440000D03*
X184237500Y-91440000D03*
X186777500Y-91440000D03*
X189317500Y-91440000D03*
X191857500Y-91440000D03*
X194397500Y-91440000D03*
X196937500Y-91440000D03*
X199477500Y-91440000D03*
X202017500Y-91440000D03*
X204557500Y-91440000D03*
X207097500Y-91440000D03*
X207097500Y-116840000D03*
X204557500Y-116840000D03*
X202017500Y-116840000D03*
X199477500Y-116840000D03*
X196937500Y-116840000D03*
X194397500Y-116840000D03*
X191857500Y-116840000D03*
X189317500Y-116840000D03*
X186777500Y-116840000D03*
X184237500Y-116840000D03*
X181697500Y-116840000D03*
X179157500Y-116840000D03*
X176617500Y-116840000D03*
X174077500Y-116840000D03*
X171537500Y-116840000D03*
X168997500Y-116840000D03*
X166457500Y-116840000D03*
X163917500Y-116840000D03*
X161377500Y-116840000D03*
%TD*%
M02*
