%TF.GenerationSoftware,KiCad,Pcbnew,(6.0.4)*%
%TF.CreationDate,2022-04-13T23:09:14+02:00*%
%TF.ProjectId,TICtoUART,54494374-6f55-4415-9254-2e6b69636164,rev?*%
%TF.SameCoordinates,Original*%
%TF.FileFunction,Copper,L1,Top*%
%TF.FilePolarity,Positive*%
%FSLAX46Y46*%
G04 Gerber Fmt 4.6, Leading zero omitted, Abs format (unit mm)*
G04 Created by KiCad (PCBNEW (6.0.4)) date 2022-04-13 23:09:14*
%MOMM*%
%LPD*%
G01*
G04 APERTURE LIST*
G04 Aperture macros list*
%AMRoundRect*
0 Rectangle with rounded corners*
0 $1 Rounding radius*
0 $2 $3 $4 $5 $6 $7 $8 $9 X,Y pos of 4 corners*
0 Add a 4 corners polygon primitive as box body*
4,1,4,$2,$3,$4,$5,$6,$7,$8,$9,$2,$3,0*
0 Add four circle primitives for the rounded corners*
1,1,$1+$1,$2,$3*
1,1,$1+$1,$4,$5*
1,1,$1+$1,$6,$7*
1,1,$1+$1,$8,$9*
0 Add four rect primitives between the rounded corners*
20,1,$1+$1,$2,$3,$4,$5,0*
20,1,$1+$1,$4,$5,$6,$7,0*
20,1,$1+$1,$6,$7,$8,$9,0*
20,1,$1+$1,$8,$9,$2,$3,0*%
G04 Aperture macros list end*
%TA.AperFunction,ComponentPad*%
%ADD10C,1.600000*%
%TD*%
%TA.AperFunction,ComponentPad*%
%ADD11O,1.600000X1.600000*%
%TD*%
%TA.AperFunction,ComponentPad*%
%ADD12R,1.800000X1.800000*%
%TD*%
%TA.AperFunction,ComponentPad*%
%ADD13C,1.800000*%
%TD*%
%TA.AperFunction,ComponentPad*%
%ADD14R,2.200000X2.200000*%
%TD*%
%TA.AperFunction,ComponentPad*%
%ADD15O,2.200000X2.200000*%
%TD*%
%TA.AperFunction,ComponentPad*%
%ADD16RoundRect,0.250000X1.550000X-0.750000X1.550000X0.750000X-1.550000X0.750000X-1.550000X-0.750000X0*%
%TD*%
%TA.AperFunction,ComponentPad*%
%ADD17O,3.600000X2.000000*%
%TD*%
%TA.AperFunction,ComponentPad*%
%ADD18R,1.600000X1.600000*%
%TD*%
%TA.AperFunction,ComponentPad*%
%ADD19R,1.600000X2.400000*%
%TD*%
%TA.AperFunction,ComponentPad*%
%ADD20O,1.600000X2.400000*%
%TD*%
%TA.AperFunction,ComponentPad*%
%ADD21C,1.524000*%
%TD*%
%TA.AperFunction,ViaPad*%
%ADD22C,0.800000*%
%TD*%
%TA.AperFunction,Conductor*%
%ADD23C,0.250000*%
%TD*%
%TA.AperFunction,Conductor*%
%ADD24C,1.000000*%
%TD*%
G04 APERTURE END LIST*
D10*
%TO.P,R6,1*%
%TO.N,Net-(U3-Pad10)*%
X177038000Y-95250000D03*
D11*
%TO.P,R6,2*%
%TO.N,Net-(D3-Pad2)*%
X187198000Y-95250000D03*
%TD*%
D10*
%TO.P,R5,1*%
%TO.N,Net-(U3-Pad29)*%
X180848000Y-113030000D03*
D11*
%TO.P,R5,2*%
%TO.N,Net-(D2-Pad2)*%
X180848000Y-102870000D03*
%TD*%
D12*
%TO.P,D3,1,K*%
%TO.N,GND*%
X192283000Y-95250000D03*
D13*
%TO.P,D3,2,A*%
%TO.N,Net-(D3-Pad2)*%
X189743000Y-95250000D03*
%TD*%
D12*
%TO.P,D2,1,K*%
%TO.N,GND*%
X192278000Y-113284000D03*
D13*
%TO.P,D2,2,A*%
%TO.N,Net-(D2-Pad2)*%
X189738000Y-113284000D03*
%TD*%
D10*
%TO.P,R3,1*%
%TO.N,+3V3*%
X161290000Y-113030000D03*
D11*
%TO.P,R3,2*%
%TO.N,Net-(R3-Pad2)*%
X171450000Y-113030000D03*
%TD*%
D10*
%TO.P,R4,1*%
%TO.N,Net-(R3-Pad2)*%
X177800000Y-113030000D03*
D11*
%TO.P,R4,2*%
%TO.N,GND*%
X177800000Y-102870000D03*
%TD*%
D14*
%TO.P,D1,1,K*%
%TO.N,Net-(D1-Pad1)*%
X196850000Y-111760000D03*
D15*
%TO.P,D1,2,A*%
%TO.N,Net-(D1-Pad2)*%
X196850000Y-101600000D03*
%TD*%
D16*
%TO.P,J1,1,Pin_1*%
%TO.N,Net-(J1-Pad1)*%
X216222500Y-111720000D03*
D17*
%TO.P,J1,2,Pin_2*%
%TO.N,Net-(D1-Pad2)*%
X216222500Y-106720000D03*
%TD*%
D18*
%TO.P,U1,1*%
%TO.N,Net-(D1-Pad1)*%
X191760000Y-107955000D03*
D11*
%TO.P,U1,2*%
%TO.N,Net-(D1-Pad2)*%
X191760000Y-105415000D03*
%TO.P,U1,3*%
%TO.N,GND*%
X184140000Y-105415000D03*
%TO.P,U1,4*%
%TO.N,Net-(R2-Pad2)*%
X184140000Y-107955000D03*
%TD*%
D19*
%TO.P,U2,1*%
%TO.N,Net-(U2-Pad1)*%
X166380000Y-102860000D03*
D20*
%TO.P,U2,2,-*%
%TO.N,Net-(R3-Pad2)*%
X168920000Y-102860000D03*
%TO.P,U2,3,+*%
%TO.N,Net-(R2-Pad2)*%
X171460000Y-102860000D03*
%TO.P,U2,4,V-*%
%TO.N,GND*%
X174000000Y-102860000D03*
%TO.P,U2,5*%
%TO.N,N/C*%
X174000000Y-95240000D03*
%TO.P,U2,6*%
X171460000Y-95240000D03*
%TO.P,U2,7*%
X168920000Y-95240000D03*
%TO.P,U2,8,V+*%
%TO.N,+3V3*%
X166380000Y-95240000D03*
%TD*%
D10*
%TO.P,R1,1*%
%TO.N,Net-(J1-Pad1)*%
X210820000Y-111760000D03*
D11*
%TO.P,R1,2*%
%TO.N,Net-(D1-Pad1)*%
X200660000Y-111760000D03*
%TD*%
D10*
%TO.P,R2,1*%
%TO.N,+3V3*%
X161290000Y-107950000D03*
D11*
%TO.P,R2,2*%
%TO.N,Net-(R2-Pad2)*%
X171450000Y-107950000D03*
%TD*%
D16*
%TO.P,J2,1,Pin_1*%
%TO.N,Net-(PS1-Pad1)*%
X216222500Y-90500000D03*
D17*
%TO.P,J2,2,Pin_2*%
%TO.N,Net-(PS1-Pad2)*%
X216222500Y-85500000D03*
%TD*%
D21*
%TO.P,U3,1,3V3*%
%TO.N,+3V3*%
X161377500Y-91440000D03*
%TO.P,U3,2,EN*%
%TO.N,unconnected-(U3-Pad2)*%
X163917500Y-91440000D03*
%TO.P,U3,3,GPIO36*%
%TO.N,unconnected-(U3-Pad3)*%
X166457500Y-91440000D03*
%TO.P,U3,4,GPIO39*%
%TO.N,unconnected-(U3-Pad4)*%
X168997500Y-91440000D03*
%TO.P,U3,5,GPIO34*%
%TO.N,unconnected-(U3-Pad5)*%
X171537500Y-91440000D03*
%TO.P,U3,6,GPIO35*%
%TO.N,unconnected-(U3-Pad6)*%
X174077500Y-91440000D03*
%TO.P,U3,7,GPIO32*%
%TO.N,unconnected-(U3-Pad7)*%
X176617500Y-91440000D03*
%TO.P,U3,8,GPIO33*%
%TO.N,unconnected-(U3-Pad8)*%
X179157500Y-91440000D03*
%TO.P,U3,9,GPIO25*%
%TO.N,unconnected-(U3-Pad9)*%
X181697500Y-91440000D03*
%TO.P,U3,10,GPIO26*%
%TO.N,Net-(U3-Pad10)*%
X184237500Y-91440000D03*
%TO.P,U3,11,GPIO27*%
%TO.N,unconnected-(U3-Pad11)*%
X186777500Y-91440000D03*
%TO.P,U3,12,GPIO14*%
%TO.N,unconnected-(U3-Pad12)*%
X189317500Y-91440000D03*
%TO.P,U3,13,GPIO12*%
%TO.N,unconnected-(U3-Pad13)*%
X191857500Y-91440000D03*
%TO.P,U3,14,GND*%
%TO.N,GND*%
X194397500Y-91440000D03*
%TO.P,U3,15,GPIO13*%
%TO.N,unconnected-(U3-Pad15)*%
X196937500Y-91440000D03*
%TO.P,U3,16,GPIO9_SHD/SD2*%
%TO.N,unconnected-(U3-Pad16)*%
X199477500Y-91440000D03*
%TO.P,U3,17,GPIO10_SWP/SD3*%
%TO.N,unconnected-(U3-Pad17)*%
X202017500Y-91440000D03*
%TO.P,U3,18,GPIO11_CSC/CMD*%
%TO.N,unconnected-(U3-Pad18)*%
X204557500Y-91440000D03*
%TO.P,U3,19,VIN*%
%TO.N,Net-(PS1-Pad4)*%
X207097500Y-91440000D03*
%TO.P,U3,20,GPIO6_SCK/CLK*%
%TO.N,unconnected-(U3-Pad20)*%
X207097500Y-116840000D03*
%TO.P,U3,21,GPIO7_SDO/SD0*%
%TO.N,unconnected-(U3-Pad21)*%
X204557500Y-116840000D03*
%TO.P,U3,22,GPIO8_SDI/SD1*%
%TO.N,unconnected-(U3-Pad22)*%
X202017500Y-116840000D03*
%TO.P,U3,23,GPIO15_ADC13_T3*%
%TO.N,unconnected-(U3-Pad23)*%
X199477500Y-116840000D03*
%TO.P,U3,24,GPIO2*%
%TO.N,unconnected-(U3-Pad24)*%
X196937500Y-116840000D03*
%TO.P,U3,25,GPIO0*%
%TO.N,unconnected-(U3-Pad25)*%
X194397500Y-116840000D03*
%TO.P,U3,26,GPIO4*%
%TO.N,unconnected-(U3-Pad26)*%
X191857500Y-116840000D03*
%TO.P,U3,27,GPIO16_UART2-RX*%
%TO.N,Net-(U2-Pad1)*%
X189317500Y-116840000D03*
%TO.P,U3,28,GPIO17_UART2-TX*%
%TO.N,unconnected-(U3-Pad28)*%
X186777500Y-116840000D03*
%TO.P,U3,29,GPIO5_VSPI-CS0*%
%TO.N,Net-(U3-Pad29)*%
X184237500Y-116840000D03*
%TO.P,U3,30,GPIO18_VSPI-CLK*%
%TO.N,unconnected-(U3-Pad30)*%
X181697500Y-116840000D03*
%TO.P,U3,31,GPIO19_VSPI-MISO*%
%TO.N,unconnected-(U3-Pad31)*%
X179157500Y-116840000D03*
%TO.P,U3,32,GND*%
%TO.N,GND*%
X176617500Y-116840000D03*
%TO.P,U3,33,GPIO21_I2C-SDA*%
%TO.N,unconnected-(U3-Pad33)*%
X174077500Y-116840000D03*
%TO.P,U3,34,GPIO3__UART0-RX*%
%TO.N,unconnected-(U3-Pad34)*%
X171537500Y-116840000D03*
%TO.P,U3,35,GPIO1_UART0-TX*%
%TO.N,unconnected-(U3-Pad35)*%
X168997500Y-116840000D03*
%TO.P,U3,36,GPIO22_I2C-SCL*%
%TO.N,unconnected-(U3-Pad36)*%
X166457500Y-116840000D03*
%TO.P,U3,37,GPIO23_VSPI-MOSI*%
%TO.N,unconnected-(U3-Pad37)*%
X163917500Y-116840000D03*
%TO.P,U3,38,GND*%
%TO.N,GND*%
X161377500Y-116840000D03*
%TD*%
D22*
%TO.N,Net-(PS1-Pad4)*%
X194564000Y-88900000D03*
%TD*%
D23*
%TO.N,Net-(PS1-Pad4)*%
X205573500Y-92964000D02*
X207097500Y-91440000D01*
X195580000Y-91948000D02*
X196596000Y-92964000D01*
X195580000Y-89916000D02*
X195580000Y-91948000D01*
X194564000Y-88900000D02*
X195580000Y-89916000D01*
X196596000Y-92964000D02*
X205573500Y-92964000D01*
%TO.N,Net-(D3-Pad2)*%
X187198000Y-95250000D02*
X189743000Y-95250000D01*
%TO.N,Net-(U3-Pad10)*%
X180427500Y-95250000D02*
X184237500Y-91440000D01*
X177038000Y-95250000D02*
X180427500Y-95250000D01*
%TO.N,Net-(U3-Pad29)*%
X184237500Y-115403500D02*
X184237500Y-116840000D01*
X181864000Y-113030000D02*
X184237500Y-115403500D01*
X180848000Y-113030000D02*
X181864000Y-113030000D01*
D24*
%TO.N,Net-(D1-Pad2)*%
X204510000Y-106720000D02*
X204470000Y-106680000D01*
X216222500Y-106720000D02*
X204510000Y-106720000D01*
X199390000Y-101600000D02*
X204470000Y-106680000D01*
%TO.N,Net-(J1-Pad1)*%
X216182500Y-111760000D02*
X216222500Y-111720000D01*
X210820000Y-111760000D02*
X216182500Y-111760000D01*
D23*
%TO.N,Net-(R3-Pad2)*%
X171450000Y-113030000D02*
X177800000Y-113030000D01*
D24*
%TO.N,Net-(D1-Pad1)*%
X196850000Y-111760000D02*
X200660000Y-111760000D01*
X194310000Y-111760000D02*
X196850000Y-111760000D01*
X191760000Y-109210000D02*
X194310000Y-111760000D01*
X191760000Y-107955000D02*
X191760000Y-109210000D01*
%TO.N,Net-(D1-Pad2)*%
X191760000Y-104150000D02*
X194310000Y-101600000D01*
X191760000Y-105415000D02*
X191760000Y-104150000D01*
X194310000Y-101600000D02*
X196850000Y-101600000D01*
D23*
%TO.N,Net-(R2-Pad2)*%
X171450000Y-107950000D02*
X184135000Y-107950000D01*
D24*
X184135000Y-107950000D02*
X184140000Y-107955000D01*
X171460000Y-107940000D02*
X171450000Y-107950000D01*
D23*
X171460000Y-102860000D02*
X171460000Y-107940000D01*
%TO.N,Net-(R3-Pad2)*%
X168920000Y-110500000D02*
X168920000Y-102860000D01*
X171450000Y-113030000D02*
X168920000Y-110500000D01*
D24*
%TO.N,+3V3*%
X161290000Y-107950000D02*
X161290000Y-113030000D01*
X162550000Y-95240000D02*
X161290000Y-93980000D01*
X166380000Y-95240000D02*
X162550000Y-95240000D01*
X161290000Y-93980000D02*
X161290000Y-91527500D01*
X161290000Y-107950000D02*
X161290000Y-93980000D01*
X161290000Y-91527500D02*
X161377500Y-91440000D01*
%TO.N,Net-(D1-Pad2)*%
X196850000Y-101600000D02*
X199390000Y-101600000D01*
%TD*%
M02*
