M48
; DRILL file {KiCad (6.0.4)} date Wed Apr 13 23:09:17 2022
; FORMAT={-:-/ absolute / metric / decimal}
; #@! TF.CreationDate,2022-04-13T23:09:17+02:00
; #@! TF.GenerationSoftware,Kicad,Pcbnew,(6.0.4)
; #@! TF.FileFunction,Plated,1,2,PTH
FMAT,2
METRIC
; #@! TA.AperFunction,Plated,PTH,ViaDrill
T1C0.400
; #@! TA.AperFunction,Plated,PTH,ComponentDrill
T2C0.762
; #@! TA.AperFunction,Plated,PTH,ComponentDrill
T3C0.800
; #@! TA.AperFunction,Plated,PTH,ComponentDrill
T4C0.900
; #@! TA.AperFunction,Plated,PTH,ComponentDrill
T5C1.100
; #@! TA.AperFunction,Plated,PTH,ComponentDrill
T6C1.400
%
G90
G05
T1
X194.564Y-88.9
T2
X161.377Y-91.44
X161.377Y-116.84
X163.917Y-91.44
X163.917Y-116.84
X166.457Y-91.44
X166.457Y-116.84
X168.998Y-91.44
X168.998Y-116.84
X171.537Y-91.44
X171.537Y-116.84
X174.077Y-91.44
X174.077Y-116.84
X176.617Y-91.44
X176.617Y-116.84
X179.157Y-91.44
X179.157Y-116.84
X181.697Y-91.44
X181.697Y-116.84
X184.237Y-91.44
X184.237Y-116.84
X186.778Y-91.44
X186.778Y-116.84
X189.317Y-91.44
X189.317Y-116.84
X191.857Y-91.44
X191.857Y-116.84
X194.397Y-91.44
X194.397Y-116.84
X196.938Y-91.44
X196.938Y-116.84
X199.477Y-91.44
X199.477Y-116.84
X202.017Y-91.44
X202.017Y-116.84
X204.558Y-91.44
X204.558Y-116.84
X207.097Y-91.44
X207.097Y-116.84
T3
X161.29Y-107.95
X161.29Y-113.03
X166.38Y-95.24
X166.38Y-102.86
X168.92Y-95.24
X168.92Y-102.86
X171.45Y-107.95
X171.45Y-113.03
X171.46Y-95.24
X171.46Y-102.86
X174.0Y-95.24
X174.0Y-102.86
X177.038Y-95.25
X177.8Y-102.87
X177.8Y-113.03
X180.848Y-102.87
X180.848Y-113.03
X184.14Y-105.415
X184.14Y-107.955
X187.198Y-95.25
X191.76Y-105.415
X191.76Y-107.955
X200.66Y-111.76
X210.82Y-111.76
T4
X189.738Y-113.284
X189.743Y-95.25
X192.278Y-113.284
X192.283Y-95.25
T5
X196.85Y-101.6
X196.85Y-111.76
T6
X216.222Y-85.5
X216.222Y-90.5
X216.222Y-106.72
X216.222Y-111.72
T0
M30
