%TF.GenerationSoftware,KiCad,Pcbnew,(6.0.4)*%
%TF.CreationDate,2022-03-26T00:49:46+01:00*%
%TF.ProjectId,TICtoUART,54494374-6f55-4415-9254-2e6b69636164,rev?*%
%TF.SameCoordinates,Original*%
%TF.FileFunction,Legend,Top*%
%TF.FilePolarity,Positive*%
%FSLAX46Y46*%
G04 Gerber Fmt 4.6, Leading zero omitted, Abs format (unit mm)*
G04 Created by KiCad (PCBNEW (6.0.4)) date 2022-03-26 00:49:46*
%MOMM*%
%LPD*%
G01*
G04 APERTURE LIST*
G04 Aperture macros list*
%AMRoundRect*
0 Rectangle with rounded corners*
0 $1 Rounding radius*
0 $2 $3 $4 $5 $6 $7 $8 $9 X,Y pos of 4 corners*
0 Add a 4 corners polygon primitive as box body*
4,1,4,$2,$3,$4,$5,$6,$7,$8,$9,$2,$3,0*
0 Add four circle primitives for the rounded corners*
1,1,$1+$1,$2,$3*
1,1,$1+$1,$4,$5*
1,1,$1+$1,$6,$7*
1,1,$1+$1,$8,$9*
0 Add four rect primitives between the rounded corners*
20,1,$1+$1,$2,$3,$4,$5,0*
20,1,$1+$1,$4,$5,$6,$7,0*
20,1,$1+$1,$6,$7,$8,$9,0*
20,1,$1+$1,$8,$9,$2,$3,0*%
G04 Aperture macros list end*
%ADD10C,0.300000*%
%ADD11C,0.150000*%
%ADD12C,0.120000*%
%ADD13RoundRect,0.250002X1.699998X-1.699998X1.699998X1.699998X-1.699998X1.699998X-1.699998X-1.699998X0*%
%ADD14C,3.900000*%
%ADD15C,1.440000*%
%ADD16C,1.600000*%
%ADD17O,1.600000X1.600000*%
%ADD18RoundRect,0.250000X-0.350000X-0.450000X0.350000X-0.450000X0.350000X0.450000X-0.350000X0.450000X0*%
%ADD19C,8.000000*%
%ADD20C,4.400000*%
%ADD21O,2.400000X1.600000*%
%ADD22R,2.400000X1.600000*%
%ADD23O,1.700000X1.700000*%
%ADD24R,1.700000X1.700000*%
%ADD25R,1.600000X1.600000*%
%ADD26R,2.200000X2.200000*%
%ADD27O,2.200000X2.200000*%
G04 APERTURE END LIST*
D10*
X137287142Y-91888571D02*
X138144285Y-91888571D01*
X137715714Y-93388571D02*
X137715714Y-91888571D01*
X138572857Y-92031428D02*
X138644285Y-91960000D01*
X138787142Y-91888571D01*
X139144285Y-91888571D01*
X139287142Y-91960000D01*
X139358571Y-92031428D01*
X139430000Y-92174285D01*
X139430000Y-92317142D01*
X139358571Y-92531428D01*
X138501428Y-93388571D01*
X139430000Y-93388571D01*
X137287142Y-89348571D02*
X138144285Y-89348571D01*
X137715714Y-90848571D02*
X137715714Y-89348571D01*
X139430000Y-90848571D02*
X138572857Y-90848571D01*
X139001428Y-90848571D02*
X139001428Y-89348571D01*
X138858571Y-89562857D01*
X138715714Y-89705714D01*
X138572857Y-89777142D01*
D11*
X102830714Y-109355000D02*
X102735476Y-109307380D01*
X102592619Y-109307380D01*
X102449761Y-109355000D01*
X102354523Y-109450238D01*
X102306904Y-109545476D01*
X102259285Y-109735952D01*
X102259285Y-109878809D01*
X102306904Y-110069285D01*
X102354523Y-110164523D01*
X102449761Y-110259761D01*
X102592619Y-110307380D01*
X102687857Y-110307380D01*
X102830714Y-110259761D01*
X102878333Y-110212142D01*
X102878333Y-109878809D01*
X102687857Y-109878809D01*
X103306904Y-110307380D02*
X103306904Y-109307380D01*
X103878333Y-110307380D01*
X103878333Y-109307380D01*
X104354523Y-110307380D02*
X104354523Y-109307380D01*
X104592619Y-109307380D01*
X104735476Y-109355000D01*
X104830714Y-109450238D01*
X104878333Y-109545476D01*
X104925952Y-109735952D01*
X104925952Y-109878809D01*
X104878333Y-110069285D01*
X104830714Y-110164523D01*
X104735476Y-110259761D01*
X104592619Y-110307380D01*
X104354523Y-110307380D01*
X105973571Y-109307380D02*
X106545000Y-109307380D01*
X106259285Y-110307380D02*
X106259285Y-109307380D01*
X106783095Y-110307380D02*
X107306904Y-109640714D01*
X106783095Y-109640714D02*
X107306904Y-110307380D01*
X108925952Y-109307380D02*
X108449761Y-109307380D01*
X108402142Y-109783571D01*
X108449761Y-109735952D01*
X108545000Y-109688333D01*
X108783095Y-109688333D01*
X108878333Y-109735952D01*
X108925952Y-109783571D01*
X108973571Y-109878809D01*
X108973571Y-110116904D01*
X108925952Y-110212142D01*
X108878333Y-110259761D01*
X108783095Y-110307380D01*
X108545000Y-110307380D01*
X108449761Y-110259761D01*
X108402142Y-110212142D01*
X109259285Y-109307380D02*
X109592619Y-110307380D01*
X109925952Y-109307380D01*
X103886190Y-78192380D02*
X104219523Y-79192380D01*
X104552857Y-78192380D01*
X105076666Y-78192380D02*
X105171904Y-78192380D01*
X105267142Y-78240000D01*
X105314761Y-78287619D01*
X105362380Y-78382857D01*
X105410000Y-78573333D01*
X105410000Y-78811428D01*
X105362380Y-79001904D01*
X105314761Y-79097142D01*
X105267142Y-79144761D01*
X105171904Y-79192380D01*
X105076666Y-79192380D01*
X104981428Y-79144761D01*
X104933809Y-79097142D01*
X104886190Y-79001904D01*
X104838571Y-78811428D01*
X104838571Y-78573333D01*
X104886190Y-78382857D01*
X104933809Y-78287619D01*
X104981428Y-78240000D01*
X105076666Y-78192380D01*
X105838571Y-79097142D02*
X105886190Y-79144761D01*
X105838571Y-79192380D01*
X105790952Y-79144761D01*
X105838571Y-79097142D01*
X105838571Y-79192380D01*
X106838571Y-79192380D02*
X106267142Y-79192380D01*
X106552857Y-79192380D02*
X106552857Y-78192380D01*
X106457619Y-78335238D01*
X106362380Y-78430476D01*
X106267142Y-78478095D01*
D10*
X99509285Y-75214285D02*
X100366428Y-75214285D01*
X99937857Y-77014285D02*
X99937857Y-75214285D01*
X100866428Y-77014285D02*
X100866428Y-75214285D01*
X102437857Y-76842857D02*
X102366428Y-76928571D01*
X102152142Y-77014285D01*
X102009285Y-77014285D01*
X101795000Y-76928571D01*
X101652142Y-76757142D01*
X101580714Y-76585714D01*
X101509285Y-76242857D01*
X101509285Y-75985714D01*
X101580714Y-75642857D01*
X101652142Y-75471428D01*
X101795000Y-75300000D01*
X102009285Y-75214285D01*
X102152142Y-75214285D01*
X102366428Y-75300000D01*
X102437857Y-75385714D01*
X104009285Y-75814285D02*
X104580714Y-75814285D01*
X104223571Y-75214285D02*
X104223571Y-76757142D01*
X104295000Y-76928571D01*
X104437857Y-77014285D01*
X104580714Y-77014285D01*
X105295000Y-77014285D02*
X105152142Y-76928571D01*
X105080714Y-76842857D01*
X105009285Y-76671428D01*
X105009285Y-76157142D01*
X105080714Y-75985714D01*
X105152142Y-75900000D01*
X105295000Y-75814285D01*
X105509285Y-75814285D01*
X105652142Y-75900000D01*
X105723571Y-75985714D01*
X105795000Y-76157142D01*
X105795000Y-76671428D01*
X105723571Y-76842857D01*
X105652142Y-76928571D01*
X105509285Y-77014285D01*
X105295000Y-77014285D01*
X107580714Y-75214285D02*
X107580714Y-76671428D01*
X107652142Y-76842857D01*
X107723571Y-76928571D01*
X107866428Y-77014285D01*
X108152142Y-77014285D01*
X108295000Y-76928571D01*
X108366428Y-76842857D01*
X108437857Y-76671428D01*
X108437857Y-75214285D01*
X109080714Y-76500000D02*
X109795000Y-76500000D01*
X108937857Y-77014285D02*
X109437857Y-75214285D01*
X109937857Y-77014285D01*
X111295000Y-77014285D02*
X110795000Y-76157142D01*
X110437857Y-77014285D02*
X110437857Y-75214285D01*
X111009285Y-75214285D01*
X111152142Y-75300000D01*
X111223571Y-75385714D01*
X111295000Y-75557142D01*
X111295000Y-75814285D01*
X111223571Y-75985714D01*
X111152142Y-76071428D01*
X111009285Y-76157142D01*
X110437857Y-76157142D01*
X111723571Y-75214285D02*
X112580714Y-75214285D01*
X112152142Y-77014285D02*
X112152142Y-75214285D01*
D11*
%TO.C,J3*%
X146772380Y-92789333D02*
X147486666Y-92789333D01*
X147629523Y-92836952D01*
X147724761Y-92932190D01*
X147772380Y-93075047D01*
X147772380Y-93170285D01*
X146772380Y-92408380D02*
X146772380Y-91789333D01*
X147153333Y-92122666D01*
X147153333Y-91979809D01*
X147200952Y-91884571D01*
X147248571Y-91836952D01*
X147343809Y-91789333D01*
X147581904Y-91789333D01*
X147677142Y-91836952D01*
X147724761Y-91884571D01*
X147772380Y-91979809D01*
X147772380Y-92265523D01*
X147724761Y-92360761D01*
X147677142Y-92408380D01*
%TO.C,RV1*%
X104829761Y-89027380D02*
X104496428Y-88551190D01*
X104258333Y-89027380D02*
X104258333Y-88027380D01*
X104639285Y-88027380D01*
X104734523Y-88075000D01*
X104782142Y-88122619D01*
X104829761Y-88217857D01*
X104829761Y-88360714D01*
X104782142Y-88455952D01*
X104734523Y-88503571D01*
X104639285Y-88551190D01*
X104258333Y-88551190D01*
X105115476Y-88027380D02*
X105448809Y-89027380D01*
X105782142Y-88027380D01*
X106639285Y-89027380D02*
X106067857Y-89027380D01*
X106353571Y-89027380D02*
X106353571Y-88027380D01*
X106258333Y-88170238D01*
X106163095Y-88265476D01*
X106067857Y-88313095D01*
%TO.C,R2*%
X116022380Y-99099666D02*
X115546190Y-99433000D01*
X116022380Y-99671095D02*
X115022380Y-99671095D01*
X115022380Y-99290142D01*
X115070000Y-99194904D01*
X115117619Y-99147285D01*
X115212857Y-99099666D01*
X115355714Y-99099666D01*
X115450952Y-99147285D01*
X115498571Y-99194904D01*
X115546190Y-99290142D01*
X115546190Y-99671095D01*
X115117619Y-98718714D02*
X115070000Y-98671095D01*
X115022380Y-98575857D01*
X115022380Y-98337761D01*
X115070000Y-98242523D01*
X115117619Y-98194904D01*
X115212857Y-98147285D01*
X115308095Y-98147285D01*
X115450952Y-98194904D01*
X116022380Y-98766333D01*
X116022380Y-98147285D01*
%TO.C,R1*%
X136993333Y-99342380D02*
X136660000Y-98866190D01*
X136421904Y-99342380D02*
X136421904Y-98342380D01*
X136802857Y-98342380D01*
X136898095Y-98390000D01*
X136945714Y-98437619D01*
X136993333Y-98532857D01*
X136993333Y-98675714D01*
X136945714Y-98770952D01*
X136898095Y-98818571D01*
X136802857Y-98866190D01*
X136421904Y-98866190D01*
X137945714Y-99342380D02*
X137374285Y-99342380D01*
X137660000Y-99342380D02*
X137660000Y-98342380D01*
X137564761Y-98485238D01*
X137469523Y-98580476D01*
X137374285Y-98628095D01*
%TO.C,R3*%
X103592333Y-82367380D02*
X103259000Y-81891190D01*
X103020904Y-82367380D02*
X103020904Y-81367380D01*
X103401857Y-81367380D01*
X103497095Y-81415000D01*
X103544714Y-81462619D01*
X103592333Y-81557857D01*
X103592333Y-81700714D01*
X103544714Y-81795952D01*
X103497095Y-81843571D01*
X103401857Y-81891190D01*
X103020904Y-81891190D01*
X103925666Y-81367380D02*
X104544714Y-81367380D01*
X104211380Y-81748333D01*
X104354238Y-81748333D01*
X104449476Y-81795952D01*
X104497095Y-81843571D01*
X104544714Y-81938809D01*
X104544714Y-82176904D01*
X104497095Y-82272142D01*
X104449476Y-82319761D01*
X104354238Y-82367380D01*
X104068523Y-82367380D01*
X103973285Y-82319761D01*
X103925666Y-82272142D01*
%TO.C,R4*%
X106894333Y-82367380D02*
X106561000Y-81891190D01*
X106322904Y-82367380D02*
X106322904Y-81367380D01*
X106703857Y-81367380D01*
X106799095Y-81415000D01*
X106846714Y-81462619D01*
X106894333Y-81557857D01*
X106894333Y-81700714D01*
X106846714Y-81795952D01*
X106799095Y-81843571D01*
X106703857Y-81891190D01*
X106322904Y-81891190D01*
X107751476Y-81700714D02*
X107751476Y-82367380D01*
X107513380Y-81319761D02*
X107275285Y-82034047D01*
X107894333Y-82034047D01*
%TO.C,U2*%
X104638095Y-100832380D02*
X104638095Y-101641904D01*
X104685714Y-101737142D01*
X104733333Y-101784761D01*
X104828571Y-101832380D01*
X105019047Y-101832380D01*
X105114285Y-101784761D01*
X105161904Y-101737142D01*
X105209523Y-101641904D01*
X105209523Y-100832380D01*
X105638095Y-100927619D02*
X105685714Y-100880000D01*
X105780952Y-100832380D01*
X106019047Y-100832380D01*
X106114285Y-100880000D01*
X106161904Y-100927619D01*
X106209523Y-101022857D01*
X106209523Y-101118095D01*
X106161904Y-101260952D01*
X105590476Y-101832380D01*
X106209523Y-101832380D01*
%TO.C,J2*%
X101277380Y-107013333D02*
X101991666Y-107013333D01*
X102134523Y-107060952D01*
X102229761Y-107156190D01*
X102277380Y-107299047D01*
X102277380Y-107394285D01*
X101372619Y-106584761D02*
X101325000Y-106537142D01*
X101277380Y-106441904D01*
X101277380Y-106203809D01*
X101325000Y-106108571D01*
X101372619Y-106060952D01*
X101467857Y-106013333D01*
X101563095Y-106013333D01*
X101705952Y-106060952D01*
X102277380Y-106632380D01*
X102277380Y-106013333D01*
%TO.C,J1*%
X141906666Y-94492380D02*
X141906666Y-95206666D01*
X141859047Y-95349523D01*
X141763809Y-95444761D01*
X141620952Y-95492380D01*
X141525714Y-95492380D01*
X142906666Y-95492380D02*
X142335238Y-95492380D01*
X142620952Y-95492380D02*
X142620952Y-94492380D01*
X142525714Y-94635238D01*
X142430476Y-94730476D01*
X142335238Y-94778095D01*
%TO.C,U1*%
X119888095Y-95762380D02*
X119888095Y-96571904D01*
X119935714Y-96667142D01*
X119983333Y-96714761D01*
X120078571Y-96762380D01*
X120269047Y-96762380D01*
X120364285Y-96714761D01*
X120411904Y-96667142D01*
X120459523Y-96571904D01*
X120459523Y-95762380D01*
X121459523Y-96762380D02*
X120888095Y-96762380D01*
X121173809Y-96762380D02*
X121173809Y-95762380D01*
X121078571Y-95905238D01*
X120983333Y-96000476D01*
X120888095Y-96048095D01*
%TO.C,D1*%
X131516380Y-92178095D02*
X130516380Y-92178095D01*
X130516380Y-91940000D01*
X130564000Y-91797142D01*
X130659238Y-91701904D01*
X130754476Y-91654285D01*
X130944952Y-91606666D01*
X131087809Y-91606666D01*
X131278285Y-91654285D01*
X131373523Y-91701904D01*
X131468761Y-91797142D01*
X131516380Y-91940000D01*
X131516380Y-92178095D01*
X131516380Y-90654285D02*
X131516380Y-91225714D01*
X131516380Y-90940000D02*
X130516380Y-90940000D01*
X130659238Y-91035238D01*
X130754476Y-91130476D01*
X130802095Y-91225714D01*
X126622380Y-96781904D02*
X125622380Y-96781904D01*
X126622380Y-96210476D02*
X126050952Y-96639047D01*
X125622380Y-96210476D02*
X126193809Y-96781904D01*
D12*
%TO.C,RV1*%
X108900000Y-82705000D02*
X101950000Y-82705000D01*
X108900000Y-84669000D02*
X108900000Y-82705000D01*
X108900000Y-87445000D02*
X108900000Y-85659000D01*
X101950000Y-87445000D02*
X101950000Y-85659000D01*
X101950000Y-84669000D02*
X101950000Y-82705000D01*
X108900000Y-87445000D02*
X101950000Y-87445000D01*
%TO.C,R2*%
X113030000Y-95020000D02*
X113030000Y-95790000D01*
X113030000Y-103100000D02*
X113030000Y-102330000D01*
X111660000Y-102330000D02*
X114400000Y-102330000D01*
X114400000Y-95790000D02*
X111660000Y-95790000D01*
X114400000Y-102330000D02*
X114400000Y-95790000D01*
X111660000Y-95790000D02*
X111660000Y-102330000D01*
%TO.C,R1*%
X133120000Y-96520000D02*
X133890000Y-96520000D01*
X141200000Y-96520000D02*
X140430000Y-96520000D01*
X140430000Y-97890000D02*
X140430000Y-95150000D01*
X133890000Y-95150000D02*
X133890000Y-97890000D01*
X140430000Y-95150000D02*
X133890000Y-95150000D01*
X133890000Y-97890000D02*
X140430000Y-97890000D01*
%TO.C,R3*%
X103547936Y-83085000D02*
X104002064Y-83085000D01*
X103547936Y-84555000D02*
X104002064Y-84555000D01*
%TO.C,R4*%
X106817936Y-83085000D02*
X107272064Y-83085000D01*
X106817936Y-84555000D02*
X107272064Y-84555000D01*
%TO.C,U2*%
X106400000Y-100380000D02*
G75*
G03*
X104400000Y-100380000I-1000000J0D01*
G01*
X110650000Y-100440000D02*
X110650000Y-90040000D01*
X110650000Y-90040000D02*
X100150000Y-90040000D01*
X100150000Y-100440000D02*
X110650000Y-100440000D01*
X103150000Y-90100000D02*
X103150000Y-100380000D01*
X100150000Y-90040000D02*
X100150000Y-100440000D01*
X106400000Y-100380000D02*
X107650000Y-100380000D01*
X103150000Y-100380000D02*
X104400000Y-100380000D01*
X107650000Y-100380000D02*
X107650000Y-90100000D01*
X107650000Y-90100000D02*
X103150000Y-90100000D01*
%TO.C,J2*%
X105425000Y-108010000D02*
X105425000Y-105350000D01*
X102825000Y-108010000D02*
X102825000Y-106680000D01*
X105425000Y-105350000D02*
X110565000Y-105350000D01*
X104155000Y-108010000D02*
X102825000Y-108010000D01*
X105425000Y-108010000D02*
X110565000Y-108010000D01*
X110565000Y-108010000D02*
X110565000Y-105350000D01*
%TO.C,J1*%
X143570000Y-92710000D02*
X143570000Y-94040000D01*
X143570000Y-88840000D02*
X140910000Y-88840000D01*
X143570000Y-91440000D02*
X143570000Y-88840000D01*
X143570000Y-91440000D02*
X140910000Y-91440000D01*
X143570000Y-94040000D02*
X142240000Y-94040000D01*
X140910000Y-91440000D02*
X140910000Y-88840000D01*
%TO.C,U1*%
X118000000Y-90110000D02*
X118000000Y-95310000D01*
X125790000Y-90050000D02*
X115510000Y-90050000D01*
X121650000Y-95310000D02*
X123300000Y-95310000D01*
X115510000Y-95370000D02*
X125790000Y-95370000D01*
X125790000Y-95370000D02*
X125790000Y-90050000D01*
X115510000Y-90050000D02*
X115510000Y-95370000D01*
X123300000Y-95310000D02*
X123300000Y-90110000D01*
X123300000Y-90110000D02*
X118000000Y-90110000D01*
X118000000Y-95310000D02*
X119650000Y-95310000D01*
X121650000Y-95310000D02*
G75*
G03*
X119650000Y-95310000I-1000000J0D01*
G01*
%TO.C,D1*%
X126800000Y-93260000D02*
X129740000Y-93260000D01*
X126800000Y-93140000D02*
X129740000Y-93140000D01*
X129740000Y-94160000D02*
X129740000Y-88720000D01*
X128270000Y-87700000D02*
X128270000Y-88720000D01*
X126800000Y-94160000D02*
X129740000Y-94160000D01*
X126800000Y-93380000D02*
X129740000Y-93380000D01*
X129740000Y-88720000D02*
X126800000Y-88720000D01*
X128270000Y-95180000D02*
X128270000Y-94160000D01*
X126800000Y-88720000D02*
X126800000Y-94160000D01*
%TD*%
%LPC*%
D13*
%TO.C,J3*%
X147320000Y-96520000D03*
D14*
X147320000Y-88720000D03*
%TD*%
D15*
%TO.C,RV1*%
X102885000Y-85165000D03*
X105425000Y-85165000D03*
X107965000Y-85165000D03*
%TD*%
D16*
%TO.C,R2*%
X113030000Y-104140000D03*
D17*
X113030000Y-93980000D03*
%TD*%
D16*
%TO.C,R1*%
X142240000Y-96520000D03*
D17*
X132080000Y-96520000D03*
%TD*%
D18*
%TO.C,R3*%
X102775000Y-83820000D03*
X104775000Y-83820000D03*
%TD*%
%TO.C,R4*%
X106045000Y-83820000D03*
X108045000Y-83820000D03*
%TD*%
D19*
%TO.C,REF\u002A\u002A*%
X120904000Y-81788000D03*
D20*
X120904000Y-81788000D03*
%TD*%
D19*
%TO.C,REF\u002A\u002A*%
X120904000Y-102616000D03*
D20*
X120904000Y-102616000D03*
%TD*%
D21*
%TO.C,U2*%
X101590000Y-99050000D03*
X101590000Y-96510000D03*
X101590000Y-93970000D03*
X101590000Y-91430000D03*
X109210000Y-91430000D03*
X109210000Y-93970000D03*
X109210000Y-96510000D03*
D22*
X109210000Y-99050000D03*
%TD*%
D23*
%TO.C,J2*%
X109235000Y-106680000D03*
X106695000Y-106680000D03*
D24*
X104155000Y-106680000D03*
%TD*%
%TO.C,J1*%
X142240000Y-92710000D03*
D23*
X142240000Y-90170000D03*
%TD*%
D25*
%TO.C,U1*%
X124460000Y-93980000D03*
D17*
X124460000Y-91440000D03*
X116840000Y-91440000D03*
X116840000Y-93980000D03*
%TD*%
D26*
%TO.C,D1*%
X128270000Y-96520000D03*
D27*
X128270000Y-86360000D03*
%TD*%
M02*
