%TF.GenerationSoftware,KiCad,Pcbnew,(6.0.4)*%
%TF.CreationDate,2022-03-26T00:49:46+01:00*%
%TF.ProjectId,TICtoUART,54494374-6f55-4415-9254-2e6b69636164,rev?*%
%TF.SameCoordinates,Original*%
%TF.FileFunction,Copper,L2,Bot*%
%TF.FilePolarity,Positive*%
%FSLAX46Y46*%
G04 Gerber Fmt 4.6, Leading zero omitted, Abs format (unit mm)*
G04 Created by KiCad (PCBNEW (6.0.4)) date 2022-03-26 00:49:46*
%MOMM*%
%LPD*%
G01*
G04 APERTURE LIST*
G04 Aperture macros list*
%AMRoundRect*
0 Rectangle with rounded corners*
0 $1 Rounding radius*
0 $2 $3 $4 $5 $6 $7 $8 $9 X,Y pos of 4 corners*
0 Add a 4 corners polygon primitive as box body*
4,1,4,$2,$3,$4,$5,$6,$7,$8,$9,$2,$3,0*
0 Add four circle primitives for the rounded corners*
1,1,$1+$1,$2,$3*
1,1,$1+$1,$4,$5*
1,1,$1+$1,$6,$7*
1,1,$1+$1,$8,$9*
0 Add four rect primitives between the rounded corners*
20,1,$1+$1,$2,$3,$4,$5,0*
20,1,$1+$1,$4,$5,$6,$7,0*
20,1,$1+$1,$6,$7,$8,$9,0*
20,1,$1+$1,$8,$9,$2,$3,0*%
G04 Aperture macros list end*
%TA.AperFunction,ComponentPad*%
%ADD10RoundRect,0.250002X1.699998X-1.699998X1.699998X1.699998X-1.699998X1.699998X-1.699998X-1.699998X0*%
%TD*%
%TA.AperFunction,ComponentPad*%
%ADD11C,3.900000*%
%TD*%
%TA.AperFunction,ComponentPad*%
%ADD12C,1.440000*%
%TD*%
%TA.AperFunction,ComponentPad*%
%ADD13C,1.600000*%
%TD*%
%TA.AperFunction,ComponentPad*%
%ADD14O,1.600000X1.600000*%
%TD*%
%TA.AperFunction,ConnectorPad*%
%ADD15C,8.000000*%
%TD*%
%TA.AperFunction,ComponentPad*%
%ADD16C,4.400000*%
%TD*%
%TA.AperFunction,ComponentPad*%
%ADD17O,2.400000X1.600000*%
%TD*%
%TA.AperFunction,ComponentPad*%
%ADD18R,2.400000X1.600000*%
%TD*%
%TA.AperFunction,ComponentPad*%
%ADD19O,1.700000X1.700000*%
%TD*%
%TA.AperFunction,ComponentPad*%
%ADD20R,1.700000X1.700000*%
%TD*%
%TA.AperFunction,ComponentPad*%
%ADD21R,1.600000X1.600000*%
%TD*%
%TA.AperFunction,ComponentPad*%
%ADD22R,2.200000X2.200000*%
%TD*%
%TA.AperFunction,ComponentPad*%
%ADD23O,2.200000X2.200000*%
%TD*%
%TA.AperFunction,Conductor*%
%ADD24C,0.250000*%
%TD*%
G04 APERTURE END LIST*
D10*
%TO.P,J3,1,Pin_1*%
%TO.N,Net-(R1-Pad1)*%
X147320000Y-96520000D03*
D11*
%TO.P,J3,2,Pin_2*%
%TO.N,Net-(D1-Pad2)*%
X147320000Y-88720000D03*
%TD*%
D12*
%TO.P,RV1,1,1*%
%TO.N,+5V*%
X102885000Y-85165000D03*
%TO.P,RV1,2,2*%
%TO.N,Net-(RV1-Pad2)*%
X105425000Y-85165000D03*
%TO.P,RV1,3,3*%
%TO.N,GND*%
X107965000Y-85165000D03*
%TD*%
D13*
%TO.P,R2,1*%
%TO.N,+5V*%
X113030000Y-104140000D03*
D14*
%TO.P,R2,2*%
%TO.N,Net-(R2-Pad2)*%
X113030000Y-93980000D03*
%TD*%
D13*
%TO.P,R1,1*%
%TO.N,Net-(R1-Pad1)*%
X142240000Y-96520000D03*
D14*
%TO.P,R1,2*%
%TO.N,Net-(D1-Pad1)*%
X132080000Y-96520000D03*
%TD*%
D15*
%TO.P,REF\u002A\u002A,1*%
%TO.N,N/C*%
X120904000Y-81788000D03*
D16*
X120904000Y-81788000D03*
%TD*%
D15*
%TO.P,REF\u002A\u002A,1*%
%TO.N,N/C*%
X120904000Y-102616000D03*
D16*
X120904000Y-102616000D03*
%TD*%
D17*
%TO.P,U2,8,V+*%
%TO.N,+5V*%
X101590000Y-99050000D03*
%TO.P,U2,7*%
%TO.N,N/C*%
X101590000Y-96510000D03*
%TO.P,U2,6*%
X101590000Y-93970000D03*
%TO.P,U2,5*%
X101590000Y-91430000D03*
%TO.P,U2,4,V-*%
%TO.N,GND*%
X109210000Y-91430000D03*
%TO.P,U2,3,+*%
%TO.N,Net-(R2-Pad2)*%
X109210000Y-93970000D03*
%TO.P,U2,2,-*%
%TO.N,Net-(RV1-Pad2)*%
X109210000Y-96510000D03*
D18*
%TO.P,U2,1*%
%TO.N,Net-(U2-Pad1)*%
X109210000Y-99050000D03*
%TD*%
D19*
%TO.P,J2,3,Pin_3*%
%TO.N,+5V*%
X109235000Y-106680000D03*
%TO.P,J2,2,Pin_2*%
%TO.N,Net-(U2-Pad1)*%
X106695000Y-106680000D03*
D20*
%TO.P,J2,1,Pin_1*%
%TO.N,GND*%
X104155000Y-106680000D03*
%TD*%
%TO.P,J1,1,Pin_1*%
%TO.N,Net-(R1-Pad1)*%
X142240000Y-92710000D03*
D19*
%TO.P,J1,2,Pin_2*%
%TO.N,Net-(D1-Pad2)*%
X142240000Y-90170000D03*
%TD*%
D21*
%TO.P,U1,1*%
%TO.N,Net-(D1-Pad1)*%
X124460000Y-93980000D03*
D14*
%TO.P,U1,2*%
%TO.N,Net-(D1-Pad2)*%
X124460000Y-91440000D03*
%TO.P,U1,3*%
%TO.N,GND*%
X116840000Y-91440000D03*
%TO.P,U1,4*%
%TO.N,Net-(R2-Pad2)*%
X116840000Y-93980000D03*
%TD*%
D22*
%TO.P,D1,1,K*%
%TO.N,Net-(D1-Pad1)*%
X128270000Y-96520000D03*
D23*
%TO.P,D1,2,A*%
%TO.N,Net-(D1-Pad2)*%
X128270000Y-86360000D03*
%TD*%
D24*
%TO.N,Net-(R1-Pad1)*%
X142240000Y-96520000D02*
X147320000Y-96520000D01*
%TO.N,Net-(D1-Pad2)*%
X145870000Y-90170000D02*
X147320000Y-88720000D01*
X142240000Y-90170000D02*
X145870000Y-90170000D01*
%TO.N,Net-(D1-Pad1)*%
X124460000Y-95250000D02*
X124460000Y-93980000D01*
X125730000Y-96520000D02*
X124460000Y-95250000D01*
X128270000Y-96520000D02*
X125730000Y-96520000D01*
X132080000Y-96520000D02*
X128270000Y-96520000D01*
%TO.N,GND*%
X109210000Y-91430000D02*
X116830000Y-91430000D01*
X116830000Y-91430000D02*
X116840000Y-91440000D01*
X109166581Y-87429419D02*
X109210000Y-87472838D01*
X109210000Y-91430000D02*
X109210000Y-87472838D01*
X109166581Y-87429419D02*
X107965000Y-86227837D01*
X107965000Y-86227837D02*
X107965000Y-85165000D01*
%TO.N,+5V*%
X102885000Y-87500000D02*
X102885000Y-85165000D01*
X103489520Y-88104520D02*
X102885000Y-87500000D01*
%TO.N,Net-(RV1-Pad2)*%
X105425000Y-92725000D02*
X105425000Y-85165000D01*
X109210000Y-96510000D02*
X105425000Y-92725000D01*
%TO.N,Net-(U2-Pad1)*%
X106680000Y-102870000D02*
X109210000Y-100340000D01*
X106695000Y-102885000D02*
X106680000Y-102870000D01*
X106695000Y-106680000D02*
X106695000Y-102885000D01*
X109210000Y-100340000D02*
X109210000Y-99050000D01*
%TO.N,Net-(D1-Pad2)*%
X128270000Y-86360000D02*
X124460000Y-90170000D01*
X124460000Y-90170000D02*
X124460000Y-91440000D01*
X140970000Y-90170000D02*
X137160000Y-86360000D01*
X128270000Y-86360000D02*
X137160000Y-86360000D01*
X142240000Y-90170000D02*
X140970000Y-90170000D01*
%TO.N,Net-(R1-Pad1)*%
X142240000Y-92710000D02*
X142240000Y-96520000D01*
%TO.N,+5V*%
X110490000Y-106680000D02*
X113030000Y-104140000D01*
X109235000Y-106680000D02*
X110490000Y-106680000D01*
X107950000Y-109220000D02*
X102870000Y-109220000D01*
X102870000Y-109220000D02*
X101590000Y-107940000D01*
X101590000Y-107940000D02*
X101590000Y-99050000D01*
X109235000Y-107935000D02*
X107950000Y-109220000D01*
X109235000Y-106680000D02*
X109235000Y-107935000D01*
X101590000Y-99050000D02*
X103489520Y-97150480D01*
X103489520Y-97150480D02*
X103489520Y-88104520D01*
%TO.N,Net-(R2-Pad2)*%
X109220000Y-93980000D02*
X109210000Y-93970000D01*
X109220000Y-93980000D02*
X116840000Y-93980000D01*
%TD*%
M02*
